SplineFontDB: 3.0
FontName: SUN7.22
FullName: SUN7.22
FamilyName: SUN7.22
Weight: Regular
Copyright: 
UComments: "2017-6-29: Created with FontForge (http://fontforge.org)"
Version: 001.007
ItalicAngle: 0
UnderlinePosition: -100
UnderlineWidth: 50
Ascent: 800
Descent: 200
InvalidEm: 0
LayerCount: 4
Layer: 0 0 "Back" 1
Layer: 1 0 "Fore" 0
Layer: 2 0 "Back 2" 1
Layer: 3 0 "Back 3" 1
XUID: [1021 90 1308529427 3215012]
StyleMap: 0x0000
FSType: 0
OS2Version: 0
OS2_WeightWidthSlopeOnly: 0
OS2_UseTypoMetrics: 1
CreationTime: 1498745959
ModificationTime: 1565441378
PfmFamily: 17
TTFWeight: 400
TTFWidth: 5
LineGap: 90
VLineGap: 90
OS2TypoAscent: 0
OS2TypoAOffset: 1
OS2TypoDescent: 0
OS2TypoDOffset: 1
OS2TypoLinegap: 90
OS2WinAscent: 0
OS2WinAOffset: 1
OS2WinDescent: 0
OS2WinDOffset: 1
HheadAscent: 0
HheadAOffset: 1
HheadDescent: 0
HheadDOffset: 1
OS2Vendor: 'PfEd'
MarkAttachClasses: 1
DEI: 91125
LangName: 1033
Encoding: Custom
UnicodeInterp: none
NameList: Adobe Glyph List
DisplaySize: -48
AntiAlias: 1
FitToEm: 0
WidthSeparation: 5
WinInfo: 1892 22 11
BeginPrivate: 0
EndPrivate
Grid
-1000 1518.72558594 m 0
 2000 1518.72558594 l 1024
-1000 -183 m 0
 2000 -183 l 1024
-1000 855.767089844 m 0
 2000 855.767089844 l 1024
-1000 968 m 0
 2000 968 l 1024
1353 1248 m 0
 1593 -660 l 1024
  Named: "Right"
-141 1284 m 0
 -300 -702 l 1024
  Named: "Left"
-1000 751.110443115 m 0
 2000 751.110443115 l 1024
EndSplineSet
AnchorClass2: "3"""  "2"""  "1"""  "aa""" 
BeginChars: 5462 5227

StartChar: uni000F
Encoding: -1 15 0
Width: 1000
VWidth: 0
LayerCount: 4
Back
SplineSet
875.27734375 446.388671875 m 1
 776.95703125 407.381835938 611.321289062 374.529296875 505.555664062 373.055664062 c 0
 399.764648438 374.404296875 234.129882812 407.256835938 135.833007812 446.388671875 c 1
 234.18359375 485.654296875 399.943359375 518.6328125 505.833007812 520 c 0
 611.532226562 518.4140625 777.04296875 485.436523438 875.27734375 446.388671875 c 1
98.888671875 371.666992188 m 1
 207.21875 327.659179688 390.02734375 290.69921875 506.944335938 289.166992188 c 0
 619.084960938 290.671875 794.924804688 324.893554688 899.444335938 365.555664062 c 1
 866.388671875 139.444335938 702.77734375 -33.3330078125 500 -33.3330078125 c 0
 297.22265625 -33.3330078125 129.72265625 142.5 98.888671875 371.666992188 c 1
961.944335938 500 m 0
 981.79296875 491.748046875 997.970703125 467.606445312 998.055664062 446.111328125 c 0
 998.055664062 446.099609375 998.055664062 446.081054688 998.055664062 446.069335938 c 0
 998.055664062 435.95703125 993.327148438 421.04296875 987.5 412.77734375 c 0
 972.22265625 117.77734375 761.666992188 -116.666992188 500 -116.666992188 c 0
 238.333007812 -116.666992188 25.27734375 120.27734375 11.111328125 416.944335938 c 0
 5.19140625 423.994140625 0.2138671875 437.185546875 0 446.388671875 c 0
 0.142578125 463.171875 12.587890625 482.584960938 27.77734375 489.72265625 c 0
 152.793945312 550.228515625 366.962890625 601.125976562 505.833007812 603.333007812 c 0
 637.662109375 601.04296875 842 554.749023438 961.944335938 500 c 0
505.555664062 519.72265625 m 2
 505.833007812 520 l 2
 399.943359375 518.6328125 234.18359375 485.654296875 135.833007812 446.388671875 c 1
 234.115234375 407.177734375 399.75 374.200195312 505.555664062 372.77734375 c 0
 611.2421875 374.279296875 776.752929688 407.1328125 875 446.111328125 c 1
 776.765625 485.159179688 611.25390625 518.13671875 505.555664062 519.72265625 c 2
500 -33.3330078125 m 0
 698.888671875 -33.3330078125 865 139.72265625 898.333007812 364.72265625 c 1
 793.813476562 324.060546875 617.973632812 289.837890625 505.833007812 288.333007812 c 0
 389.189453125 290.203125 206.87890625 327.536132812 98.888671875 371.666992188 c 1
 129.72265625 142.5 297.22265625 -33.3330078125 500 -33.3330078125 c 0
EndSplineSet
Fore
Validated: 1
EndChar

StartChar: ancestor.91
Encoding: 91 60544 1
Width: 962
VWidth: 0
Flags: W
HStem: -96.3486 39.3115<310.582 688.737> -9.50098 9.95898<483.308 495.26> 225.071 9.35254<405.671 449.007 528.454 573.224> 311.747 26.3477<471.69 629.15> 392.243 38.4111<328.698 684.209> 457.619 10.45<549.452 563.659 573.919 761.52 772.174 786.223> 763.809 10.4504<549.452 561.686 572.261 757.889 767.676 786.223>
VStem: 357.679 8.75293<135.489 184.437> 612.478 8.32812<135.81 183.683> 688.737 41.2627<-57.0371 106 233.4 392.243>
LayerCount: 4
Fore
SplineSet
489.245117188 -9.5 m 0
 489.205078125 -9.5 489.137695312 -9.5009765625 489.098632812 -9.5009765625 c 0
 486.10546875 -9.5009765625 481.969726562 -7.6513671875 479.868164062 -5.3740234375 c 2
 391.1796875 86.5322265625 l 2
 390.004882812 87.5751953125 388.200195312 89.3818359375 387.1484375 90.564453125 c 0
 385.307617188 92.533203125 382.6796875 95.9091796875 378.998046875 100.879882812 c 0
 375.973632812 104.926757812 371.498046875 111.817382812 369.006835938 116.259765625 c 0
 366.262695312 121.334960938 362.689453125 129.989257812 361.032226562 135.578125 c 0
 359.241210938 141.508789062 357.788085938 151.37890625 357.788085938 157.610351562 c 0
 357.788085938 157.7421875 357.788085938 157.954101562 357.7890625 158.086914062 c 0
 357.729492188 159.245117188 357.678710938 161.129882812 357.678710938 162.291015625 c 0
 357.678710938 178.75 366.248046875 201.823242188 376.807617188 213.79296875 c 0
 388.31640625 224.973632812 410.2734375 234.048828125 425.818359375 234.048828125 c 0
 426.8046875 234.048828125 428.404296875 234.0078125 429.388671875 233.955078125 c 0
 434.879882812 233.92578125 443.556640625 232.370117188 448.756835938 230.485351562 c 0
 454.0546875 228.58984375 462.141601562 224.388671875 466.810546875 221.107421875 c 0
 472.155273438 217.35546875 476.801757812 213.79296875 480.744140625 210.415039062 c 0
 484.6875 207.0390625 486.177734375 205.5390625 488.807617188 202.913085938 c 0
 491.436523438 205.5390625 494.06640625 207.977539062 496.870117188 210.415039062 c 0
 499.674804688 212.854492188 505.633789062 217.35546875 510.802734375 221.107421875 c 0
 515.471679688 224.389648438 523.559570312 228.590820312 528.857421875 230.485351562 c 0
 534.158203125 232.518554688 543.032226562 234.2421875 548.6640625 234.331054688 c 0
 549.6484375 234.381835938 551.247070312 234.423828125 552.234375 234.423828125 c 0
 567.779296875 234.423828125 589.736328125 225.348632812 601.24609375 214.166992188 c 0
 612.04296875 202.14453125 620.805664062 178.854492188 620.805664062 162.1796875 c 0
 620.805664062 161.048828125 620.758789062 159.21484375 620.700195312 158.086914062 c 0
 620.700195312 134.453125 609.30859375 110.3515625 586.874023438 86.3447265625 c 2
 498.53515625 -5.0927734375 l 2
 496.459960938 -7.486328125 492.296875 -9.4609375 489.245117188 -9.5 c 0
429.828125 224.952148438 m 0
 428.879882812 225.006835938 427.340820312 225.049804688 426.390625 225.049804688 c 0
 412.599609375 225.049804688 393.134765625 216.98046875 382.94140625 207.0390625 c 0
 373.826171875 196.596679688 366.431640625 176.5234375 366.431640625 162.233398438 c 0
 366.431640625 161.087890625 366.485351562 159.23046875 366.552734375 158.086914062 c 0
 366.616210938 152.552734375 368.029296875 143.814453125 369.708007812 138.579101562 c 0
 371.202148438 133.534179688 374.421875 125.720703125 376.895507812 121.135742188 c 0
 379.142578125 117.000976562 383.184570312 110.573242188 385.920898438 106.7890625 c 0
 389.42578125 102.098632812 391.967773438 98.91015625 393.544921875 97.41015625 c 0
 394.458984375 96.3662109375 396.030273438 94.7705078125 397.05078125 93.8466796875 c 2
 486.090820312 1.94140625 l 2
 486.806640625 1.1220703125 488.241210938 0.4580078125 489.2890625 0.4580078125 c 0
 490.338867188 0.4580078125 491.771484375 1.1220703125 492.48828125 1.94140625 c 2
 581.177734375 93.283203125 l 2
 601.860351562 115.416015625 612.375976562 137.360351562 612.375976562 158.368164062 c 0
 612.431640625 159.408203125 612.477539062 161.099609375 612.477539062 162.141601562 c 0
 612.477539062 176.594726562 604.932617188 196.8359375 595.637695312 207.3203125 c 0
 585.478515625 217.120117188 566.1328125 225.071289062 552.455078125 225.071289062 c 0
 551.407226562 225.071289062 549.708984375 225.018554688 548.6640625 224.952148438 c 0
 543.966796875 224.915039062 536.546875 223.571289062 532.099609375 221.951171875 c 0
 527.395507812 220.291992188 520.211914062 216.594726562 516.0625 213.698242188 c 0
 510.978515625 210.133789062 506.509765625 206.6640625 502.830078125 203.5703125 c 0
 499.7734375 200.846679688 495.061523438 196.141601562 492.3125 193.065429688 c 2
 489.245117188 189.784179688 l 1
 486.177734375 193.065429688 l 2
 483.443359375 196.006835938 478.771484375 200.502929688 475.75 203.100585938 c 0
 472.068359375 206.290039062 467.598632812 209.665039062 462.516601562 213.229492188 c 0
 458.3671875 216.124023438 451.181640625 219.822265625 446.478515625 221.481445312 c 0
 442.029296875 223.244140625 434.569335938 224.797851562 429.828125 224.952148438 c 0
278.731445312 465.412109375 m 1
 151.88671875 758.711914062 l 1
 166.272460938 766.7421875 l 1
 277.760742188 513.69921875 l 1
 379.359375 769.118164062 l 1
 401.025390625 763.512695312 l 1
 278.731445312 465.412109375 l 1
730 233.400390625 m 1
 813.279296875 168.227539062 l 1
 730 106 l 1
 734.025390625 -98.2197265625 l 1
 310.58203125 -96.3486328125 l 1
 306.053710938 -57.037109375 l 1
 688.737304688 -57.037109375 l 1
 688.737304688 133.907226562 l 1
 746.856445312 168.227539062 l 1
 688.737304688 208.788085938 l 1
 684.208984375 392.243164062 l 1
 324.168945312 392.243164062 l 1
 328.698242188 430.654296875 l 1
 730 430.654296875 l 1
 730 233.400390625 l 1
470.600585938 311.747070312 m 1
 471.690429688 338.094726562 l 1
 629.150390625 338.094726562 l 1
 630.618164062 312.995117188 l 1
 470.600585938 311.747070312 l 1
EndSplineSet
Refer: 73 57706 N 0.284124 0 0 0.376206 521.04 504.645 2
Refer: 587 58133 N 1.37508e-017 0.305366 -0.224574 1.86976e-017 601.947 516.242 2
Validated: 5
EndChar

StartChar: Theudas.92
Encoding: 92 60273 2
Width: 1000
VWidth: 0
Flags: W
HStem: -110.277 63<288.333 789.333> -14.9343 8.88283<292.716 677.37> 133.14 8.88283<292.716 373.422 387.101 476.288 489.967 579.154 592.833 677.78> 543.723 42.2227<501.778 710.389> 672.723 61.5557<312.333 783.333>
VStem: 101.422 19.3701<677.906 806> 279.036 13.6797<-6.05149 133.14> 373.422 13.6788<51.686 133.14> 476.288 13.6793<51.686 133.14> 579.154 13.6788<51.686 133.14> 677.37 13.6788<-6.05149 133.14> 789.333 54.667<-47.2773 214 418.167 672.723>
LayerCount: 4
Fore
SplineSet
68.978515625 788.764648438 m 6
 106.1640625 842.807617188 l 6
 108.461914062 846.145507812 113.436523438 846.153320312 115.825195312 843.114257812 c 6
 161.049804688 785.571289062 l 6
 163.180664062 782.859375 162.528320312 778.78125 159.658203125 776.869140625 c 4
 159.010742188 776.438476562 158.240234375 776.127929688 157.518554688 775.981445312 c 6
 149.813476562 774.426757812 l 6
 147.579101562 773.9765625 145.228515625 774.924804688 143.911132812 776.598632812 c 6
 119.618164062 807.478515625 l 5
 120.791992188 683.5546875 l 6
 120.825195312 680.0625 117.737304688 677.333984375 114.475585938 677.506835938 c 6
 107.10546875 677.895507812 l 6
 103.833984375 678.067382812 101.408203125 680.982421875 101.421875 683.915039062 c 6
 102 806 l 5
 82.212890625 777.29296875 l 6
 80.2548828125 774.453125 76.16796875 773.866210938 73.490234375 776.040039062 c 4
 73.08203125 776.372070312 72.439453125 777.142578125 72.3994140625 777.198242188 c 6
 69.048828125 781.86328125 l 6
 67.5 784.018554688 67.7802734375 787.022460938 68.978515625 788.764648438 c 6
844 418.166992188 m 1
 954.333007812 313.72265625 l 1
 844 214 l 1
 849.333007812 -113.27734375 l 1
 288.333007812 -110.27734375 l 1
 282.333007812 -47.27734375 l 1
 789.333007812 -47.27734375 l 1
 789.333007812 258.72265625 l 1
 866.333007812 313.72265625 l 1
 789.333007812 378.72265625 l 1
 783.333007812 672.72265625 l 1
 306.333007812 672.72265625 l 1
 312.333007812 734.278320312 l 1
 844 734.278320312 l 1
 844 418.166992188 l 1
500.333007812 543.72265625 m 1
 501.778320312 585.9453125 l 1
 710.388671875 585.9453125 l 1
 712.333007812 545.72265625 l 1
 500.333007812 543.72265625 l 1
EndSplineSet
Refer: 606 57725 N 0.551438 0 0 0.483133 356.314 147.436 2
Refer: 543 58117 N 0.492444 0 0 0.319776 229.792 -35.3644 2
Validated: 1
EndChar

StartChar: Dionysius.93
Encoding: 93 60280 3
Width: 1006
VWidth: 0
Flags: W
HStem: -90 63<243 744> 31.7472 10.9629<372.042 548.53> 349.018 10.9633<312.755 603.925> 564 42.2227<456.445 665.056> 693 61.5557<267 738>
VStem: 100.315 19.3698<694.266 822.361> 744 54.667<-27 234.277 438.444 693>
LayerCount: 4
Fore
SplineSet
67.8715258698 805.125707749 m 2
 105.057072745 859.168676499 l 2
 107.354154813 862.50710083 112.32865264 862.514555083 114.717421049 859.475129696 c 2
 159.942030424 801.932160946 l 2
 162.073190961 799.220511118 161.421113071 795.1426892 158.550617282 793.230846124 c 0
 157.90330281 792.799713741 157.133112752 792.488776247 156.411339153 792.343140814 c 2
 148.706261028 790.788453314 l 2
 146.47185631 790.337607647 144.121056503 791.28577425 142.803837898 792.960173068 c 2
 118.511076304 823.84021922 l 1
 119.684301442 699.916176208 l 2
 119.717361618 696.424134891 116.630254582 693.695693322 113.368592272 693.867700954 c 2
 105.998475085 694.256372829 l 2
 102.726508356 694.428923876 100.300639105 697.343985709 100.314520346 700.276448434 c 2
 100.892426662 822.361263658 l 1
 81.1051659432 793.654405647 l 2
 79.1478222836 790.814740909 75.0601268568 790.227728757 72.3827828873 792.401830708 c 0
 71.9743575048 792.733487167 71.331664574 793.503846506 71.2917535414 793.559414855 c 2
 67.9411676039 798.224453917 l 2
 66.3927582696 800.380312673 66.6731650074 803.384090802 67.8715258698 805.125707749 c 2
798.666992188 438.444335938 m 1
 909 334 l 1
 798.666992188 234.27734375 l 1
 804 -93 l 1
 243 -90 l 1
 237 -27 l 1
 744 -27 l 1
 744 279 l 1
 821 334 l 1
 744 399 l 1
 738 693 l 1
 261 693 l 1
 267 754.555664062 l 1
 798.666992188 754.555664062 l 1
 798.666992188 438.444335938 l 1
455 564 m 1
 456.4453125 606.22265625 l 1
 665.055664062 606.22265625 l 1
 667 566 l 1
 455 564 l 1
EndSplineSet
Refer: 510 57972 N 0.412033 0 0 0.39467 257.817 77.1342 2
Refer: 587 58133 N -0.30375 0.186863 -0.117781 -0.48191 625.16 399.871 2
Validated: 5
EndChar

StartChar: love96
Encoding: 96 57370 6
Width: 1034
VWidth: 0
Flags: W
HStem: -61.1143 29.4951<498.196 536.078> 633.687 27.7021<252.116 389.476 641.294 783.197>
VStem: 100 27.7383<368.346 513.331> 907.615 26.3984<369.296 511.096>
LayerCount: 4
Fore
SplineSet
517.015625 -61.111328125 m 0
 516.885742188 -61.1123046875 516.67578125 -61.1142578125 516.545898438 -61.1142578125 c 0
 507.0625 -61.1142578125 493.95703125 -55.63671875 487.29296875 -48.888671875 c 2
 206.182617188 223.333007812 l 2
 202.461914062 226.422851562 196.73828125 231.774414062 193.404296875 235.27734375 c 0
 187.571289062 241.111328125 179.23828125 251.111328125 167.571289062 265.833007812 c 0
 157.987304688 277.8203125 143.80078125 298.229492188 135.904296875 311.388671875 c 0
 127.204101562 326.420898438 115.879882812 352.056640625 110.626953125 368.611328125 c 0
 104.951171875 386.174804688 100.344726562 415.411132812 100.344726562 433.869140625 c 0
 100.344726562 434.2578125 100.346679688 434.888671875 100.348632812 435.27734375 c 0
 100.15625 438.712890625 100 444.29296875 100 447.733398438 c 0
 100 496.486328125 127.16015625 564.826171875 160.626953125 600.27734375 c 0
 197.107421875 633.397460938 266.703125 660.27734375 315.975585938 660.27734375 c 0
 319.100585938 660.27734375 324.171875 660.153320312 327.29296875 660 c 0
 344.696289062 659.91015625 372.19921875 655.306640625 388.682617188 649.72265625 c 0
 405.47265625 644.109375 431.108398438 631.665039062 445.904296875 621.944335938 c 0
 462.848632812 610.833007812 477.571289062 600.27734375 490.071289062 590.27734375 c 0
 502.571289062 580.27734375 507.29296875 575.833007812 515.626953125 568.055664062 c 0
 523.959960938 575.833007812 532.29296875 583.055664062 541.182617188 590.27734375 c 0
 550.071289062 597.5 568.959960938 610.833007812 585.348632812 621.944335938 c 0
 600.143554688 631.668945312 625.778320312 644.11328125 642.571289062 649.72265625 c 0
 659.375 655.747070312 687.499023438 660.849609375 705.348632812 661.111328125 c 0
 708.470703125 661.264648438 713.541015625 661.388671875 716.666992188 661.388671875 c 0
 765.939453125 661.388671875 835.53515625 634.508789062 872.015625 601.388671875 c 0
 906.23828125 565.779296875 934.013671875 496.794921875 934.013671875 447.405273438 c 0
 934.013671875 444.055664062 933.865234375 438.622070312 933.682617188 435.27734375 c 0
 933.682617188 365.27734375 897.571289062 293.888671875 826.459960938 222.77734375 c 2
 546.459960938 -48.0556640625 l 2
 539.879882812 -55.146484375 526.688476562 -60.99609375 517.015625 -61.111328125 c 0
328.682617188 633.333007812 m 0
 325.678710938 633.493164062 320.798828125 633.624023438 317.791015625 633.624023438 c 0
 274.077148438 633.624023438 212.37890625 609.724609375 180.071289062 580.27734375 c 0
 151.18359375 549.344726562 127.73828125 489.888671875 127.73828125 447.563476562 c 0
 127.73828125 444.169921875 127.912109375 438.665039062 128.126953125 435.27734375 c 0
 128.323242188 418.887695312 132.803710938 393.002929688 138.126953125 377.5 c 0
 142.862304688 362.556640625 153.067382812 339.409179688 160.904296875 325.833007812 c 0
 168.026367188 313.58203125 180.844726562 294.541992188 189.515625 283.333007812 c 0
 200.626953125 269.444335938 208.682617188 260 213.682617188 255.555664062 c 0
 216.580078125 252.463867188 221.557617188 247.735351562 224.79296875 245 c 2
 507.015625 -27.22265625 l 2
 509.288085938 -29.6494140625 513.830078125 -31.619140625 517.154296875 -31.619140625 c 0
 520.479492188 -31.619140625 525.021484375 -29.6494140625 527.29296875 -27.22265625 c 2
 808.404296875 243.333007812 l 2
 873.959960938 308.888671875 907.29296875 373.888671875 907.29296875 436.111328125 c 0
 907.470703125 439.193359375 907.615234375 444.200195312 907.615234375 447.288085938 c 0
 907.615234375 490.099609375 883.702148438 550.051757812 854.23828125 581.111328125 c 0
 822.036132812 610.1328125 760.717773438 633.686523438 717.3671875 633.686523438 c 0
 714.047851562 633.686523438 708.663085938 633.528320312 705.348632812 633.333007812 c 0
 690.461914062 633.224609375 666.942382812 629.2421875 652.848632812 624.444335938 c 0
 637.9375 619.530273438 615.1640625 608.579101562 602.015625 600 c 0
 585.904296875 589.444335938 571.73828125 579.166992188 560.071289062 570 c 0
 550.384765625 561.934570312 535.451171875 547.997070312 526.73828125 538.888671875 c 2
 517.015625 529.166992188 l 1
 507.29296875 538.888671875 l 2
 498.625976562 547.599609375 483.817382812 560.915039062 474.23828125 568.611328125 c 0
 462.571289062 578.055664062 448.404296875 588.055664062 432.29296875 598.611328125 c 0
 419.142578125 607.185546875 396.369140625 618.13671875 381.459960938 623.055664062 c 0
 367.357421875 628.2734375 343.712890625 632.877929688 328.682617188 633.333007812 c 0
EndSplineSet
Validated: 1
EndChar

StartChar: choose.103
Encoding: 103 57377 13
Width: 1126
VWidth: 0
Flags: W
HStem: -126 34.5933<542.121 584.182> 185.287 9.01217<592.447 790.118> 360.453 7.95711<262.357 443.186> 688.898 32.4904<268.896 421.408 701.004 858.56>
VStem: 99.9998 30.7981<377.693 547.738> 996.703 29.3104<378.807 545.117>
LayerCount: 4
Fore
SplineSet
-225.825195312 483 m 1049,168,-1
705 522 m 1,169,-1
 445 154 l 5,170,-1
 427 178 l 1,171,-1
 685 534 l 1,172,-1
 705 522 l 1,169,-1
EndSplineSet
Refer: 68 57605 N 0.270576 0 0 0.225933 550.763 199.194 2
Refer: 68 57605 N 0.247522 0 0 0.199483 224.225 372.732 2
Refer: 6 57370 N 1.11031 0 0 1.17285 -11.0312 -54.322 2
Validated: 1
EndChar

StartChar: reconcile.108
Encoding: 108 57382 18
Width: 1205
VWidth: 0
Flags: W
HStem: -2.9996 21.1874<529.099 554.853> 496.101 19.8994<361.803 455.186 626.384 722.856> 544 20<185 915>
VStem: 162.586 12.9342<434.708 572.759> 258.388 18.8577<305.497 409.645> 807.441 17.9468<306.18 408.04> 896.265 14.6588<410.015 548.804>
LayerCount: 4
Fore
SplineSet
185 564 m 1
 915 562 l 5
 919 544 l 1
 179 544 l 1
 185 564 l 1
EndSplineSet
Refer: 16 57380 N 1 0 0 1 -70 -72 2
Validated: 5
EndChar

StartChar: abomination.110
Encoding: 110 57508 20
Width: 1034
VWidth: 0
Flags: W
HStem: -132.461 12.4609<376.736 694> 186.034 23.5223<515.826 548.878> 740.138 22.0924<301.121 420.968 640.679 764.489>
VStem: 168.4 24.2017<528.529 644.154> 873.044 23.0326<529.287 642.372>
LayerCount: 4
Fore
SplineSet
726.594726562 -134.334960938 m 1
 343.561523438 -132.4609375 l 1
 533.775390625 119.331054688 l 1
 726.594726562 -134.334960938 l 1
376.736328125 -120 m 1
 694 -120 l 1
 533.920898438 88.265625 l 1
 376.736328125 -120 l 1
EndSplineSet
Refer: 6 57370 N 0.8725 0 0 0.7975 81.15 234.773 2
Refer: 75 57724 N 0.323765 0 0 0.318892 388.194 417.915 2
Validated: 1
EndChar

StartChar: thirst.111
Encoding: 111 60623 21
Width: 1034
VWidth: 0
Flags: W
HStem: -61.1143 29.4951<498.196 536.078> 150.712 0.75<428.771 607.772> 476.287 0.749023<368.634 662.311> 633.687 27.7021<252.116 389.476 641.294 783.197>
VStem: 100 27.7383<368.346 513.331> 907.615 26.3984<369.296 511.096>
LayerCount: 4
Fore
SplineSet
609.169352539 151.461914062 m 1
 665.476881779 476.287109375 l 1
 366.732974063 476.287109375 l 1
 426.945084684 151.461914062 l 1
 609.169352539 151.461914062 l 1
614.21875 139.461914062 m 2
 421.955078125 139.461914062 l 2
 418.944509683 139.461914062 416.515377433 141.887870951 416.05557901 144.368337276 c 2
 353.619055572 481.193532588 l 2
 352.894069992 485.10459932 356.302263471 488.287109375 359.518554688 488.287109375 c 2
 672.606445312 488.287109375 l 2
 676.61550484 488.287109375 679.044852199 484.299985525 678.518279667 481.262309604 c 2
 620.130584354 144.437114292 l 2
 619.617567595 141.477638511 616.841944466 139.461914062 614.21875 139.461914062 c 2
431.293945312 150.711914062 m 2
 428.771481573 150.711914062 425.943286179 152.658019078 425.394479237 155.618159049 c 2
 367.119088612 469.942377799 l 2
 366.659100403 472.423449708 368.633654769 477.036132812 373.018554688 477.036132812 c 2
 659.21875 477.036132812 l 2
 662.311208965 477.036132812 665.814824378 473.961239871 665.130701492 470.012009012 c 2
 610.680506179 155.687790262 l 2
 610.232590466 153.102110709 607.772089577 150.711914062 604.768554688 150.711914062 c 2
 431.293945312 150.711914062 l 2
436.283798555 162.711914062 m 1
 599.718571236 162.711914062 l 1
 652.090013768 465.036132813 l 1
 380.233195731 465.036132812 l 1
 436.283798555 162.711914062 l 1
517.015625 -61.111328125 m 0
 516.885742188 -61.1123046875 516.67578125 -61.1142578125 516.545898438 -61.1142578125 c 0
 507.0625 -61.1142578125 493.95703125 -55.63671875 487.29296875 -48.888671875 c 2
 206.182617188 223.333007812 l 2
 202.461914062 226.422851562 196.73828125 231.774414062 193.404296875 235.27734375 c 0
 187.571289062 241.111328125 179.23828125 251.111328125 167.571289062 265.833007812 c 0
 157.987304688 277.8203125 143.80078125 298.229492188 135.904296875 311.388671875 c 0
 127.204101562 326.420898438 115.879882812 352.056640625 110.626953125 368.611328125 c 0
 104.951171875 386.174804688 100.344726562 415.411132812 100.344726562 433.869140625 c 0
 100.344726562 434.2578125 100.346679688 434.888671875 100.348632812 435.27734375 c 0
 100.15625 438.712890625 100 444.29296875 100 447.733398438 c 0
 100 496.486328125 127.16015625 564.826171875 160.626953125 600.27734375 c 0
 197.107421875 633.397460938 266.703125 660.27734375 315.975585938 660.27734375 c 0
 319.100585938 660.27734375 324.171875 660.153320312 327.29296875 660 c 0
 344.696289062 659.91015625 372.19921875 655.306640625 388.682617188 649.72265625 c 0
 405.47265625 644.109375 431.108398438 631.665039062 445.904296875 621.944335938 c 0
 462.848632812 610.833007812 477.571289062 600.27734375 490.071289062 590.27734375 c 0
 502.571289062 580.27734375 507.29296875 575.833007812 515.626953125 568.055664062 c 0
 523.959960938 575.833007812 532.29296875 583.055664062 541.182617188 590.27734375 c 0
 550.071289062 597.5 568.959960938 610.833007812 585.348632812 621.944335938 c 0
 600.143554688 631.668945312 625.778320312 644.11328125 642.571289062 649.72265625 c 0
 659.375 655.747070312 687.499023438 660.849609375 705.348632812 661.111328125 c 0
 708.470703125 661.264648438 713.541015625 661.388671875 716.666992188 661.388671875 c 0
 765.939453125 661.388671875 835.53515625 634.508789062 872.015625 601.388671875 c 0
 906.23828125 565.779296875 934.013671875 496.794921875 934.013671875 447.405273438 c 0
 934.013671875 444.055664062 933.865234375 438.622070312 933.682617188 435.27734375 c 0
 933.682617188 365.27734375 897.571289062 293.888671875 826.459960938 222.77734375 c 2
 546.459960938 -48.0556640625 l 2
 539.879882812 -55.146484375 526.688476562 -60.99609375 517.015625 -61.111328125 c 0
328.682617188 633.333007812 m 0
 325.678710938 633.493164062 320.798828125 633.624023438 317.791015625 633.624023438 c 0
 274.077148438 633.624023438 212.37890625 609.724609375 180.071289062 580.27734375 c 0
 151.18359375 549.344726562 127.73828125 489.888671875 127.73828125 447.563476562 c 0
 127.73828125 444.169921875 127.912109375 438.665039062 128.126953125 435.27734375 c 0
 128.323242188 418.887695312 132.803710938 393.002929688 138.126953125 377.5 c 0
 142.862304688 362.556640625 153.067382812 339.409179688 160.904296875 325.833007812 c 0
 168.026367188 313.58203125 180.844726562 294.541992188 189.515625 283.333007812 c 0
 200.626953125 269.444335938 208.682617188 260 213.682617188 255.555664062 c 0
 216.580078125 252.463867188 221.557617188 247.735351562 224.79296875 245 c 2
 507.015625 -27.22265625 l 2
 509.288085938 -29.6494140625 513.830078125 -31.619140625 517.154296875 -31.619140625 c 0
 520.479492188 -31.619140625 525.021484375 -29.6494140625 527.29296875 -27.22265625 c 2
 808.404296875 243.333007812 l 2
 873.959960938 308.888671875 907.29296875 373.888671875 907.29296875 436.111328125 c 0
 907.470703125 439.193359375 907.615234375 444.200195312 907.615234375 447.288085938 c 0
 907.615234375 490.099609375 883.702148438 550.051757812 854.23828125 581.111328125 c 0
 822.036132812 610.1328125 760.717773438 633.686523438 717.3671875 633.686523438 c 0
 714.047851562 633.686523438 708.663085938 633.528320312 705.348632812 633.333007812 c 0
 690.461914062 633.224609375 666.942382812 629.2421875 652.848632812 624.444335938 c 0
 637.9375 619.530273438 615.1640625 608.579101562 602.015625 600 c 0
 585.904296875 589.444335938 571.73828125 579.166992188 560.071289062 570 c 0
 550.384765625 561.934570312 535.451171875 547.997070312 526.73828125 538.888671875 c 2
 517.015625 529.166992188 l 1
 507.29296875 538.888671875 l 2
 498.625976562 547.599609375 483.817382812 560.915039062 474.23828125 568.611328125 c 0
 462.571289062 578.055664062 448.404296875 588.055664062 432.29296875 598.611328125 c 0
 419.142578125 607.185546875 396.369140625 618.13671875 381.459960938 623.055664062 c 0
 367.357421875 628.2734375 343.712890625 632.877929688 328.682617188 633.333007812 c 0
EndSplineSet
Validated: 5
EndChar

StartChar: Philologus.132
Encoding: 132 60367 39
Width: 1006
VWidth: 0
Flags: W
HStem: -123.48 72.1353<207.08 768.2> 136.583 15.673<368.063 581.016> 241.248 15.674<368.063 581.016> 625.35 48.344<446.139 679.782> 773.055 70.481<233.96 761.479>
VStem: 97.1671 19.6649<677.054 795.82> 263.401 14.251<96.0625 333.921> 581.016 24.557<152.256 241.248> 678.504 14.108<97.915 334.182> 768.2 61.227<-51.3447 247.817 481.589 773.055>
LayerCount: 4
Fore
SplineSet
478.007 18.8281 m 1
 472.734 24.6699 l 2
 372.414 136.104 278.507 80.957 274.23 78.5352 c 2
 263.401 71.5518 l 1
 263.401 338.17 l 1
 266.536 340.308 l 2
 267.534 340.308 369.991 409.704 481 292 c 1
 592.008 409.99 688.764 340.877 689.762 340.164 c 2
 692.612 338.026 l 1
 692.612 70.1279 l 1
 681.069 79.1055 l 2
 677.507 81.8115 592.008 145.651 483.279 24.6699 c 2
 478.007 18.8281 l 1
338.072 108.032 m 2
 376.689 108.032 426.991 93.7822 478.007 40.0596 c 1
 537.286 103.045 590.725 114.159 625.353 112.164 c 0
 640.875 111.413 664.688 105.029 678.504 97.915 c 1
 678.504 330.617 l 1
 662.116 340.877 581.604 382.487 486.414 276.752 c 2
 481.142 270.91 l 1
 475.869 276.752 l 2
 381.392 381.489 294.752 340.308 277.652 330.475 c 1
 277.652 96.0625 l 1
 293.656 102.669 320.697 108.032 338.013 108.032 c 2
 338.072 108.032 l 2
605.573 135.791 m 1
 368.063 136.583 l 1
 368.063 152.256 l 1
 581.016 152.256 l 1
 581.016 241.248 l 1
 368.063 241.248 l 1
 368.063 256.922 l 1
 603.463 255.602 l 1
 605.573 135.791 l 1
63.5911 780.244 m 2
 102.264 829.964 l 2
 104.706 833.104 109.349 832.67 111.485 830.265 c 2
 158.519 777.327 l 2
 160.809 774.749 160.404 770.639 157.654 768.558 c 0
 156.902 767.988 156.016 767.601 155.088 767.435 c 2
 147.075 766.005 l 2
 145.033 765.64 142.896 766.396 141.537 767.924 c 2
 115.61 797.078 l 1
 116.832 682.909 l 2
 116.869 679.405 113.761 676.702 110.553 676.851 c 2
 102.888 677.209 l 2
 99.6268 677.361 97.151 680.232 97.1671 683.234 c 2
 97.7692 795.82 l 1
 76.5444 768.581 l 2
 74.1796 765.546 69.4974 765.599 67.1533 768.487 c 2
 63.6689 772.779 l 2
 61.8788 774.984 62.01 778.212 63.5911 780.244 c 2
829.427 481.589 m 1
 953 362 l 1
 829.427 247.817 l 1
 835.4 -126.915 l 1
 207.08 -123.48 l 1
 200.36 -51.3447 l 1
 768.2 -51.3447 l 1
 768.2 299.024 l 1
 854.439 362 l 1
 768.2 436.425 l 1
 761.479 773.055 l 1
 227.24 773.055 l 1
 233.96 843.536 l 1
 829.427 843.536 l 1
 829.427 481.589 l 1
444.52 625.35 m 1
 446.139 673.694 l 1
 679.782 673.694 l 1
 681.96 627.64 l 1
 444.52 625.35 l 1
EndSplineSet
Validated: 33
EndChar

StartChar: Patrobas.134
Encoding: 134 60364 40
Width: 989
VWidth: 0
Flags: W
HStem: -148.496 73.5881<182.402 742.43> -6.40137 18.8067<231.698 249.209> 29.5186 18.8115<639.684 675.361> 289 18.999<289.551 461.694> 615.418 49.3192<420.995 654.185> 766.099 71.9014<209.23 735.723>
VStem: 70.3135 19.3708<694.265 822.36> 742.43 61.1079<-74.9082 230.28 468.761 766.099>
LayerCount: 4
Fore
SplineSet
37.8715258698 805.124731187 m 2
 75.0570727448 859.167699937 l 2
 77.3541710328 862.50614784 82.3286572037 862.513521133 84.7173904789 859.474192029 c 2
 129.941999854 801.932199842 l 2
 132.073182749 799.220567586 131.421138482 795.142740292 128.550658456 793.230873548 c 0
 127.903334207 792.799726948 127.133207462 792.488795357 126.411339153 792.343140814 c 2
 118.706261028 790.788453314 l 2
 116.4718658 790.337609562 114.121074941 791.285787382 112.803877272 792.960123018 c 2
 88.5110734085 823.839548457 l 1
 89.6843014417 699.915199646 l 2
 89.7173617864 696.423140491 86.6302199988 693.694741371 83.3686340186 693.86672219 c 2
 75.9975402686 694.255394065 l 2
 72.7255847271 694.427921662 70.2996622021 697.342937197 70.3135437836 700.275471871 c 2
 70.8914476818 822.359776424 l 1
 51.1052163616 793.653502231 l 2
 49.1479147479 790.813808512 45.0602280132 790.226735835 42.3828518529 792.400798144 c 0
 41.9743946349 792.732470419 41.3317664736 793.502728068 41.2917535414 793.558438292 c 2
 37.9411676039 798.223477355 l 2
 36.3927582696 800.37933611 36.6731650074 803.383114239 37.8715258698 805.124731187 c 2
412.077 359.118 m 2
 340.486 429.865 l 2
 339.679 430.664 339.766 431.981 340.47 432.693 c 2
 351.013 443.363 l 2
 351.863 444.225 353.23 443.984 353.842 443.381 c 2
 425.434 372.634 l 2
 426.241 371.835 426.154 370.518 425.45 369.805 c 2
 414.906 359.135 l 2
 414.055 358.274 412.688 358.515 412.077 359.118 c 2
675.37 46.6885 m 2
 677.921 31.8379 l 2
 678.122 30.666 677.192 29.6533 676.227 29.5186 c 0
 665.994 28.0908 649.527 26.9473 639.195 26.9473 c 0
 638.903 26.9473 638.422 26.9492 638.15 26.9502 c 0
 508.749 26.9502 425.474 122.704 406.253 146.826 c 1
 371.672 84.0352 317.941 21.0088 234.223 -6.40137 c 0
 233.089 -6.77344 231.958 -5.98633 231.685 -5.0752 c 2
 227.185 9.92578 l 2
 226.854 11.0254 227.599 12.1201 228.492 12.4053 c 0
 380.566 60.9521 430.215 242.355 440.52 289 c 1
 289.551 289 l 2
 288.34 289 287.551 290.142 287.551 291 c 2
 287.551 305.999 l 2
 287.551 307.21 288.692 307.999 289.551 307.999 c 2
 461.001 307.999 l 2
 462.338 307.999 463.146 306.669 462.972 305.659 c 2
 461.467 296.933 l 2
 453.856 258.877 433.517 200.432 415.87 164.28 c 1
 416.705 164.37 417.357 164.005 417.729 163.526 c 0
 418.831 162.109 515.436 26.165 673.121 48.3301 c 0
 674.191 48.4805 675.194 47.7119 675.37 46.6885 c 2
803.53796594 468.760870584 m 1
 926.8704 346.76345006 l 1
 803.53796594 230.280466195 l 1
 809.4993 -152.000467097 l 1
 182.40228 -148.496270958 l 1
 175.69536 -74.908152033 l 1
 742.4301 -74.908152033 l 1
 742.4301 282.519854174 l 1
 828.50224 346.76345006 l 1
 742.4301 422.687699745 l 1
 735.72318 766.098921394 l 1
 202.52304 766.098921394 l 1
 209.22996 838.000353911 l 1
 803.53796594 838.000353911 l 1
 803.53796594 468.760870584 l 1
419.38012 615.418487405 m 1
 420.9953699 664.737711935 l 1
 654.18491792 664.737711935 l 1
 656.35796 617.754618165 l 1
 419.38012 615.418487405 l 1
EndSplineSet
Validated: 33
EndChar

StartChar: Olympus.135
Encoding: 135 60363 41
Width: 1026
VWidth: 0
Flags: W
HStem: -148.496 73.5881<206.402 766.43> -2 19<258.101 456 475 672.899> 615.418 49.3192<444.995 678.185> 766.099 71.9014<233.23 759.723>
VStem: 108.314 19.3707<711.498 839.594> 239.101 19<17 140.4> 456 19<17 450> 672.899 19<17 140.4> 766.43 61.1079<-74.9082 230.28 468.761 766.099>
LayerCount: 4
Fore
SplineSet
75.8715698243 822.35809413 m 2
 113.057069824 876.40109413 l 2
 115.354171681 879.739553359 120.328653221 879.746898798 122.717375165 876.707609952 c 2
 167.942375165 819.165609952 l 2
 170.073569261 816.453986499 169.421541837 812.376156511 166.551069708 810.464277911 c 0
 165.903806759 810.033168281 165.133410104 809.722178794 164.411970547 809.576580025 c 2
 156.706970547 808.021580025 l 2
 154.472558755 807.570637736 152.121696053 808.518677914 150.804352567 810.193192824 c 2
 126.511366553 841.072737689 l 1
 127.684731065 717.148808007 l 2
 127.717797526 713.656520828 124.630214423 710.928660931 121.369604337 711.10029527 c 2
 113.998604337 711.48829527 l 2
 110.726794709 711.660519138 108.300179654 714.574932764 108.314067236 717.508404758 c 2
 108.892040247 839.593557499 l 1
 89.1051472829 810.886864933 l 2
 87.1478206372 808.047188468 83.0601287276 807.460151824 80.3827717319 809.634237734 c 0
 79.9743185828 809.96591268 79.3316939715 810.736179915 79.2916858294 810.791884431 c 2
 75.9411858294 815.456884431 l 2
 74.3927970677 817.612751786 74.6732456608 820.616527315 75.8715698243 822.35809413 c 2
674.899 142.4 m 2
 689.899 142.4 l 2
 691.11 142.4 691.899 141.259 691.899 140.4 c 2
 691.899 0 l 2
 691.899 -1.2106 690.758 -2 689.899 -2 c 2
 473 -2 l 1
 458 -2 l 1
 241.101 -2 l 2
 239.89 -2 239.101 -0.858392 239.101 0 c 2
 239.101 140.4 l 2
 239.101 141.611 240.242 142.4 241.101 142.4 c 2
 256.101 142.4 l 2
 257.311 142.4 258.101 141.259 258.101 140.4 c 2
 258.101 17 l 1
 456 17 l 1
 456 450 l 2
 456 451.211 457.142 452 458 452 c 2
 473 452 l 2
 474.211 452 475 450.858 475 450 c 2
 475 17 l 1
 672.899 17 l 1
 672.899 140.4 l 2
 672.899 141.611 674.041 142.4 674.899 142.4 c 2
827.53796594 468.760870584 m 1
 950.8704 346.76345006 l 1
 827.53796594 230.280466195 l 1
 833.4993 -152.000467097 l 1
 206.40228 -148.496270958 l 1
 199.69536 -74.908152033 l 1
 766.4301 -74.908152033 l 1
 766.4301 282.519854174 l 1
 852.50224 346.76345006 l 1
 766.4301 422.687699745 l 1
 759.72318 766.098921394 l 1
 226.52304 766.098921394 l 1
 233.22996 838.000353911 l 1
 827.53796594 838.000353911 l 1
 827.53796594 468.760870584 l 1
443.38012 615.418487405 m 1
 444.9953699 664.737711935 l 1
 678.18491792 664.737711935 l 1
 680.35796 617.754618165 l 1
 443.38012 615.418487405 l 1
EndSplineSet
Validated: 1
EndChar

StartChar: Nereus.136
Encoding: 136 60362 42
Width: 996
VWidth: 0
Flags: W
HStem: -148.496 73.5881<206.402 766.43> -8.78125 15.3623<389.749 561.436> 320.057 15.362<331.692 615.682> 615.418 49.3192<444.995 678.185> 766.099 71.9014<233.23 759.723>
VStem: 108.314 19.3707<711.498 839.594> 766.43 61.1079<-74.9082 230.28 468.761 766.099>
LayerCount: 4
Fore
SplineSet
75.8715698243 822.35809413 m 2
 113.057069824 876.40109413 l 2
 115.354171681 879.739553359 120.328653221 879.746898798 122.717375165 876.707609952 c 2
 167.942375165 819.165609952 l 2
 170.073569261 816.453986499 169.421541837 812.376156511 166.551069708 810.464277911 c 0
 165.903806759 810.033168281 165.133410104 809.722178794 164.411970547 809.576580025 c 2
 156.706970547 808.021580025 l 2
 154.472558755 807.570637736 152.121696053 808.518677914 150.804352567 810.193192824 c 2
 126.511366553 841.072737689 l 1
 127.684731065 717.148808007 l 2
 127.717797526 713.656520828 124.630214423 710.928660931 121.369604337 711.10029527 c 2
 113.998604337 711.48829527 l 2
 110.726794709 711.660519138 108.300179654 714.574932764 108.314067236 717.508404758 c 2
 108.892040247 839.593557499 l 1
 89.1051472829 810.886864933 l 2
 87.1478206372 808.047188468 83.0601287276 807.460151824 80.3827717319 809.634237734 c 0
 79.9743185828 809.96591268 79.3316939715 810.736179915 79.2916858294 810.791884431 c 2
 75.9411858294 815.456884431 l 2
 74.3927970677 817.612751786 74.6732456608 820.616527315 75.8715698243 822.35809413 c 2
599.934 375.011 m 2
 600.609 375.405 601.07 376.298 600.879 377.167 c 2
 599.032 385.587 l 2
 598.748 386.882 597.229 387.561 596.072 386.886 c 2
 539.048 353.674 l 1
 610.476 531.285 l 2
 610.796 532.082 610.531 533.195 609.681 533.727 c 2
 600.537 539.449 l 2
 599.601 540.035 598.083 539.703 597.609 538.473 c 2
 528.79 359.829 l 1
 508.747 436.696 l 2
 508.584 437.322 508.081 437.882 507.431 438.093 c 2
 496.862 441.534 l 2
 496.735 441.575 496.219 441.659 495.893 441.601 c 0
 494.761 441.399 494.018 440.241 494.308 439.128 c 2
 522.064 332.496 l 2
 522.361 331.356 523.815 330.576 525.008 331.273 c 2
 599.934 375.011 l 2
572.653 -8.78125 m 2
 378.664 -8.78125 l 2
 377.661 -8.78125 376.851 -7.97278 376.697 -7.14542 c 2
 313.699 333.055 l 2
 313.458 334.359 314.595 335.419 315.666 335.419 c 2
 631.566 335.419 l 2
 632.903 335.419 633.712 334.09 633.537 333.078 c 2
 574.624 -7.12251 l 2
 574.453 -8.109 573.528 -8.78125 572.653 -8.78125 c 2
389.749 6.58105 m 1
 561.436 6.58105 l 1
 615.682 320.057 l 1
 331.692 320.057 l 1
 389.749 6.58105 l 1
827.53796594 468.760870584 m 1
 950.8704 346.76345006 l 1
 827.53796594 230.280466195 l 1
 833.4993 -152.000467097 l 1
 206.40228 -148.496270958 l 1
 199.69536 -74.908152033 l 1
 766.4301 -74.908152033 l 1
 766.4301 282.519854174 l 1
 852.50224 346.76345006 l 1
 766.4301 422.687699745 l 1
 759.72318 766.098921394 l 1
 226.52304 766.098921394 l 1
 233.22996 838.000353911 l 1
 827.53796594 838.000353911 l 1
 827.53796594 468.760870584 l 1
443.38012 615.418487405 m 1
 444.9953699 664.737711935 l 1
 678.18491792 664.737711935 l 1
 680.35796 617.754618165 l 1
 443.38012 615.418487405 l 1
EndSplineSet
Validated: 5
EndChar

StartChar: Narcius.137
Encoding: 137 60361 43
Width: 1004
VWidth: 0
Flags: W
HStem: -148.496 73.5881<206.402 766.43> 358.957 16.555<342.554 349.484> 380.815 16.939<343.471 391.127 593.672 647.983> 615.418 49.3192<444.995 678.185> 766.099 71.9014<233.23 759.723>
VStem: 108.314 19.3707<711.498 839.594> 391.269 13.911<98.1663 278.31> 766.43 61.1079<-74.9082 230.28 468.761 766.099>
LayerCount: 4
Fore
SplineSet
75.8715698243 822.35809413 m 2
 113.057069824 876.40109413 l 2
 115.354171681 879.739553359 120.328653221 879.746898798 122.717375165 876.707609952 c 2
 167.942375165 819.165609952 l 2
 170.073569261 816.453986499 169.421541837 812.376156511 166.551069708 810.464277911 c 0
 165.903806759 810.033168281 165.133410104 809.722178794 164.411970547 809.576580025 c 2
 156.706970547 808.021580025 l 2
 154.472558755 807.570637736 152.121696053 808.518677914 150.804352567 810.193192824 c 2
 126.511366553 841.072737689 l 1
 127.684731065 717.148808007 l 2
 127.717797526 713.656520828 124.630214423 710.928660931 121.369604337 711.10029527 c 2
 113.998604337 711.48829527 l 2
 110.726794709 711.660519138 108.300179654 714.574932764 108.314067236 717.508404758 c 2
 108.892040247 839.593557499 l 1
 89.1051472829 810.886864933 l 2
 87.1478206372 808.047188468 83.0601287276 807.460151824 80.3827717319 809.634237734 c 0
 79.9743185828 809.96591268 79.3316939715 810.736179915 79.2916858294 810.791884431 c 2
 75.9411858294 815.456884431 l 2
 74.3927970677 817.612751786 74.6732456608 820.616527315 75.8715698243 822.35809413 c 2
474.356 18.3174 m 0
 454.12 27.6153 416.38 58.7123 407.888 73.3785 c 0
 392.545 99.8718 391.806 105.069 391.269 185.406 c 0
 390.711 268.833 391.214 265.827 370.166 314.202 c 0
 359.089 339.667 344.816 358.957 341.173 358.957 c 0
 337.534 358.957 333.126 363.581 329.799 368.311 c 0
 323.761 376.902 323.884 379.198 330.676 387.941 c 0
 336.695 395.689 343.21 397.517 361.235 397.754 c 0
 380.779 398.007 387.026 395.953 404.106 383.701 c 0
 414.898 375.961 425.41 367.926 427.97 365.346 c 0
 428.806 364.503 430.019 363.603 430.149 363.511 c 1
 431.052 365.623 432.368 368.742 433.806 372.174 c 0
 436.037 377.501 446.721 389.993 457.965 401.031 c 0
 480.583 423.23 494.382 426.921 513.723 414.406 c 0
 528.896 404.587 552.61 374.766 552.61 363.702 c 0
 552.61 363.347 552.614 362.917 552.614 362.917 c 2
 553.813 364.729 554.287 365.507 555.431 367.379 c 0
 566.32 385.198 601.048 397.948 629.193 395.354 c 0
 650.462 393.397 666.202 385.175 666.202 372.63 c 0
 666.202 368.849 657.866 358.259 648.252 346.845 c 0
 637.845 334.49 626.38 315.074 619.346 297.844 c 2
 607.779 269.509 l 1
 611.398 226.777 l 2
 617.02 160.383 613.325 124.809 596.91 90.6184 c 0
 594.715 86.0473 588.771 73.3492 583.718 62.4427 c 0
 578.828 51.8836 572.883 41.4395 568.107 41.4395 c 0
 566.306 41.4395 561.812 39.8246 559.011 37.8741 c 0
 523.832 13.389 498.562 7.19612 474.356 18.3174 c 0
511.262 31.3079 m 0
 512.779 34.4674 518.076 37.2714 523.203 38.8889 c 0
 527.754 40.3233 539.411 46.1595 548.522 51.6639 c 0
 562.469 60.0912 566.788 65.5882 579.415 91.6674 c 0
 599.318 132.776 602.328 154.669 597.355 223.84 c 2
 593.536 276.96 l 2
 593.514 277.27 593.573 277.603 593.685 277.872 c 2
 605.478 306.219 l 2
 612.619 323.387 624.181 342.682 634.47 354.527 c 0
 642.05 363.255 647.816 371.946 648.736 374.404 c 0
 646.124 375.681 638.662 377.492 630.638 378.558 c 0
 606.377 381.782 572.796 367.057 565.862 351.202 c 0
 563.066 344.811 559.578 340.637 555.437 339.399 c 0
 548.743 337.397 543.389 343.665 540.659 353.698 c 0
 533.446 380.203 502.245 407.997 488.796 403.477 c 0
 477.125 399.555 450.239 370.363 444.55 354.892 c 0
 441.616 346.915 438.648 341.633 434.84 339.454 c 0
 429.786 336.562 425.184 340.387 421.661 346.729 c 0
 419.723 350.217 409.086 360.082 398.533 367.624 c 0
 382.977 378.739 376.464 381.09 362.814 380.815 c 0
 353.272 380.624 344.388 377.996 343.42 376.75 c 0
 343.016 376.23 342.554 375.512 342.554 375.512 c 1
 343.214 375.491 l 2
 352.677 375.491 372.326 345.895 383.586 319.976 c 0
 405.205 270.21 404.767 272.94 405.18 189.051 c 0
 405.555 112.807 405.736 111.181 413.871 93.312 c 0
 426.501 65.5669 476.06 29.856 502.611 29.0068 c 0
 507.267 28.8573 510.988 30.7357 511.262 31.3079 c 0
827.53796594 468.760870584 m 1
 950.8704 346.76345006 l 1
 827.53796594 230.280466195 l 1
 833.4993 -152.000467097 l 1
 206.40228 -148.496270958 l 1
 199.69536 -74.908152033 l 1
 766.4301 -74.908152033 l 1
 766.4301 282.519854174 l 1
 852.50224 346.76345006 l 1
 766.4301 422.687699745 l 1
 759.72318 766.098921394 l 1
 226.52304 766.098921394 l 1
 233.22996 838.000353911 l 1
 827.53796594 838.000353911 l 1
 827.53796594 468.760870584 l 1
443.38012 615.418487405 m 1
 444.9953699 664.737711935 l 1
 678.18491792 664.737711935 l 1
 680.35796 617.754618165 l 1
 443.38012 615.418487405 l 1
EndSplineSet
Validated: 37
EndChar

StartChar: Junia.138
Encoding: 138 60360 44
Width: 998
VWidth: 0
Flags: W
HStem: -199 68.517<305.877 813.159> -199 61.264<287.542 794.824> -79.3154 20.1347<425.809 440.298 461.929 703.134> 276.212 20.134<425.809 438.024 460.099 703.134> 326.526 26.552<432.632 671.189> 361.912 33.584<861.03 908.078> 408.933 33.588<883.824 911.101> 450.42 26.551<432.632 671.189> 593.664 33.588<382.099 608.812> 775.035 52.127<297.337 756.934 772.048 784.999>
VStem: 92.3135 19.3708<694.266 822.361> 237 57.07<425.727 776.38> 237 50.542<-137.736 177.179> 671.189 26.64<353.078 450.42> 741.819 30.229<583.432 775.035>
LayerCount: 4
Fore
SplineSet
707.134 292.346 m 2x3fe6
 707.134 278.878 l 2
 707.134 276.338 704.955 274.878 703.134 274.878 c 2
 684.016 274.878 l 1
 573.823 109.032 l 1
 688.79 -59.1807 l 1
 703.134 -59.1807 l 2
 705.674 -59.1807 707.134 -61.3591 707.134 -63.1807 c 2
 707.134 -75.3154 l 2
 707.134 -77.8554 704.955 -79.3154 703.134 -79.3154 c 2
 425.809 -79.3154 l 2
 423.269 -79.3154 421.809 -77.137 421.809 -75.3154 c 2
 421.809 -63.1807 l 2
 421.809 -60.6407 423.987 -59.1807 425.809 -59.1807 c 2
 440.298 -59.1807 l 1
 551.795 109.331 l 1
 438.024 276.212 l 1
 425.809 276.212 l 2
 423.269 276.212 421.809 278.39 421.809 280.212 c 2
 421.809 292.346 l 2
 421.809 294.886 423.987 296.346 425.809 296.346 c 2
 703.134 296.346 l 2
 705.674 296.346 707.134 294.167 707.134 292.346 c 2x3fe6
666.619 -59.1807 m 1
 562.854 92.6237 l 1
 461.929 -59.1807 l 1
 666.619 -59.1807 l 1
562.67 125.989 m 1
 662.485 276.212 l 1
 460.099 276.212 l 1
 562.67 125.989 l 1
693.819 325.591 m 2
 436.617 326.526 l 2
 434.272 326.535 432.632 328.49 432.632 330.526 c 2
 432.632 349.078 l 2
 432.632 351.618 434.81 353.078 436.632 353.078 c 2
 671.189 353.078 l 1
 671.189 450.42 l 1
 436.632 450.42 l 2
 434.092 450.42 432.632 452.598 432.632 454.42 c 2
 432.632 472.971 l 2
 432.632 475.502 434.802 476.977 436.647 476.971 c 2
 691.185 476.035 l 2
 693.363 476.027 695.129 474.271 695.169 472.11 c 2
 697.829 329.666 l 2
 697.876 327.177 695.771 325.591 693.819 325.591 c 2
59.8715258698 805.125707749 m 2
 97.0570727448 859.168676499 l 2
 99.3541710328 862.507124402 104.328657204 862.514497695 106.717390479 859.475168592 c 2
 151.941999854 801.933176404 l 2
 154.073182749 799.221544149 153.421138482 795.143716854 150.550658456 793.231850111 c 0
 149.903334207 792.80070351 149.133207462 792.48977192 148.411339153 792.344117377 c 2
 140.706261028 790.789429877 l 2
 138.4718658 790.338586124 136.121074941 791.286763944 134.803877272 792.961099581 c 2
 110.511073409 823.84052502 l 1
 111.684301442 699.916176208 l 2
 111.717361786 696.424117054 108.630219999 693.695717933 105.368634019 693.867698752 c 2
 97.9975402686 694.256370627 l 2
 94.7255847271 694.428898225 92.2996622021 697.34391376 92.3135437836 700.276448434 c 2
 92.8914476818 822.360752987 l 1
 73.1052163616 793.654478793 l 2
 71.1479147479 790.814785074 67.0602280132 790.227712398 64.3828518529 792.401774706 c 0
 63.9743946349 792.733446981 63.3317664736 793.503704631 63.2917535414 793.559414855 c 2
 59.9411676039 798.224453917 l 2
 58.3927582696 800.380312673 58.6731650074 803.384090802 59.8715258698 805.125707749 c 2
237 425.727 m 1x7ff6
 241.838 830.79 l 1
 809.895 827.162 l 1
 814.368 785.112 l 2
 842.684 518.98 868.779 445.879 911.101 442.521 c 1
 911.101 408.933 l 1
 832.505 412.292 802.276 499.618 784.14 775.035 c 1
 772.048 775.035 l 1
 772.048 529.846 823.437 442.521 856.69 415.649 c 0
 877.848 395.496 895.984 395.496 908.078 395.496 c 1
 911.101 361.912 l 1
 899.01 361.912 l 2
 877.848 361.912 853.665 371.987 835.529 388.78 c 0
 793.209 429.084 744.842 526.488 741.819 775.035 c 1
 756.934 775.035 l 1
 297.337 776.38 l 1
 294.07 395.496 l 1x7ff6
 192.866 289.092 l 1
 281.013 221.38 l 1
 287.542 -137.736 l 1x7fee
 813.159 -130.483 l 1xbfee
 814.368 -199 l 1
 237 -199 l 1
 237 177.179 l 1x7fee
 107.983 293.929 l 1
 237 425.727 l 1x7ff6
608.812 593.664 m 1
 382.099 593.664 l 1
 382.099 627.252 l 1
 608.812 627.252 l 1
 608.812 593.664 l 1
EndSplineSet
Validated: 1
EndChar

StartChar: Julia.139
Encoding: 139 60359 45
Width: 1012
VWidth: 0
Flags: W
HStem: -199 68.517<305.877 813.159> -199 61.264<287.542 794.824> -86.1973 7.9864<513.504 577.033> 101.482 5.775<521.097 572.373> 206.086 7.979<423.224 662.624> 361.912 33.584<861.03 908.078> 408.933 33.588<883.824 911.101> 593.664 33.588<382.099 608.812> 775.035 52.127<297.337 756.934 772.048 784.999>
VStem: 92.3145 19.3698<694.266 822.361> 237 57.07<425.727 776.38> 237 50.542<-137.736 177.179> 425.104 7.986<-11.0817 33.8397> 475.837 9.481<-48.7939 6.28563 92.6055 164.54> 602.067 7.988<-0.303174 7.23561> 657.485 7.957<-10.3914 34.2348> 741.819 30.229<583.432 775.035>
LayerCount: 4
Fore
SplineSet
616.608 457.697 m 1x3fcf80
 545 364 l 1
 622.928 271.194 l 1
 612.782 260.244 l 1
 534.768 353.291 l 1
 464.207 260.244 l 1
 456.839 270.685 l 1
 526.502 362.47 l 1
 458.021 454.766 l 1
 467.072 465.985 l 1
 536.342 376.749 l 1
 608.759 466.494 l 1
 616.608 457.697 l 1x3fcf80
423.224 206.086 m 1
 423.224 214.065 l 1
 662.624 214.065 l 1
 662.624 206.086 l 1
 423.224 206.086 l 1
607.44 163.104 m 1
 607.44 88.124 l 1
 616.288 88.124 l 1
 616.288 163.104 l 1
 607.44 163.104 l 1
537 165 m 1
 537 107.257 l 1
 544.756 107.257 l 1
 544.756 165 l 1
 537 165 l 1
475.837 165 m 1
 485.318 164.54 l 1
 485.318 92.1455 l 1
 475.837 92.6055 l 1
 475.837 165 l 1
545.272 110.044 m 0
 611.52 110.044 665.442 66.0605 665.442 11.9658 c 0
 665.442 -42.1289 611.491 -86.1973 545.272 -86.1973 c 0
 479.054 -86.1973 425.104 -42.2148 425.104 11.9082 c 0
 425.104 66.0322 479.054 110.044 545.272 110.044 c 0
657.485 11.8789 m 0
 657.485 61.5791 607.122 102.018 545.272 101.482 c 0
 485.815 100.968 433.454 61.042 433.09 11.3916 c 0
 432.727 -38.335 483.45 -78.2109 545.272 -78.2109 c 0
 607.125 -78.2109 657.485 -37.8193 657.485 11.8789 c 0
488.535 7.11035 m 1
 503.072 -48.7939 586.871 -46.3232 602.067 7.5127 c 1
 610.055 5.27246 l 1
 593.019 -56.0342 496.264 -58.7627 480.55 5.27246 c 1
 488.535 7.11035 l 1
59.8715258698 805.125707749 m 2
 97.0570727448 859.168676499 l 2
 99.3541710328 862.507124402 104.328657204 862.514497695 106.717390479 859.475168592 c 2
 151.941999854 801.933176404 l 2
 154.073182749 799.221544149 153.421138482 795.143716854 150.550658456 793.231850111 c 0
 149.903334207 792.80070351 149.133207462 792.48977192 148.411339153 792.344117377 c 2
 140.706261028 790.789429877 l 2
 138.4718658 790.338586124 136.121074941 791.286763944 134.803877272 792.961099581 c 2
 110.511073409 823.84052502 l 1
 111.684301442 699.916176208 l 2
 111.717361618 696.424134891 108.630254582 693.695693322 105.368592272 693.867700954 c 2
 97.9984750847 694.256372829 l 2
 94.7265083559 694.428923876 92.3006391052 697.343985709 92.3145203461 700.276448434 c 2
 92.8924266616 822.361263658 l 1
 73.1051659432 793.654405647 l 2
 71.1478222836 790.814740909 67.0601268568 790.227728757 64.3827828873 792.401830708 c 0
 63.9743575048 792.733487167 63.331664574 793.503846506 63.2917535414 793.559414855 c 2
 59.9411676039 798.224453917 l 2
 58.3927582696 800.380312673 58.6731650074 803.384090802 59.8715258698 805.125707749 c 2
237 425.727 m 1x7fef80
 241.838 830.79 l 1
 809.895 827.162 l 1
 814.368 785.112 l 2
 842.684 518.98 868.779 445.879 911.101 442.521 c 1
 911.101 408.933 l 1
 832.505 412.292 802.276 499.618 784.14 775.035 c 1
 772.048 775.035 l 1
 772.048 529.846 823.437 442.521 856.69 415.649 c 0
 877.848 395.496 895.984 395.496 908.078 395.496 c 1
 911.101 361.912 l 1
 899.01 361.912 l 2
 877.848 361.912 853.665 371.987 835.529 388.78 c 0
 793.209 429.084 744.842 526.488 741.819 775.035 c 1
 756.934 775.035 l 1
 297.337 776.38 l 1
 294.07 395.496 l 1x7fef80
 192.866 289.092 l 1
 281.013 221.38 l 1
 287.542 -137.736 l 1x7fdf80
 813.159 -130.483 l 1xbfdf80
 814.368 -199 l 1
 237 -199 l 1
 237 177.179 l 1x7fdf80
 107.983 293.929 l 1
 237 425.727 l 1x7fef80
608.812 593.664 m 1
 382.099 593.664 l 1
 382.099 627.252 l 1
 608.812 627.252 l 1
 608.812 593.664 l 1
EndSplineSet
Validated: 37
EndChar

StartChar: Candice.140
Encoding: 140 60293 46
Width: 1081
VWidth: 0
Flags: W
HStem: 99.9424 31.7578<495.049 741.568> 434.963 30.2773<938.487 991.446> 477.352 30.2773<964.145 994.85>
VStem: 97.1671 19.6646<677.054 795.82> 236.03 56.8945<-15.4502 268.435> 236.03 49.5449<-0.0508453 268.435> 804.294 34.0273<634.657 807.379>
LayerCount: 4
Fore
SplineSet
63.5911252943 780.244306475 m 6xf2
 102.263976857 829.964033038 l 6
 104.706046816 833.103678699 109.34889856 832.670144889 111.485432719 830.265357292 c 6
 158.518635844 777.326880729 l 6
 160.809326421 774.748581541 160.404161414 770.638876139 157.654088947 768.557532474 c 4
 156.901816996 767.988188764 156.015912742 767.600919401 155.087822379 767.435209177 c 6
 147.075127066 766.004545114 l 6
 145.03325732 765.639969955 142.895777796 766.396001993 141.537015135 767.923866403 c 6
 115.609727376 797.077876414 l 5
 116.831687611 682.908941416 l 6
 116.869194546 679.404632 113.761173098 676.701620687 110.552554064 676.851239055 c 6
 102.887515002 677.208660931 l 6
 99.6268458605 677.360706402 97.1510239009 680.23223399 97.1670779829 683.234234744 c 6
 97.7691651453 795.820311991 l 5
 76.544398049 768.580750746 l 6
 74.1795820502 765.545779859 69.4973945648 765.599479728 67.1533160699 768.486874622 c 6
 63.6689410699 772.778866809 l 6
 61.8787873955 774.983946797 62.0099931517 778.211524959 63.5911252943 780.244306475 c 6xf2
782.56640625 99.9423828125 m 1
 467.39453125 99.9423828125 l 1
 400.234375 350.993164062 l 1
 522.118164062 272.1171875 l 1
 618.54296875 448.840820312 l 1
 714.67578125 272.1171875 l 1
 835.827148438 350.083007812 l 1
 782.56640625 99.9423828125 l 1
495.048828125 131.700195312 m 1
 741.568359375 130.296875 l 1
 784.235351562 279.056640625 l 1
 698.901367188 222.920898438 l 1
 619.888671875 382.908203125 l 1
 537.715820312 229.9375 l 1
 449.221679688 287.4765625 l 1
 495.048828125 131.700195312 l 1
236.030273438 492.490234375 m 1xf6
 90.7998046875 373.6796875 l 1
 236.030273438 268.434570312 l 1xfa
 236.030273438 -70.6767578125 l 1xf6
 885.9609375 -70.6767578125 l 1
 884.599609375 -8.91015625 l 1
 292.924804688 -15.4501953125 l 1xfa
 285.575195312 308.280273438 l 1
 186.349609375 369.3203125 l 1
 300.275390625 465.240234375 l 1
 303.950195312 808.58984375 l 1
 821.307617188 807.37890625 l 1
 804.293945312 807.37890625 l 1
 807.696289062 583.323242188 862.141601562 495.517578125 909.780273438 459.184570312 c 0
 930.196289062 444.045898438 957.418945312 434.962890625 981.23828125 434.962890625 c 0
 984.641601562 434.962890625 991.446289062 434.962890625 994.849609375 434.962890625 c 2
 991.446289062 465.240234375 l 2
 977.8359375 465.240234375 957.418945312 465.240234375 933.599609375 483.407226562 c 0
 896.168945312 507.62890625 838.321289062 586.3515625 838.321289062 807.37890625 c 1
 851.932617188 807.37890625 l 1
 872.349609375 559.1015625 906.376953125 480.37890625 994.849609375 477.3515625 c 2
 994.849609375 507.62890625 l 2
 947.2109375 510.657226562 917.834960938 576.556640625 885.9609375 816.462890625 c 2
 880.924804688 854.370117188 l 1
 241.474609375 857.639648438 l 1
 236.030273438 492.490234375 l 1xf6
654.571289062 643.87890625 m 1
 654.571289062 674.157226562 l 1
 399.36328125 674.157226562 l 1
 399.36328125 643.87890625 l 1
 654.571289062 643.87890625 l 1
EndSplineSet
Validated: 9
EndChar

StartChar: Jonam.142
Encoding: 142 60571 47
Width: 996
VWidth: 0
Flags: W
HStem: -94 63<307 808> 334.768 9.15527<385.597 438.413> 463.271 8.75684<406.235 453.227> 560 42.2227<520.445 729.056> 689 61.5557<331 802>
VStem: 116.63 19.3698<695.407 823.502> 328.841 11.1055<381.582 425.664> 484.081 10.7002<381.582 425.128> 808 54.667<-31 230.277 434.444 689>
LayerCount: 4
Fore
SplineSet
84.1869555573 806.266332749 m 2
 121.372502432 860.309301499 l 2
 123.66960072 863.647749402 128.644086891 863.655122695 131.032820166 860.615793592 c 2
 176.257429541 803.073801404 l 2
 178.388612437 800.362169149 177.73656817 796.284341854 174.866088144 794.372475111 c 0
 174.218763894 793.94132851 173.448637149 793.63039692 172.726768841 793.484742377 c 2
 165.021690716 791.930054877 l 2
 162.787295487 791.479211124 160.436504629 792.427388944 159.119306959 794.101724581 c 2
 134.826503096 824.98115002 l 1
 135.999731129 701.056801208 l 2
 136.032791305 697.564759891 132.945684269 694.836318322 129.68402196 695.008325954 c 2
 122.313904772 695.396997829 l 2
 119.041938043 695.569548876 116.616068793 698.484610709 116.629950034 701.417073434 c 2
 117.207856349 823.501888658 l 1
 97.4205956307 794.795030647 l 2
 95.4632519711 791.955365909 91.3755565443 791.368353757 88.6982125748 793.542455708 c 0
 88.2897871923 793.874112167 87.6470942615 794.644471506 87.6071832289 794.700039855 c 2
 84.2565972914 799.365078917 l 2
 82.7081879571 801.520937673 82.9885946949 804.524715802 84.1869555573 806.266332749 c 2
501.125 52.841796875 m 1
 369.245117188 173.04296875 l 1
 394.365234375 197.083984375 l 1
 500.33984375 106.75 l 1
 688.740234375 328.212890625 l 1
 717 310 l 1
 501.125 52.841796875 l 1
406.235351562 472.02734375 m 1
 406.453125 472.02734375 l 2
 363.611328125 469.732421875 328.840820312 439.017578125 328.840820312 403.46875 c 0
 328.840820312 365.545898438 366.01171875 334.767578125 411.810546875 334.767578125 c 0
 457.610351562 334.767578125 494.78125 365.545898438 494.78125 403.46875 c 0
 494.78125 425.388671875 476.165039062 452.05859375 453.2265625 463 c 2
 657 463 l 1
 657 472.02734375 l 1
 406.235351562 472.02734375 l 1
412.013671875 343.922851562 m 2
 412.232421875 343.922851562 l 2
 412.171875 343.922851562 412.07421875 343.922851562 412.013671875 343.922851562 c 0
 372.232421875 343.922851562 339.946289062 370.65625 339.946289062 403.596679688 c 0
 339.946289062 436.537109375 372.232421875 463.270507812 412.013671875 463.270507812 c 0
 451.794921875 463.270507812 484.081054688 436.537109375 484.081054688 403.596679688 c 0
 484.081054688 370.657226562 451.794921875 343.922851562 412.013671875 343.922851562 c 2
862.666992188 434.444335938 m 1
 973 330 l 1
 862.666992188 230.27734375 l 1
 868 -97 l 1
 307 -94 l 1
 301 -31 l 1
 808 -31 l 1
 808 275 l 1
 885 330 l 1
 808 395 l 1
 802 689 l 1
 325 689 l 1
 331 750.555664062 l 1
 862.666992188 750.555664062 l 1
 862.666992188 434.444335938 l 1
519 560 m 1
 520.4453125 602.22265625 l 1
 729.055664062 602.22265625 l 1
 731 562 l 1
 519 560 l 1
EndSplineSet
Validated: 5
EndChar

StartChar: Mattatha.143
Encoding: 143 60572 48
Width: 1023
VWidth: 0
Flags: W
HStem: -34 63<208.001 709.001> 108.286 12.9326<321.399 483.8 495 653.144> 188.589 9.20092<215.478 271.032> 397.068 12.9316<366.199 483.8 495 612.6> 620 42.2227<421.446 630.057> 749 61.5557<232.001 703.001>
VStem: 94.3145 19.3698<694.266 822.361> 338.309 10.045<258.657 311.999> 483.8 11.2002<121.219 397.068 410 500.527> 709.001 54.667<29 290.277 494.444 749>
LayerCount: 4
Fore
SplineSet
61.8715258698 805.125707749 m 2
 99.0570727448 859.168676499 l 2
 101.354154813 862.50710083 106.32865264 862.514555083 108.717421049 859.475129696 c 2
 153.942030424 801.932160946 l 2
 156.073190961 799.220511118 155.421113071 795.1426892 152.550617282 793.230846124 c 0
 151.90330281 792.799713741 151.133112752 792.488776247 150.411339153 792.343140814 c 2
 142.706261028 790.788453314 l 2
 140.47185631 790.337607647 138.121056503 791.28577425 136.803837898 792.960173068 c 2
 112.511076304 823.84021922 l 1
 113.684301442 699.916176208 l 2
 113.717361618 696.424134891 110.630254582 693.695693322 107.368592272 693.867700954 c 2
 99.9984750847 694.256372829 l 2
 96.7265083559 694.428923876 94.3006391052 697.343985709 94.3145203461 700.276448434 c 2
 94.8924266616 822.361263658 l 1
 75.1051659432 793.654405647 l 2
 73.1478222836 790.814740909 69.0601268568 790.227728757 66.3827828873 792.401830708 c 0
 65.9743575048 792.733487167 65.331664574 793.503846506 65.2917535414 793.559414855 c 2
 61.9411676039 798.224453917 l 2
 60.3927582696 800.380312673 60.6731650074 803.384090802 61.8715258698 805.125707749 c 2
495 121.21875 m 1
 653.143554688 121.21875 l 1
 653.143554688 108.286132812 l 1
 321.399414062 108.286132812 l 1
 321.399414062 121.21875 l 1
 483.799804688 121.21875 l 1
 483.799804688 397.068359375 l 1
 366.19921875 397.068359375 l 1
 366.19921875 410 l 1
 483.799804688 410 l 1
 483.799804688 500.52734375 l 1
 495 500.52734375 l 1
 495 410 l 1
 612.599609375 410 l 1
 612.599609375 397.068359375 l 1
 495 397.068359375 l 1
 495 121.21875 l 1
763.66796875 494.444335938 m 1
 874.000976562 390 l 1
 763.66796875 290.27734375 l 1
 769.000976562 -37 l 1
 208.000976562 -34 l 1
 202.000976562 29 l 1
 709.000976562 29 l 1
 709.000976562 335 l 1
 786.000976562 390 l 1
 709.000976562 455 l 1
 703.000976562 749 l 1
 226.000976562 749 l 1
 232.000976562 810.555664062 l 1
 763.66796875 810.555664062 l 1
 763.66796875 494.444335938 l 1
420.000976562 620 m 1
 421.446289062 662.22265625 l 1
 630.056640625 662.22265625 l 1
 632.000976562 622 l 1
 420.000976562 620 l 1
EndSplineSet
Refer: 75 57724 N 0.212163 0 0 0.242117 145.573 479.117 2
Refer: 498 57927 N 0.371017 0 0 0.335461 104.731 227.727 2
Validated: 1
EndChar

StartChar: Matthathia.144
Encoding: 144 60573 49
Width: 987
VWidth: 0
Flags: W
HStem: -112 63<235 736> -9.26251 9.00615<391.439 475.667> 107.85 36.0353<412.866 452.003> 251.989 9.01186<390.573 477.051> 542 42.2227<448.445 657.056> 671 61.5557<259 730>
VStem: 91.9698 19.3698<693.884 821.978> 246.999 12.4372<94.9486 156.793> 407.56 49.7478<111.693 140.042> 607.671 12.4372<94.8608 156.874> 736 54.667<-49 212.277 416.444 671>
LayerCount: 4
Fore
SplineSet
59.5267993073 804.742895249 m 2
 96.7123461823 858.785863999 l 2
 99.0094444703 862.124311902 103.983930641 862.131685195 106.372663916 859.092356092 c 2
 151.597273291 801.550363904 l 2
 153.728456187 798.838731649 153.07641192 794.760904354 150.205931894 792.849037611 c 0
 149.558607644 792.41789101 148.788480899 792.10695942 148.066612591 791.961304877 c 2
 140.361534466 790.406617377 l 2
 138.127139237 789.955773624 135.776348379 790.903951444 134.459150709 792.578287081 c 2
 110.166346846 823.45771252 l 1
 111.339574879 699.533363708 l 2
 111.372635055 696.041322391 108.285528019 693.312880822 105.02386571 693.484888454 c 2
 97.6537485222 693.873560329 l 2
 94.3817817934 694.046111376 91.9559125427 696.961173209 91.9697937836 699.893635934 c 2
 92.5477000991 821.978451158 l 1
 72.7604393807 793.271593147 l 2
 70.8030957211 790.431928409 66.7154002943 789.844916257 64.0380563248 792.019018208 c 0
 63.6296309423 792.350674667 62.9869380115 793.121034006 62.9470269789 793.176602355 c 2
 59.5964410414 797.841641417 l 2
 58.0480317071 799.997500173 58.3284384449 803.001278302 59.5267993073 804.742895249 c 2
790.666992188 416.444335938 m 1
 901 312 l 1
 790.666992188 212.27734375 l 1
 796 -115 l 1
 235 -112 l 1
 229 -49 l 1
 736 -49 l 1
 736 257 l 1
 813 312 l 1
 736 377 l 1
 730 671 l 1
 253 671 l 1
 259 732.555664062 l 1
 790.666992188 732.555664062 l 1
 790.666992188 416.444335938 l 1
447 542 m 1
 448.4453125 584.22265625 l 1
 657.055664062 584.22265625 l 1
 659 544 l 1
 447 542 l 1
EndSplineSet
Refer: 291 57873 N 0.319266 0 0 0.247002 270.354 329.115 2
Refer: 71 57695 N 0.447731 0 0 0.324318 202.226 28.5721 2
Validated: 1
EndChar

StartChar: Semien.145
Encoding: 145 60574 50
Width: 989
VWidth: 0
Flags: W
HStem: -65 63<206 707> 53.6532 14.028<438.119 608.214> 258.9 34.3398<503.946 538.475> 270.852 13.5152<364.127 398.691> 458.73 15.7053<486.864 554.232> 589 42.2227<419.445 628.056> 718 61.5557<230 701>
VStem: 66.3145 19.3698<673.499 801.594> 335 11.3851<191.774 249.167> 414.181 10.6027<276.91 369.841> 416.75 10.6842<264.174 324.258> 503.94 34.54<258.906 293.235> 707 54.667<-2 259.277 463.444 718>
LayerCount: 4
Fore
SplineSet
33.8715258698 784.358129624 m 2xcf98
 71.0570727448 838.401098374 l 2
 73.3541710328 841.739546277 78.3286572037 841.74691957 80.7173904789 838.707590467 c 2
 125.941999854 781.165598279 l 2
 128.073182749 778.453966024 127.421138482 774.376138729 124.550658456 772.464271986 c 0
 123.903334207 772.033125385 123.133207462 771.722193795 122.411339153 771.576539252 c 2
 114.706261028 770.021851752 l 2
 112.4718658 769.571007999 110.121074941 770.519185819 108.803877272 772.193521456 c 2
 84.5110734085 803.072946895 l 1
 85.6843014417 679.148598083 l 2
 85.7173616176 675.656556766 82.6302545818 672.928115197 79.3685922722 673.100122829 c 2
 71.9984750847 673.488794704 l 2
 68.7265083559 673.661345751 66.3006391052 676.576407584 66.3145203461 679.508870309 c 2
 66.8924266616 801.593685533 l 1
 47.1051659432 772.886827522 l 2
 45.1478222836 770.047162784 41.0601268568 769.460150632 38.3827828873 771.634252583 c 0
 37.9743575048 771.965909042 37.331664574 772.736268381 37.2917535414 772.79183673 c 2
 33.9411676039 777.456875792 l 2
 32.3927582696 779.612734548 32.6731650074 782.616512677 33.8715258698 784.358129624 c 2xcf98
267.926757812 249.399414062 m 1
 160.849609375 527.927734375 l 1
 173.209960938 535.4296875 l 1
 269 299 l 1
 356.291992188 537.650390625 l 1
 373.000976562 527.927734375 l 1
 267.926757812 249.399414062 l 1
503.940429688 276.0703125 m 0
 503.940429688 266.474609375 511.790039062 258.900390625 521.209960938 258.900390625 c 0
 530.629882812 258.900390625 538.48046875 266.474609375 538.48046875 276.0703125 c 0
 538.48046875 285.665039062 530.629882812 293.240234375 521.209960938 293.240234375 c 0xef98
 511.790039062 293.240234375 503.940429688 285.665039062 503.940429688 276.0703125 c 0
761.666992188 463.444335938 m 1
 872 359 l 1
 761.666992188 259.27734375 l 1
 767 -68 l 1
 206 -65 l 1
 200 -2 l 1
 707 -2 l 1
 707 304 l 1
 784 359 l 1
 707 424 l 1
 701 718 l 1
 224 718 l 1
 230 779.555664062 l 1
 761.666992188 779.555664062 l 1
 761.666992188 463.444335938 l 1
418 589 m 1
 419.4453125 631.22265625 l 1
 628.055664062 631.22265625 l 1
 630 591 l 1
 418 589 l 1
EndSplineSet
Refer: 64 57457 N 0.384638 0 0 0.505 296.536 112.57 2
Validated: 9
EndChar

StartChar: magician.146
Encoding: 146 60554 51
Width: 935
VWidth: 0
Flags: W
HStem: -112 63<162 663> -2.61121 6.7891<347.564 604.985> 110.561 6.7891<347.564 401.575 410.729 470.416 479.57 539.257 548.411 605.26> 138.917 10.9023<142.347 293.597> 242.275 10.9023<142.347 293.597> 352.611 10.9023<142.347 293.597> 455.098 10.9023<142.347 293.597> 542 42.2227<375.445 584.056> 671 61.5557<186 657>
VStem: 133.944 8.40234<149.819 242.275 253.178 352.611 363.514 455.098> 293.597 8.40332<149.819 242.275 253.178 352.611 363.514 455.098> 338.41 9.15486<4.17789 110.561> 401.575 9.1542<48.3063 110.561> 470.416 9.15453<48.3063 110.561> 539.257 9.1542<48.3063 110.561> 604.985 9.1542<4.17789 110.561> 663 54.667<-49 212.277 416.444 671>
LayerCount: 4
Fore
SplineSet
133.944335938 466 m 1
 302 466 l 1
 302 138.916992188 l 1
 133.944335938 138.916992188 l 1
 133.944335938 466 l 1
293.596679688 253.177734375 m 1
 293.596679688 352.611328125 l 1
 142.346679688 352.611328125 l 1
 142.346679688 253.177734375 l 1
 293.596679688 253.177734375 l 1
293.596679688 455.09765625 m 1
 142.346679688 455.09765625 l 1
 142.346679688 363.513671875 l 1
 293.596679688 363.513671875 l 1
 293.596679688 455.09765625 l 1
142.346679688 149.819335938 m 1
 293.596679688 149.819335938 l 1
 293.596679688 242.275390625 l 1
 142.346679688 242.275390625 l 1
 142.346679688 149.819335938 l 1
717.666992188 416.444335938 m 1
 828 312 l 1
 717.666992188 212.27734375 l 1
 723 -115 l 1
 162 -112 l 1
 156 -49 l 1
 663 -49 l 1
 663 257 l 1
 740 312 l 1
 663 377 l 1
 657 671 l 1
 180 671 l 1
 186 732.555664062 l 1
 717.666992188 732.555664062 l 1
 717.666992188 416.444335938 l 1
374 542 m 1
 375.4453125 584.22265625 l 1
 584.055664062 584.22265625 l 1
 586 544 l 1
 374 542 l 1
EndSplineSet
Refer: 606 57725 N 0.369038 0 0 0.369255 372.126 145.487 2
Refer: 543 58117 N 0.329557 0 0 0.244403 305.454 -18.2258 2
Validated: 1
EndChar

StartChar: Hebrew.149
Encoding: 149 60559 52
Width: 889
VWidth: 0
Flags: W
HStem: 458.223 12.7773<426.258 620.598 634 823.248> 743.55 12.7783<479.869 620.598 634 774.729>
VStem: 97.1671 19.6646<677.054 795.82> 115.617 20.2773<-13.4814 314.559> 243.884 13.4355<698.736 805.551> 620.598 13.4023<471 743.55 756.328 845.772> 706.309 20.0742<-10.9268 314.92>
LayerCount: 4
Fore
SplineSet
63.5911252943 780.244306475 m 6xee
 102.263976857 829.964033038 l 6
 104.706046816 833.103678699 109.34889856 832.670144889 111.485432719 830.265357292 c 6
 158.518635844 777.326880729 l 6
 160.809326421 774.748581541 160.404161414 770.638876139 157.654088947 768.557532474 c 4
 156.901816996 767.988188764 156.015912742 767.600919401 155.087822379 767.435209177 c 6
 147.075127066 766.004545114 l 6
 145.03325732 765.639969955 142.895777796 766.396001993 141.537015135 767.923866403 c 6
 115.609727376 797.077876414 l 5
 116.831687611 682.908941416 l 6
 116.869194546 679.404632 113.761173098 676.701620687 110.552554064 676.851239055 c 6
 102.887515002 677.208660931 l 6
 99.6268458605 677.360706402 97.1510239009 680.23223399 97.1670779829 683.234234744 c 6
 97.7691651453 795.820311991 l 5
 76.544398049 768.580750746 l 6
 74.1795820502 765.545779859 69.4973945648 765.599479728 67.1533160699 768.486874622 c 6
 63.6689410699 772.778866809 l 6
 61.8787873955 774.983946797 62.0099931517 778.211524959 63.5911252943 780.244306475 c 6xee
634 471 m 1
 823.248046875 471 l 1
 823.248046875 458.22265625 l 1
 426.2578125 458.22265625 l 1
 426.2578125 471 l 1
 620.59765625 471 l 1
 620.59765625 743.549804688 l 1
 479.869140625 743.549804688 l 1
 479.869140625 756.328125 l 1
 620.59765625 756.328125 l 1
 620.59765625 845.772460938 l 1
 634 845.772460938 l 1
 634 756.328125 l 1
 774.729492188 756.328125 l 1
 774.729492188 743.549804688 l 1
 634 743.549804688 l 1
 634 471 l 1
248.536132812 639.787109375 m 2
 243.388671875 555.719726562 289.69140625 501.424804688 370 444 c 1
 346 435 l 1
 267.444335938 491.333984375 248.569335938 538.4765625 229 621 c 1
 210.572265625 547.737304688 157.571289062 483.678710938 112 444 c 1
 109 468 l 1
 199.09375 549.841796875 247.668945312 634.985351562 243.883789062 805.76171875 c 1
 256.9921875 805.352539062 l 2
 257.169921875 805.34765625 257.319335938 789.33203125 257.319335938 783.220703125 c 0
 257.319335938 741.63671875 248.536132812 639.787109375 248.536132812 639.787109375 c 2
421 -120 m 1
 413.498046875 -111.942382812 l 2
 270.7421875 41.7431640625 137.111328125 -34.3134765625 131.02734375 -37.654296875 c 2
 115.6171875 -47.2841796875 l 1
 115.6171875 320.418945312 l 1xde
 120.077148438 323.3671875 l 2
 121.498046875 323.3671875 267.294921875 419.076171875 425.2578125 256.744140625 c 1
 583.22265625 419.46875 720.908203125 324.153320312 722.327148438 323.170898438 c 2
 726.3828125 320.22265625 l 1
 726.3828125 -49.25 l 1
 709.958007812 -36.8681640625 l 2
 704.888671875 -33.134765625 583.22265625 54.91015625 428.502929688 -111.942382812 c 2
 421 -120 l 1
221.873046875 3.0263671875 m 0
 276.825195312 3.0263671875 348.40625 -16.6259765625 421 -90.716796875 c 1
 505.35546875 -3.8515625 581.397460938 11.4775390625 630.672851562 8.7255859375 c 0
 652.76171875 7.689453125 686.646484375 -1.1142578125 706.30859375 -10.9267578125 c 2
 706.30859375 310.002929688 l 2
 682.989257812 324.153320312 568.419921875 381.5390625 432.963867188 235.715820312 c 2
 425.461914062 227.658203125 l 1
 417.958007812 235.715820312 l 2
 283.516601562 380.163085938 160.227539062 323.3671875 135.89453125 309.806640625 c 2
 135.89453125 -13.4814453125 l 2
 158.668945312 -4.369140625 197.149414062 3.0263671875 221.788085938 3.0263671875 c 0
 221.811523438 3.0263671875 221.849609375 3.0263671875 221.873046875 3.0263671875 c 0
301.532226562 -159.65625 m 1025
EndSplineSet
Validated: 33
EndChar

StartChar: Joel.150
Encoding: 150 60562 53
Width: 998
VWidth: 0
Flags: W
HStem: -123 63<280 781> 11.2627 14.8184<240.268 480 496.534 729.985> 342.18 14.8203<306.4 480 496.534 670.134> 531 42.2227<493.445 702.056> 660 61.5557<304 775>
VStem: 106.315 19.3698<694.266 822.361> 480 16.5342<26.0811 342.18 357 460.736> 781 54.667<-60 201.277 405.444 660>
LayerCount: 4
Fore
SplineSet
73.8715258698 805.125707749 m 2
 111.057072745 859.168676499 l 2
 113.354171033 862.507124402 118.328657204 862.514497695 120.717390479 859.475168592 c 2
 165.941999854 801.933176404 l 2
 168.073182749 799.221544149 167.421138482 795.143716854 164.550658456 793.231850111 c 0
 163.903334207 792.80070351 163.133207462 792.48977192 162.411339153 792.344117377 c 2
 154.706261028 790.789429877 l 2
 152.4718658 790.338586124 150.121074941 791.286763944 148.803877272 792.961099581 c 2
 124.511073409 823.84052502 l 1
 125.684301442 699.916176208 l 2
 125.717361618 696.424134891 122.630254582 693.695693322 119.368592272 693.867700954 c 2
 111.998475085 694.256372829 l 2
 108.726508356 694.428923876 106.300639105 697.343985709 106.314520346 700.276448434 c 2
 106.892426662 822.361263658 l 1
 87.1051659432 793.654405647 l 2
 85.1478222836 790.814740909 81.0601268568 790.227728757 78.3827828873 792.401830708 c 0
 77.9743575048 792.733487167 77.331664574 793.503846506 77.2917535414 793.559414855 c 2
 73.9411676039 798.224453917 l 2
 72.3927582696 800.380312673 72.6731650074 803.384090802 73.8715258698 805.125707749 c 2
496.534179688 26.0810546875 m 1
 729.985351562 26.0810546875 l 1
 729.985351562 11.2626953125 l 1
 240.267578125 11.2626953125 l 1
 240.267578125 26.0810546875 l 1
 480 26.0810546875 l 1
 480 342.1796875 l 1
 306.400390625 342.1796875 l 1
 306.400390625 357 l 1
 480 357 l 1
 480 460.736328125 l 1
 496.534179688 460.736328125 l 1
 496.534179688 357 l 1
 670.133789062 357 l 1
 670.133789062 342.1796875 l 1
 496.534179688 342.1796875 l 1
 496.534179688 26.0810546875 l 1
835.666992188 405.444335938 m 1
 946 301 l 1
 835.666992188 201.27734375 l 1
 841 -126 l 1
 280 -123 l 1
 274 -60 l 1
 781 -60 l 1
 781 246 l 1
 858 301 l 1
 781 366 l 1
 775 660 l 1
 298 660 l 1
 304 721.555664062 l 1
 835.666992188 721.555664062 l 1
 835.666992188 405.444335938 l 1
492 531 m 1
 493.4453125 573.22265625 l 1
 702.055664062 573.22265625 l 1
 704 533 l 1
 492 531 l 1
EndSplineSet
Validated: 1
EndChar

StartChar: Lucius.151
Encoding: 151 60563 54
Width: 1169
VWidth: 0
Flags: W
HStem: -104 63<362 863> -12.1234 11.2735<462.2 803.799> 314.803 11.2735<462.2 803.799> 362.436 11.9666<236.775 455.941> 550 42.2227<575.445 784.056> 679 61.5557<386 857>
VStem: 161.082 12.4004<402.177 479.751> 161.97 19.3698<691.884 819.978> 450 12.2002<-0.84989 314.803> 523.159 7.3698<112.001 225.96> 737.846 7.29624<112.888 226.085> 803.799 12.2002<-0.84989 314.803> 863 54.667<-41 220.277 424.444 679>
LayerCount: 4
Fore
SplineSet
165.375976562 371.643554688 m 2xfef8
 180.54296875 315.955078125 221.306640625 271.387695312 295.4375 233.935546875 c 1
 290.768554688 222.62109375 l 1
 218.256835938 259.360351562 174.118164062 303.39453125 156.0546875 357.21484375 c 1
 139.043945312 309.43359375 91.0986328125 249.654296875 49.033203125 223.77734375 c 1
 41.44921875 235.216796875 l 1
 124.612304688 288.591796875 164.575195312 368.51171875 161.08203125 479.888671875 c 1
 173.181640625 479.62109375 l 2
 173.345703125 479.6171875 173.482421875 469.173828125 173.482421875 465.1875 c 0
 173.482421875 438.067382812 165.375976562 371.643554688 165.375976562 371.643554688 c 2xfef8
129.526799307 802.742895249 m 2
 166.712346182 856.785863999 l 2
 169.00944447 860.124311902 173.983930641 860.131685195 176.372663916 857.092356092 c 2
 221.597273291 799.550363904 l 2
 223.728456187 796.838731649 223.07641192 792.760904354 220.205931894 790.849037611 c 0
 219.558607644 790.41789101 218.788480899 790.10695942 218.066612591 789.961304877 c 2
 210.361534466 788.406617377 l 2
 208.127139237 787.955773624 205.776348379 788.903951444 204.459150709 790.578287081 c 2
 180.166346846 821.45771252 l 1
 181.339574879 697.533363708 l 2
 181.372635055 694.041322391 178.285528019 691.312880822 175.02386571 691.484888454 c 2
 167.653748522 691.873560329 l 2
 164.381781793 692.046111376 161.955912543 694.961173209 161.969793784 697.893635934 c 2xfdf8
 162.547700099 819.978451158 l 1
 142.760439381 791.271593147 l 2
 140.803095721 788.431928409 136.715400294 787.844916257 134.038056325 790.019018208 c 0
 133.629630942 790.350674667 132.986938012 791.121034006 132.947026979 791.176602355 c 2
 129.596441041 795.841641417 l 2
 128.048031707 797.997500173 128.328438445 801.001278302 129.526799307 802.742895249 c 2
917.666992188 424.444335938 m 1
 1028 320 l 1
 917.666992188 220.27734375 l 1
 923 -107 l 1
 362 -104 l 1
 356 -41 l 1
 863 -41 l 1
 863 265 l 1
 940 320 l 1
 863 385 l 1
 857 679 l 1
 380 679 l 1
 386 740.555664062 l 1
 917.666992188 740.555664062 l 1
 917.666992188 424.444335938 l 1
574 550 m 1
 575.4453125 592.22265625 l 1
 784.055664062 592.22265625 l 1
 786 552 l 1
 574 550 l 1
EndSplineSet
Refer: 596 57420 N 0.439199 0 0 0.40584 406.08 35.2247 2
Refer: 587 58133 N -0.0010884 -0.1886 0.1219 -0.00168393 449.35 548.031 2
Refer: 68 57605 N 0.3 0 0 0.3 190.558 380.903 2
Validated: 33
EndChar

StartChar: Pharaoh.152
Encoding: 152 60564 55
Width: 1048
VWidth: 0
Flags: W
HStem: -97.04 60.4805<370.3 846.25> -32.9961 10.6777<42.4092 177.34 186.646 318.04> 205.449 10.6787<79.6318 177.34 186.646 284.354> 234.578 20.8555<479.74 657.58> 354.229 15.3339<60.2766 305.012> 530.8 40.5342<573.073 771.253> 654.64 59.0938<393.1 840.55>
VStem: 98.3145 19.3698<694.266 822.361> 177.34 9.30566<-22.3184 205.449 216.128 290.876> 184.349 7.14539<504.843 542.007> 846.25 51.9336<-36.5596 214.267 410.267 654.64>
LayerCount: 4
Fore
SplineSet
65.8715258698 805.125707749 m 2xff20
 103.057072745 859.168676499 l 2
 105.354171033 862.507124402 110.328657204 862.514497695 112.717390479 859.475168592 c 2
 157.941999854 801.933176404 l 2
 160.073182749 799.221544149 159.421138482 795.143716854 156.550658456 793.231850111 c 0
 155.903334207 792.80070351 155.133207462 792.48977192 154.411339153 792.344117377 c 2
 146.706261028 790.789429877 l 2
 144.4718658 790.338586124 142.121074941 791.286763944 140.803877272 792.961099581 c 2
 116.511073409 823.84052502 l 1
 117.684301442 699.916176208 l 2
 117.717361618 696.424134891 114.630254582 693.695693322 111.368592272 693.867700954 c 2
 103.998475085 694.256372829 l 2
 100.726508356 694.428923876 98.3006391052 697.343985709 98.3145203461 700.276448434 c 2
 98.8924266616 822.361263658 l 1
 79.1051659432 793.654405647 l 2
 77.1478222836 790.814740909 73.0601268568 790.227728757 70.3827828873 792.401830708 c 0
 69.9743575048 792.733487167 69.331664574 793.503846506 69.2917535414 793.559414855 c 2
 65.9411676039 798.224453917 l 2
 64.3927582696 800.380312673 64.6731650074 803.384090802 65.8715258698 805.125707749 c 2xff20
186.645507812 -22.318359375 m 1xffa0
 318.040039062 -22.318359375 l 1
 318.040039062 -32.99609375 l 1
 42.4091796875 -32.99609375 l 1
 42.4091796875 -22.318359375 l 1
 177.33984375 -22.318359375 l 1
 177.33984375 205.44921875 l 1
 79.6318359375 205.44921875 l 1
 79.6318359375 216.127929688 l 1
 177.33984375 216.127929688 l 1
 177.33984375 290.875976562 l 1
 186.645507812 290.875976562 l 1
 186.645507812 216.127929688 l 1
 284.354492188 216.127929688 l 1
 284.354492188 205.44921875 l 1
 186.645507812 205.44921875 l 1
 186.645507812 -22.318359375 l 1xffa0
687.15625 234.578125 m 1
 459.790039062 234.578125 l 1
 411.33984375 399.442382812 l 1
 499.267578125 347.645507812 l 1
 568.830078125 463.698242188 l 1
 638.1796875 347.645507812 l 1
 725.580078125 398.844726562 l 1
 687.15625 234.578125 l 1
479.740234375 255.43359375 m 1
 657.580078125 254.51171875 l 1
 688.359375 352.201171875 l 1
 626.799804688 315.337890625 l 1
 569.799804688 420.400390625 l 1
 510.51953125 319.946289062 l 1
 446.680664062 357.731445312 l 1
 479.740234375 255.43359375 l 1
898.18359375 410.266601562 m 1
 1003 310 l 1
 898.18359375 214.266601562 l 1
 903.25 -99.919921875 l 1
 370.299804688 -97.0400390625 l 1
 364.599609375 -36.5595703125 l 1
 846.25 -36.5595703125 l 1
 846.25 257.200195312 l 1
 919.400390625 310 l 1
 846.25 372.400390625 l 1
 840.549804688 654.639648438 l 1
 387.400390625 654.639648438 l 1
 393.099609375 713.733398438 l 1
 898.18359375 713.733398438 l 1
 898.18359375 410.266601562 l 1
571.700195312 530.799804688 m 1
 573.073242188 571.333984375 l 1
 771.252929688 571.333984375 l 1
 773.099609375 532.719726562 l 1
 571.700195312 530.799804688 l 1
EndSplineSet
Refer: 68 57605 N 0.335 0 0 0.384418 8.6675 377.892 2
Refer: 69 57631 N 0.172849 0 0 0.188247 107.646 405.254 2
Validated: 1
EndChar

StartChar: Timon.153
Encoding: 153 60566 56
Width: 872
VWidth: 0
Flags: W
HStem: -111 63<152 653> 2.97587 11.7754<324.886 407.016> 57.1427 13.8268<315.251 411.958> 245.549 14.1305<319.92 411.982> 543 42.2227<365.445 574.056> 672 61.5557<176 647>
VStem: 63.4219 19.3701<682.906 811> 214.789 14.2399<96.0109 165.467> 502.873 14.2399<96.0109 165.467> 653 54.667<-48 213.277 417.444 672>
LayerCount: 4
Fore
SplineSet
30.978515625 793.764648438 m 6
 68.1640625 847.807617188 l 6
 70.4619140625 851.145507812 75.4365234375 851.153320312 77.8251953125 848.114257812 c 6
 123.049804688 790.572265625 l 6
 125.180664062 787.860351562 124.528320312 783.782226562 121.658203125 781.870117188 c 4
 121.010742188 781.439453125 120.240234375 781.12890625 119.518554688 780.982421875 c 6
 111.813476562 779.427734375 l 6
 109.579101562 778.977539062 107.228515625 779.92578125 105.911132812 781.599609375 c 6
 81.6181640625 812.479492188 l 5
 82.7919921875 688.5546875 l 6
 82.8251953125 685.0625 79.7373046875 682.333984375 76.4755859375 682.506835938 c 6
 69.10546875 682.895507812 l 6
 65.833984375 683.067382812 63.408203125 685.982421875 63.421875 688.915039062 c 6
 64 811 l 5
 44.212890625 782.291992188 l 6
 42.2548828125 779.452148438 38.16796875 778.865234375 35.490234375 781.0390625 c 4
 35.08203125 781.37109375 34.439453125 782.140625 34.3984375 782.197265625 c 6
 31.0478515625 786.86328125 l 6
 29.5 789.01953125 29.78125 792.0234375 30.978515625 793.764648438 c 6
707.666992188 417.444335938 m 1
 818 313 l 1
 707.666992188 213.27734375 l 1
 713 -114 l 1
 152 -111 l 1
 146 -48 l 1
 653 -48 l 1
 653 258 l 1
 730 313 l 1
 653 378 l 1
 647 672 l 1
 170 672 l 1
 176 733.555664062 l 1
 707.666992188 733.555664062 l 1
 707.666992188 417.444335938 l 1
364 543 m 1
 365.4453125 585.22265625 l 1
 574.055664062 585.22265625 l 1
 576 545 l 1
 364 543 l 1
EndSplineSet
Refer: 66 57494 N 0.248428 0 0 0.253253 250.706 333.415 2
Refer: 559 57385 N 0.365126 0 0 0.392513 178.276 -11.1546 2
Validated: 1
EndChar

StartChar: Asher.155
Encoding: 155 60382 57
Width: 999
VWidth: 0
Flags: W
HStem: -85 63<258 759> 70.3144 17.1525<402.616 507.65> 352.718 46.9297<381.478 413.522 496.346 528.553> 474.948 17.1531<402.616 507.65> 569 42.2227<471.445 680.056> 698 61.5557<282 753>
VStem: 85.3145 19.3698<661.499 789.594> 256.425 13.1942<233.234 329.18> 348.127 13.1942<249.762 267.879> 381.35 32.3008<355.195 399.64> 496.3 32.2998<352.725 399.64> 549.077 13.1947<254.901 268.095> 640.647 13.1942<233.236 329.181> 759 54.667<-22 239.277 443.444 698>
LayerCount: 4
Fore
SplineSet
52.8715258698 772.358129624 m 2
 90.0570727448 826.401098374 l 2
 92.3541710328 829.739546277 97.3286572037 829.74691957 99.7173904789 826.707590467 c 2
 144.941999854 769.165598279 l 2
 147.073182749 766.453966024 146.421138482 762.376138729 143.550658456 760.464271986 c 0
 142.903334207 760.033125385 142.133207462 759.722193795 141.411339153 759.576539252 c 2
 133.706261028 758.021851752 l 2
 131.4718658 757.571007999 129.121074941 758.519185819 127.803877272 760.193521456 c 2
 103.511073409 791.072946895 l 1
 104.684301442 667.148598083 l 2
 104.717361618 663.656556766 101.630254582 660.928115197 98.3685922722 661.100122829 c 2
 90.9984750847 661.488794704 l 2
 87.7265083559 661.661345751 85.3006391052 664.576407584 85.3145203461 667.508870309 c 2
 85.8924266616 789.593685533 l 1
 66.1051659432 760.886827522 l 2
 64.1478222836 758.047162784 60.0601268568 757.460150632 57.3827828873 759.634252583 c 0
 56.9743575048 759.965909042 56.331664574 760.736268381 56.2917535414 760.79183673 c 2
 52.9411676039 765.456875792 l 2
 51.3927582696 767.612734548 51.6731650074 770.616512677 52.8715258698 772.358129624 c 2
496.299804688 376.182617188 m 0
 496.299804688 389.150390625 503.424804688 399.647460938 512.450195312 399.647460938 c 0
 521.474609375 399.647460938 528.599609375 389.150390625 528.599609375 376.182617188 c 0
 528.599609375 363.21484375 521.474609375 352.717773438 512.450195312 352.717773438 c 0
 503.424804688 352.717773438 496.299804688 363.21484375 496.299804688 376.182617188 c 0
381.349609375 377.41796875 m 0
 381.349609375 389.767578125 388.474609375 399.647460938 397.5 399.647460938 c 0
 406.525390625 399.647460938 413.650390625 389.767578125 413.650390625 377.41796875 c 0
 413.650390625 365.067382812 406.525390625 355.1875 397.5 355.1875 c 0
 388.474609375 355.1875 381.349609375 365.067382812 381.349609375 377.41796875 c 0
813.666992188 443.444335938 m 1
 924 339 l 1
 813.666992188 239.27734375 l 1
 819 -88 l 1
 258 -85 l 1
 252 -22 l 1
 759 -22 l 1
 759 284 l 1
 836 339 l 1
 759 404 l 1
 753 698 l 1
 276 698 l 1
 282 759.555664062 l 1
 813.666992188 759.555664062 l 1
 813.666992188 443.444335938 l 1
470 569 m 1
 471.4453125 611.22265625 l 1
 680.055664062 611.22265625 l 1
 682 571 l 1
 470 569 l 1
EndSplineSet
Refer: 78 57859 N 0.475 0 0 0.6175 208.925 97.0725 2
Validated: 9
EndChar

StartChar: Lot.156
Encoding: 156 60380 58
Width: 928
VWidth: 0
Flags: W
HStem: -47 63<213 714> 85.25 15.9502<379.875 481.853> 216.92 6.74131<296.43 407.976> 217.098 7.00226<447.482 562.149> 390.84 6.91634<375.63 487.176> 541.2 11.5498<387.531 476.79> 607 42.2227<426.445 635.056> 736 61.5557<237 708>
VStem: 108.557 19.665<682.977 801.742> 217 11.4404<271.674 371.368> 635 13.2002<266.183 374.017> 714 54.667<16 277.277 481.444 736>
LayerCount: 4
Fore
SplineSet
74.9814453125 786.166015625 m 6xcff0
 113.654296875 835.885742188 l 6
 116.095703125 839.025390625 120.739257812 838.591796875 122.875 836.1875 c 6
 169.908203125 783.249023438 l 6
 172.19921875 780.670898438 171.793945312 776.560546875 169.043945312 774.479492188 c 4
 168.291992188 773.91015625 167.40625 773.5234375 166.477539062 773.357421875 c 6
 158.46484375 771.926757812 l 6
 156.422851562 771.5625 154.286132812 772.318359375 152.926757812 773.845703125 c 6
 127 803 l 5
 128.221679688 688.831054688 l 6
 128.258789062 685.327148438 125.151367188 682.624023438 121.942382812 682.7734375 c 6
 114.27734375 683.130859375 l 6
 111.016601562 683.283203125 108.541015625 686.154296875 108.556640625 689.15625 c 6
 109.159179688 801.7421875 l 5
 87.9345703125 774.502929688 l 6
 85.5693359375 771.467773438 80.8876953125 771.521484375 78.54296875 774.409179688 c 6
 75.05859375 778.701171875 l 6
 73.2685546875 780.90625 73.3994140625 784.133789062 74.9814453125 786.166015625 c 6xcff0
228.440429688 321.200195312 m 0
 228.440429688 199.650390625 319.520507812 101.200195312 431.720703125 101.200195312 c 0
 543.920898438 101.200195312 635 199.650390625 635 321.200195312 c 0
 635 442.75 543.920898438 541.200195312 431.720703125 541.200195312 c 0
 319.520507812 541.200195312 228.440429688 442.75 228.440429688 321.200195312 c 0
217 319 m 0
 217 448.25 313.80078125 552.75 432.600585938 552.75 c 0
 551.400390625 552.75 648.200195312 448.25 648.200195312 319 c 0
 648.200195312 189.75 551.400390625 85.25 432.600585938 85.25 c 0
 313.80078125 85.25 217 189.75 217 319 c 0
768.666992188 481.444335938 m 1
 879 377 l 1
 768.666992188 277.27734375 l 1
 774 -50 l 1
 213 -47 l 1
 207 16 l 1
 714 16 l 1
 714 322 l 1
 791 377 l 1
 714 442 l 1
 708 736 l 1
 231 736 l 1
 237 797.555664062 l 1
 768.666992188 797.555664062 l 1
 768.666992188 481.444335938 l 1
425 607 m 1
 426.4453125 649.22265625 l 1
 635.055664062 649.22265625 l 1
 637 609 l 1
 425 607 l 1
EndSplineSet
Refer: 68 57605 N 0.156958 0 0 0.175545 423.302 227.904 2
Refer: 68 57605 N 0.152687 0 0 0.173391 352.107 401.513 2
Refer: 68 57605 N 0.152687 0 0 0.169003 272.907 227.323 2
Validated: 1
EndChar

StartChar: Aenon.157
Encoding: 157 60321 59
Width: 1040
VWidth: 0
Flags: W
HStem: -170.064 77.6588<265.402 825.43> 41.4925 13.68<385.95 696.315> 172.849 11.725<533.031 597.042> 636.109 52.0474<503.995 737.185> 795.124 75.8789<292.23 818.723>
VStem: 90.3145 19.3698<694.266 822.361> 674.561 11.575<262.313 330.165> 825.43 61.1079<-92.4053 229.666 481.338 795.124>
LayerCount: 4
Fore
SplineSet
480 124 m 1
 580.035 48.7607 l 1
 488.55 -61.5352 l 1
 485.985 -38.4502 l 1
 562.079 48.7607 l 1
 482.565 106.899 l 1
 480 124 l 1
563.269 172.849 m 2
 562.95 172.849 l 2
 536.848 172.849 500.655 187.798 482.163 206.219 c 0
 444.401 244.1 437.514 303.475 464.469 357.862 c 0
 473.612 376.269 484.42 394.199 494.869 411.537 c 0
 500.451 420.681 506.031 429.943 511.258 439.206 c 2
 549.019 505.35 l 1
 550.801 508.793 l 2
 559.112 525.062 561.25 529.1 566 529.1 c 2
 568.257 529.1 l 2
 572.294 527.438 574.907 522.33 578.351 514.73 c 0
 578.944 513.425 579.419 512.237 579.775 511.762 c 2
 638.32 409.042 l 2
 642.476 401.8 646.988 394.793 651.5 387.667 c 0
 659.891 375.409 671.488 354.396 677.389 340.762 c 0
 678.813 337.278 680.04 333.716 681.07 330.074 c 0
 683.866 320.687 686.136 305.118 686.136 295.323 c 0
 686.136 239.586 641.679 185.995 586.9 175.699 c 0
 580.455 174.275 569.868 172.999 563.269 172.849 c 2
566 512 m 2
 564.22 508.793 562.438 505.112 561.488 503.093 c 2
 559.352 498.938 l 1
 521.588 433.03 l 2
 516.244 423.649 510.664 414.386 504.963 405.125 c 0
 494.633 388.024 483.945 370.331 475.038 352.398 c 0
 450.339 302.287 456.276 248.256 490.357 214.649 c 0
 507.074 198.048 539.764 184.574 563.323 184.574 c 0
 569.205 184.574 578.649 185.546 584.407 186.742 c 0
 634.173 195.811 674.561 244.223 674.561 294.808 c 0
 674.561 303.959 672.37 318.481 669.669 327.224 c 0
 668.72 330.55 667.611 333.795 666.344 336.962 c 0
 660.671 350.001 649.552 370.111 641.526 381.85 c 0
 636.895 389.094 632.263 396.337 627.987 403.698 c 2
 569.445 505.35 l 2
 569.445 506.181 568.257 507.605 567.544 509.387 c 2
 566 512 l 2
57.8715258698 805.125707749 m 2
 95.0570727448 859.168676499 l 2
 97.3541710328 862.507124402 102.328657204 862.514497695 104.717390479 859.475168592 c 2
 149.941999854 801.933176404 l 2
 152.073182749 799.221544149 151.421138482 795.143716854 148.550658456 793.231850111 c 0
 147.903334207 792.80070351 147.133207462 792.48977192 146.411339153 792.344117377 c 2
 138.706261028 790.789429877 l 2
 136.4718658 790.338586124 134.121074941 791.286763944 132.803877272 792.961099581 c 2
 108.511073409 823.84052502 l 1
 109.684301442 699.916176208 l 2
 109.717361618 696.424134891 106.630254582 693.695693322 103.368592272 693.867700954 c 2
 95.9984750847 694.256372829 l 2
 92.7265083559 694.428923876 90.3006391052 697.343985709 90.3145203461 700.276448434 c 2
 90.8924266616 822.361263658 l 1
 71.1051659432 793.654405647 l 2
 69.1478222836 790.814740909 65.0601268568 790.227728757 62.3827828873 792.401830708 c 0
 61.9743575048 792.733487167 61.331664574 793.503846506 61.2917535414 793.559414855 c 2
 57.9411676039 798.224453917 l 2
 56.3927582696 800.380312673 56.6731650074 803.384090802 57.8715258698 805.125707749 c 2
609.105 142.3825 m 1
 727.95 47.4775 l 1
 601.41 -67.9475 l 1
 597.99 -48.2825 l 1
 696.315 41.4925 l 1
 385.095 38.0725 l 1
 385.95 56.8825 l 1
 697.17 55.1725 l 1
 598.845 133.8325 l 1
 609.105 142.3825 l 1
886.53796594 481.33822992 m 1
 1009.8704 352.5922 l 1
 886.53796594 229.66565236 l 1
 892.4993 -173.76216 l 1
 265.40228 -170.06412 l 1
 258.69536 -92.40528 l 1
 825.4301 -92.40528 l 1
 825.4301 284.7948 l 1
 911.50224 352.5922 l 1
 825.4301 432.7164 l 1
 818.72318 795.12432 l 1
 285.52304 795.12432 l 1
 292.22996 871.00317008 l 1
 886.53796594 871.00317008 l 1
 886.53796594 481.33822992 l 1
502.38012 636.1086 m 1
 503.9953699 688.15604764 l 1
 737.18491792 688.15604764 l 1
 739.35796 638.57396 l 1
 502.38012 636.1086 l 1
EndSplineSet
Validated: 37
EndChar

StartChar: Ephraim.158
Encoding: 158 60323 60
Width: 993
VWidth: 0
Flags: W
HStem: -196.302 77.6592<180.903 740.93> -60.7178 14.3145<389.753 490.061> 87.5068 14.3389<405.792 430.312 444.628 477.867> 200.043 14.2246<477.563 503.009> 609.87 52.0469<419.496 652.684> 768.885 75.8789<207.73 734.223>
VStem: 66.045 19.3698<682.261 810.356> 342.482 14.583<-11.3062 46.2561> 430.312 14.3164<101.843 155.13> 518.887 14.0518<-7.51485 49.9938> 740.93 61.1094<-118.643 203.428 455.1 768.885>
LayerCount: 4
Fore
SplineSet
462.51171875 242.563476562 m 1
 340.91796875 462.682617188 l 1
 354.953125 468.612304688 l 1
 463.73046875 281.76171875 l 1
 562.857421875 470.3671875 l 1
 581.83203125 462.682617188 l 1
 462.51171875 242.563476562 l 1
532.702148438 28.4931640625 m 0
 532.830078125 26.7607421875 532.938476562 23.8515625 532.938476562 22.041015625 c 0
 532.938476562 21.162109375 532.915039062 19.841796875 532.883789062 18.951171875 c 0
 531.932617188 -3.01953125 518.653320312 -32.3369140625 502.7109375 -47.5751953125 c 0
 493.48828125 -55.6689453125 477.674804688 -61.70703125 464.868164062 -61.70703125 c 0
 464.4140625 -61.7216796875 463.291992188 -61.74609375 462.698242188 -61.74609375 c 0
 461.528320312 -61.74609375 459.814453125 -61.6875 458.6171875 -61.607421875 c 0
 450.689453125 -60.96484375 437.731445312 -60.439453125 429.807617188 -60.439453125 c 0
 425.983398438 -60.439453125 419.79296875 -60.560546875 415.91796875 -60.7109375 c 0
 415.583007812 -60.716796875 415.254882812 -60.7177734375 414.977539062 -60.7177734375 c 0
 398.783203125 -60.7177734375 377.262695312 -51.544921875 366.067382812 -39.8916015625 c 0
 352.893554688 -26.5859375 342.482421875 -1.279296875 342.482421875 17.4765625 c 0
 342.482421875 17.8818359375 342.48828125 18.509765625 342.49609375 18.9189453125 c 0
 343.149414062 53.25 365.498046875 81.576171875 401.901367188 94.6953125 c 0
 409.590820312 97.40234375 421.583007812 99.9736328125 430.311523438 101.01171875 c 1
 430.397460938 122.776367188 431.755859375 169.948242188 458.141601562 196.333007812 c 0
 468.19140625 206.40234375 487.16015625 214.267578125 501.376953125 214.267578125 c 0
 501.872070312 214.267578125 502.612304688 214.255859375 503.102539062 214.2421875 c 0
 504.505859375 214.203125 505.629882812 213.006835938 505.629882812 211.64453125 c 2
 505.629882812 202.619140625 l 2
 505.629882812 201.073242188 504.209960938 199.985351562 502.956054688 200.022460938 c 0
 502.58203125 200.033203125 501.912109375 200.04296875 501.540039062 200.04296875 c 0
 491.015625 200.04296875 475.669921875 193.690429688 468.2265625 186.251953125 c 0
 446.89453125 164.919921875 444.755859375 120.655273438 444.627929688 101.842773438 c 1
 445.279296875 101.84765625 444.663085938 101.845703125 445.313476562 101.845703125 c 0
 461.711914062 101.845703125 485.532226562 95.1142578125 499.541992188 86.501953125 c 0
 517.266601562 75.0908203125 531.884765625 49.509765625 532.702148438 28.4931640625 c 0
493.239257812 -37.15625 m 0
 506.16015625 -24.7841796875 517.83203125 0.6748046875 518.7578125 18.6630859375 c 0
 518.827148438 19.8310546875 518.88671875 21.853515625 518.88671875 23.0224609375 c 0
 518.88671875 24.2041015625 518.829101562 26.181640625 518.755859375 27.408203125 c 0
 518.118164062 43.9638671875 505.98828125 65.2421875 492.108398438 74.23046875 c 0
 479.581054688 81.451171875 456.966796875 87.5068359375 442.534179688 87.5068359375 c 0
 432.596679688 87.5068359375 416.41796875 84.5234375 407.096679688 80.9609375 c 0
 375.424804688 69.58203125 357.59765625 46.85546875 357.079101562 18.3671875 c 0
 357.071289062 18.0146484375 357.065429688 17.3974609375 357.065429688 17.041015625 c 0
 357.065429688 2.044921875 365.913085938 -19.5244140625 376.467773438 -30.2177734375 c 0
 385.000976562 -38.9794921875 402.5859375 -46.4033203125 414.823242188 -46.4033203125 c 0
 415.022460938 -46.4033203125 415.33203125 -46.4013671875 415.563476562 -46.3984375 c 2
 433.614257812 -46.3984375 l 2
 434.4140625 -46.388671875 435.762695312 -46.380859375 436.586914062 -46.380859375 c 0
 443.19921875 -46.380859375 453.625976562 -46.87109375 460.250976562 -47.494140625 c 0
 461.577148438 -47.6474609375 463.834960938 -47.775390625 465.124023438 -47.775390625 c 0
 473.76171875 -47.775390625 486.765625 -42.8740234375 493.239257812 -37.15625 c 0
492.108398438 74.23046875 m 0
 492.08984375 74.2421875 492.072265625 74.25390625 492.053710938 74.265625 c 2
 492.1640625 74.19921875 l 2
 492.14453125 74.2099609375 492.125976562 74.2197265625 492.108398438 74.23046875 c 0
33.6019946198 793.119848374 m 2
 70.7875414948 847.162817124 l 2
 73.0846397828 850.501265027 78.0591259537 850.50863832 80.4478592289 847.469309217 c 2
 125.672468604 789.927317029 l 2
 127.803651499 787.215684773 127.151607232 783.137857479 124.281127206 781.225990735 c 0
 123.633802957 780.794844135 122.863676212 780.483912544 122.141807903 780.338258001 c 2
 114.436729778 778.783570501 l 2
 112.202346614 778.332729183 109.851567129 779.28092126 108.534396072 780.955176586 c 2
 84.2406848338 811.834898103 l 1
 85.4147697996 687.91035823 l 2
 85.4478539023 684.418334806 82.3608001066 681.689829898 79.0990610222 681.861841579 c 2
 71.7289438347 682.250513454 l 2
 68.4569771059 682.423064501 66.0311078552 685.338126334 66.0449890961 688.270589059 c 2
 66.6228978288 810.35591492 l 1
 46.8346077124 781.648473127 l 2
 44.8772220081 778.808837371 40.7895178902 778.221885743 38.1122061114 780.396027335 c 0
 37.7035614664 780.727871884 37.0615141211 781.497473134 37.0207623647 781.554228569 c 2
 33.6711529897 786.219267631 l 2
 32.123086146 788.375277926 32.4041713032 791.379012659 33.6019946198 793.119848374 c 2
802.0390625 455.100585938 m 1
 925.37109375 326.353515625 l 1
 802.0390625 203.427734375 l 1
 808 -200 l 1
 180.903320312 -196.301757812 l 1
 174.196289062 -118.642578125 l 1
 740.9296875 -118.642578125 l 1
 740.9296875 258.556640625 l 1
 827.001953125 326.353515625 l 1
 740.9296875 406.478515625 l 1
 734.22265625 768.884765625 l 1
 201.0234375 768.884765625 l 1
 207.73046875 844.763671875 l 1
 802.0390625 844.763671875 l 1
 802.0390625 455.099609375 l 1
 802.0390625 455.100585938 l 1
417.879882812 609.870117188 m 1
 419.49609375 661.916992188 l 1
 652.68359375 661.916992188 l 1
 654.857421875 612.3359375 l 1
 417.879882812 609.870117188 l 1
EndSplineSet
Validated: 5
EndChar

StartChar: king.192
Encoding: 192 57384 61
Width: 1026
VWidth: 0
Flags: W
HStem: -88.8887 67.8887<280 748>
LayerCount: 4
Fore
SplineSet
825.833007812 -88.888671875 m 1
 227.5 -88.888671875 l 1
 100 447.77734375 l 1
 331.388671875 279.166992188 l 1
 514.4453125 656.944335938 l 1
 696.9453125 279.166992188 l 1
 926.9453125 445.833007812 l 1
 825.833007812 -88.888671875 l 1
280 -21 m 1
 748 -24 l 1
 829 294 l 1
 667 174 l 1
 517 516 l 1
 361 189 l 5
 193 312 l 1
 280 -21 l 1
EndSplineSet
Validated: 1
EndChar

StartChar: cross.288
Encoding: 288 57400 62
Width: 805
VWidth: 0
Flags: W
HStem: 469.167 27.7773<100 388.611 416.389 705>
VStem: 388.611 27.7773<-122.777 469.167 496.944 716.667>
LayerCount: 4
Fore
SplineSet
705 496.944335938 m 1
 705 469.166992188 l 1
 416.388671875 469.166992188 l 1
 416.388671875 -122.77734375 l 1
 388.611328125 -122.77734375 l 1
 388.611328125 469.166992188 l 1
 100 469.166992188 l 1
 100 496.944335938 l 1
 388.611328125 496.944335938 l 1
 388.611328125 716.666992188 l 1
 416.388671875 716.666992188 l 1
 416.388671875 496.944335938 l 1
 705 496.944335938 l 1
EndSplineSet
Validated: 1
EndChar

StartChar: know.448
Encoding: 448 57442 63
Width: 1051
VWidth: 0
Flags: W
HStem: -125 181.944<344.137 701.111> 688.889 27.7783<418.025 633.087>
VStem: 100 28.0557<272.321 437.024> 923.333 27.7783<272.299 437.908>
LayerCount: 4
Fore
SplineSet
951.111328125 355.555664062 m 0
 951.111328125 213.611328125 853.333007812 90.8330078125 711.944335938 32.22265625 c 1
 711.944335938 -125 l 1
 339.166992188 -125 l 1
 339.166992188 31.6669921875 l 1
 197.778320312 90.5556640625 100 213.333007812 100 355.555664062 c 0
 100 554.72265625 290.833007812 716.666992188 525.555664062 716.666992188 c 0
 760.278320312 716.666992188 951.111328125 554.72265625 951.111328125 355.555664062 c 0
701.111328125 56.9443359375 m 1
 700.833007812 57.5 l 1
 831.111328125 111.666992188 923.333007812 225 923.333007812 355.555664062 c 0
 923.333007812 539.444335938 745 688.888671875 525.555664062 688.888671875 c 0
 306.111328125 688.888671875 127.778320312 539.444335938 128.055664062 355.555664062 c 0
 128.055664062 223.611328125 218.611328125 112.5 350.278320312 56.9443359375 c 2
 701.111328125 56.9443359375 l 1
EndSplineSet
Validated: 33
EndChar

StartChar: hand.544
Encoding: 544 57457 64
Width: 1013
VWidth: 0
Flags: W
HStem: -116.667 27.7783<368.095 810.316> 313.43 26.7627<175.726 265.587> 685.466 31.0996<494.825 669.969>
VStem: 100 29.5996<156.84 270.489> 305.86 27.5654<325.426 509.447> 312.539 27.7773<300.206 419.185>
LayerCount: 4
Fore
SplineSet
810.31640625 -116.666992188 m 5xf8
 361.427734375 -116.666992188 l 6
 357.443359375 -115.103515625 351.345703125 -111.8671875 347.81640625 -109.444335938 c 5
 334.833984375 -99.7197265625 318.158203125 -80.1826171875 310.594726562 -65.8330078125 c 4
 306.963867188 -59.689453125 300.493164062 -50.107421875 296.150390625 -44.4443359375 c 4
 278.90625 -23.064453125 247.669921875 8.419921875 226.427734375 25.8330078125 c 6
 222.81640625 28.888671875 l 6
 189.831054688 52.6181640625 144.907226562 99.41015625 122.5390625 133.333007812 c 4
 110.09765625 153.029296875 100 187.920898438 100 211.216796875 c 4
 100 236.03515625 111.341796875 272.823242188 125.31640625 293.333007812 c 4
 144.825195312 319.200195312 186.951171875 340.192382812 219.349609375 340.192382812 c 4
 234.684570312 340.192382812 258.264648438 334.630859375 271.983398438 327.77734375 c 4
 277.057617188 324.59765625 284.772460938 318.748046875 289.206054688 314.72265625 c 4
 294.997070312 309.630859375 305.450195312 303.03515625 312.5390625 300 c 5
 312.97265625 302.125 313.32421875 305.609375 313.32421875 307.77734375 c 4
 313.32421875 309.946289062 312.97265625 313.430664062 312.5390625 315.555664062 c 4
 312.5390625 318.611328125 312.5390625 321.666992188 312.5390625 324.72265625 c 4xf4
 312.5390625 339.72265625 310.594726562 355.27734375 309.206054688 370 c 4
 307.358398438 384.446289062 305.860351562 407.990234375 305.860351562 422.553710938 c 4
 305.860351562 426.833984375 305.990234375 433.778320312 306.150390625 438.055664062 c 4
 314.483398438 573.888671875 385.594726562 671.388671875 500.594726562 705.27734375 c 4
 522.706054688 711.508789062 559.294921875 716.565429688 582.267578125 716.565429688 c 4
 628.331054688 716.565429688 697.768554688 697.322265625 737.260742188 673.611328125 c 4
 766.680664062 656.60546875 807.623046875 621.138671875 828.650390625 594.444335938 c 4
 900.0390625 503.055664062 926.706054688 378.055664062 907.81640625 223.055664062 c 4
 900.540039062 169.15625 883.615234375 82.6669921875 870.0390625 30 c 4
 868.059570312 19.587890625 866.192382812 2.5390625 865.872070312 -8.0556640625 c 4
 863.372070312 -49.72265625 860.0390625 -101.666992188 811.983398438 -114.444335938 c 6
 810.31640625 -116.666992188 l 5xf8
368.094726562 -88.888671875 m 5
 806.706054688 -88.888671875 l 6
 831.983398438 -81.111328125 834.483398438 -50.5556640625 838.372070312 -8.3330078125 c 4
 838.75390625 3.58984375 840.994140625 22.7548828125 843.372070312 34.4443359375 c 4
 856.720703125 86.2041015625 873.396484375 171.200195312 880.594726562 224.166992188 c 4
 898.372070312 371.666992188 873.650390625 489.72265625 806.983398438 575.27734375 c 4
 787.809570312 599.625976562 750.4765625 631.981445312 723.650390625 647.5 c 4
 687.797851562 668.45703125 624.997070312 685.465820312 583.46875 685.465820312 c 4
 562.510742188 685.465820312 529.1171875 680.901367188 508.927734375 675.27734375 c 4
 403.650390625 644.166992188 342.260742188 558.333007812 333.650390625 433.055664062 c 4
 333.526367188 429.411132812 333.42578125 423.493164062 333.42578125 419.845703125 c 4xf8
 333.42578125 405.875976562 334.895507812 383.295898438 336.706054688 369.444335938 c 4
 338.372070312 353.888671875 339.760742188 338.055664062 340.31640625 321.944335938 c 4
 340.31640625 319.166992188 340.31640625 316.666992188 340.31640625 313.888671875 c 4
 340.856445312 311.271484375 341.293945312 306.977539062 341.293945312 304.3046875 c 4
 341.293945312 296.09765625 337.49609375 283.96484375 332.81640625 277.22265625 c 4
 328.791015625 274.3046875 321.487304688 271.936523438 316.515625 271.936523438 c 4
 315.412109375 271.936523438 313.630859375 272.064453125 312.5390625 272.22265625 c 5
 299.44140625 274.65234375 281.521484375 284.608398438 272.5390625 294.444335938 c 4
 269.158203125 297.494140625 263.30859375 301.974609375 259.483398438 304.444335938 c 4
 249.177734375 309.404296875 231.53125 313.4296875 220.09375 313.4296875 c 4
 195.55859375 313.4296875 163.427734375 297.706054688 148.372070312 278.333007812 c 4
 138.009765625 262.055664062 129.599609375 233.184570312 129.599609375 213.888671875 c 4
 129.599609375 194.592773438 138.009765625 165.721679688 148.372070312 149.444335938 c 4
 168.762695312 117.387695312 209.954101562 72.8369140625 240.31640625 50 c 6
 243.927734375 46.9443359375 l 6
 266.346679688 29.0830078125 299.448242188 -3.2724609375 317.81640625 -25.27734375 c 4
 322.733398438 -31.6015625 330.075195312 -42.3037109375 334.206054688 -49.1669921875 c 4
 339.84765625 -60.43359375 352.291992188 -76.1142578125 361.983398438 -84.1669921875 c 5
 368.094726562 -88.888671875 l 5
EndSplineSet
Validated: 33
EndChar

StartChar: work.640
Encoding: 640 57484 65
Width: 1033
VWidth: 0
Flags: W
HStem: -87.5 27.7773<447.13 586.204> 63.8887 27.7783<100 276.667 756.667 933.334> 238.889 27.7783<272.223 502.778 530.556 761.111>
VStem: 244.163 28.0596<151.142 238.889> 502.778 27.7773<266.667 716.667> 761.111 28.0596<151.142 238.889>
CounterMasks: 1 1c
LayerCount: 4
Fore
SplineSet
933.333984375 91.6669921875 m 1
 933.333984375 63.888671875 l 1
 743.055664062 63.888671875 l 2
 694.166992188 -27.22265625 610.833984375 -87.5 516.666992188 -87.5 c 0
 422.5 -87.5 339.166992188 -27.22265625 290.278320312 63.888671875 c 2
 100 63.888671875 l 1
 100 91.6669921875 l 1
 276.666992188 91.6669921875 l 2
 258.724609375 133.790039062 244.163085938 205.13671875 244.163085938 250.921875 c 0
 244.163085938 251.43359375 244.165039062 252.265625 244.166992188 252.77734375 c 2
 244.166992188 266.666992188 l 1
 502.778320312 266.666992188 l 1
 502.778320312 716.666992188 l 1
 530.555664062 716.666992188 l 1
 530.555664062 266.666992188 l 1
 789.166992188 266.666992188 l 1
 789.166992188 252.77734375 l 2
 789.168945312 252.265625 789.170898438 251.43359375 789.170898438 250.921875 c 0
 789.170898438 205.13671875 774.609375 133.790039062 756.666992188 91.6669921875 c 2
 933.333984375 91.6669921875 l 1
516.666992188 -59.72265625 m 0
 648.055664062 -59.72265625 755.278320312 73.0556640625 761.111328125 238.888671875 c 1
 272.22265625 238.888671875 l 1
 278.055664062 73.0556640625 385.278320312 -59.72265625 516.666992188 -59.72265625 c 0
EndSplineSet
Validated: 1
EndChar

StartChar: good.736
Encoding: 736 57494 66
Width: 1038
VWidth: 0
Flags: W
LayerCount: 4
Fore
SplineSet
414 -84 m 5
 78 246 l 5
 142 312 l 5
 412 64 l 5
 892 672 l 5
 964 622 l 5
 414 -84 l 5
EndSplineSet
Validated: 1
EndChar

StartChar: animal.832
Encoding: 832 57602 67
Width: 1034
VWidth: 75
Flags: W
HStem: 248.333 27.7783<275.279 500 528.057 756.668> 516.111 27.5<204.281 208.283 233.612 500.279 528.057 799.723 825.053 829.172>
VStem: 500 27.7793<-61.1113 248.333 276.111 516.111>
LayerCount: 4
Fore
SplineSet
835.834960938 540.833007812 m 2
 859.3984375 508.692382812 903.576171875 462.150390625 934.4453125 436.944335938 c 2
 916.9453125 415.27734375 l 2
 886.7265625 439.909179688 843.046875 485.08203125 819.4453125 516.111328125 c 2
 528.056640625 516.111328125 l 1
 528.056640625 276.111328125 l 1
 756.66796875 276.111328125 l 1
 756.66796875 248.333007812 l 1
 527.779296875 248.333007812 l 1
 527.779296875 -61.111328125 l 1
 500 -61.111328125 l 1
 500 248.333007812 l 1
 275.279296875 248.333007812 l 1
 275.279296875 276.111328125 l 1
 500.279296875 276.111328125 l 1
 500.279296875 516.111328125 l 1
 213.890625 516.111328125 l 2
 190.576171875 485.13671875 147.39453125 439.962890625 117.5 415.27734375 c 2
 100 436.944335938 l 2
 128.716796875 460.661132812 170.15625 504.092773438 192.5 533.888671875 c 2
 192.5 543.888671875 l 1
 199.4453125 543.888671875 l 2
 219.501953125 571.338867188 246.87890625 618.876953125 260.556640625 650 c 2
 286.112304688 638.888671875 l 2
 274.045898438 611.256835938 250.525390625 568.572265625 233.612304688 543.611328125 c 2
 799.72265625 543.611328125 l 2
 782.823242188 568.499023438 759.302734375 611.05859375 747.22265625 638.611328125 c 2
 772.779296875 649.72265625 l 2
 786.456054688 618.598632812 813.833984375 571.061523438 833.890625 543.611328125 c 2
 835.834960938 543.611328125 l 1
 835.834960938 540.833007812 l 2
EndSplineSet
Validated: 1
EndChar

StartChar: thing.928
Encoding: 928 57605 68
Width: 1024
VWidth: 0
Flags: W
HStem: -61.5557 39.8887<154.057 884.611>
LayerCount: 4
Fore
SplineSet
959.666015625 -67.5556640625 m 5
 77.666015625 -61.5556640625 l 5
 515.666015625 744.444335938 l 5
 959.666015625 -67.5556640625 l 5
154.056640625 -21.6669921875 m 5
 884.611328125 -21.6669921875 l 5
 516 645 l 5
 154.056640625 -21.6669921875 l 5
EndSplineSet
Validated: 1
EndChar

StartChar: person.1024
Encoding: 1024 57631 69
Width: 1015
VWidth: 0
Flags: W
VStem: 443.757 41.3389<529.033 726.453>
LayerCount: 4
Fore
SplineSet
458.072265625 366.096679688 m 6
 508.62890625 180.470703125 644.508789062 31.91015625 891.612304688 -92.927734375 c 5
 876.047851562 -130.646484375 l 5
 634.340820312 -8.1806640625 487.212890625 138.600585938 427 318 c 5
 370.298828125 158.732421875 210.48046875 -40.5341796875 70.2607421875 -126.791992188 c 5
 44.982421875 -88.658203125 l 5
 322.193359375 89.2587890625 455.40234375 355.658203125 443.756835938 726.912109375 c 5
 484.088867188 726.022460938 l 6
 484.635742188 726.010742188 485.095703125 691.1953125 485.095703125 677.91015625 c 4
 485.095703125 587.508789062 458.072265625 366.096679688 458.072265625 366.096679688 c 6
EndSplineSet
Validated: 33
EndChar

StartChar: land.1120
Encoding: 1120 57683 70
Width: 1022
VWidth: 0
Flags: W
HStem: -125.833 27.7773<100 502.777 530.555 922.777> 494.444 27.7783<211.111 502.777 530.555 822.222>
VStem: 502.777 27.7773<-98.0557 494.444 522.223 716.667>
LayerCount: 4
Fore
SplineSet
530.5546875 -98.0556640625 m 1
 922.77734375 -98.0556640625 l 1
 922.77734375 -125.833007812 l 1
 100 -125.833007812 l 1
 100 -98.0556640625 l 1
 502.77734375 -98.0556640625 l 1
 502.77734375 494.444335938 l 1
 211.111328125 494.444335938 l 1
 211.111328125 522.22265625 l 1
 502.77734375 522.22265625 l 1
 502.77734375 716.666992188 l 1
 530.5546875 716.666992188 l 1
 530.5546875 522.22265625 l 1
 822.221679688 522.22265625 l 1
 822.221679688 494.444335938 l 1
 530.5546875 494.444335938 l 1
 530.5546875 -98.0556640625 l 1
EndSplineSet
Validated: 1
EndChar

StartChar: sun.1216
Encoding: 1216 57695 71
Width: 1033
VWidth: 0
Flags: W
HStem: -116.659 27.7695<422.605 610.727> 244.444 111.111<470.461 557.873> 688.881 27.7871<420.669 613.818>
VStem: 100 27.7783<204.665 395.357> 458.611 111.111<256.294 343.706> 905.556 27.7783<204.394 395.606>
LayerCount: 4
Fore
SplineSet
1425 486 m 1052,0,-1
514.166992188 716.666992188 m 0,1,-1
 514.397460938 716.666992188 514.772460938 716.66796875 515.00390625 716.66796875 c 0,4,-1
 745.005859375 716.66796875 932.41796875 530 933.333984375 300 c 0,7,-1
 933.329101562 70.00390625 746.663085938 -116.659179688 516.666992188 -116.659179688 c 0,10,-1
 286.666992188 -116.659179688 100 70.0078125 100 300.0078125 c 0,13,-1
 100 528.631835938 285.546875 715.294921875 514.166992188 716.666992188 c 0,1,-1
514.166992188 -88.888671875 m 0,16,-1
 514.3984375 -88.8896484375 514.772460938 -88.8896484375 515.00390625 -88.8896484375 c 0,19,-1
 729.672851562 -88.8896484375 904.640625 85.3330078125 905.555664062 300 c 0,22,-1
 905.551757812 514.662109375 731.329101562 688.880859375 516.666992188 688.880859375 c 0,25,-1
 302 688.880859375 127.778320312 514.658203125 127.778320312 299.9921875 c 0,28,-1
 127.778320312 86.701171875 300.879882812 -87.517578125 514.166992188 -88.888671875 c 0,16,-1
458.611328125 300 m 0,31,-1
 458.611328125 330.682617188 483.484375 355.555664062 514.166992188 355.555664062 c 0,34,-1
 544.849609375 355.555664062 569.72265625 330.682617188 569.72265625 300 c 0,37,-1
 569.72265625 269.317382812 544.849609375 244.444335938 514.166992188 244.444335938 c 0,40,-1
 483.484375 244.444335938 458.611328125 269.317382812 458.611328125 300 c 0,31,-1
EndSplineSet
Validated: 1
EndChar

StartChar: me.1312
Encoding: 1312 57702 72
Width: 1036
VWidth: 0
Flags: W
HStem: 75.1631 28.1689<723.612 791.472> 469.723 27.7773<100 619.168 652.72 738.891>
VStem: 513.297 27.2598<219.208 353.194> 907.779 28.2949<219.639 354.248>
LayerCount: 4
Fore
SplineSet
738.890625 497.5 m 1
 738.334960938 497.5 l 2
 847.487304688 490.4375 936.07421875 395.932617188 936.07421875 286.551757812 c 0
 936.07421875 169.865234375 841.37109375 75.1630859375 724.685546875 75.1630859375 c 0
 607.999023438 75.1630859375 513.296875 169.865234375 513.296875 286.551757812 c 0
 513.296875 353.99609375 560.7265625 436.056640625 619.16796875 469.72265625 c 2
 100 469.72265625 l 1
 100 497.5 l 1
 738.890625 497.5 l 1
724.16796875 103.333007812 m 2
 723.612304688 103.333007812 l 2
 723.765625 103.333007812 724.014648438 103.33203125 724.16796875 103.33203125 c 0
 825.521484375 103.33203125 907.779296875 185.58984375 907.779296875 286.943359375 c 0
 907.779296875 286.943359375 907.779296875 286.944335938 907.779296875 286.944335938 c 0
 907.779296875 388.297851562 825.521484375 470.555664062 724.16796875 470.555664062 c 0
 622.814453125 470.555664062 540.556640625 388.297851562 540.556640625 286.944335938 c 0
 540.556640625 185.590820312 622.814453125 103.333007812 724.16796875 103.333007812 c 2
EndSplineSet
Validated: 5
EndChar

StartChar: time.1408
Encoding: 1408 57706 73
Width: 1033
VWidth: 0
Flags: W
HStem: -125 27.7773<100 150 186.111 846.39 883.89 933.334> 688.889 27.7783<100 143.056 180.278 833.611 868.056 933.334>
LayerCount: 4
Fore
SplineSet
933.333984375 716.666992188 m 1
 933.333984375 685.833007812 l 1
 868.055664062 685.833007812 l 1
 869.444335938 685.833007812 l 1
 530.278320312 296.944335938 l 1
 883.889648438 -97.22265625 l 1
 933.333984375 -97.22265625 l 1
 933.333984375 -125 l 1
 100 -125 l 1
 100 -97.22265625 l 1
 150 -97.22265625 l 1
 493.055664062 297.77734375 l 1
 143.055664062 688.888671875 l 1
 100 688.888671875 l 1
 100 716.666992188 l 1
 933.333984375 716.666992188 l 1
846.389648438 -97.22265625 m 1
 511.666992188 275.833007812 l 1
 186.111328125 -97.22265625 l 1
 846.389648438 -97.22265625 l 1
511.389648438 319.444335938 m 1
 833.611328125 688.888671875 l 1
 180.278320312 688.888671875 l 1
 511.389648438 319.444335938 l 1
EndSplineSet
Validated: 5
EndChar

StartChar: house.1504
Encoding: 1504 57713 74
Width: 1036
VWidth: 0
Flags: W
HStem: 107.223 27.7773<127.777 908.889> 237 28.125<654.087 734.892>
VStem: 100 27.7773<-116.667 107.223> 908.889 27.7773<-110.556 107.223>
LayerCount: 4
Fore
SplineSet
100 135 m 1
 936.666015625 135 l 1
 936.666015625 -110.555664062 l 1
 908.888671875 -110.555664062 l 1
 908.888671875 107.22265625 l 1
 127.77734375 107.22265625 l 1
 127.77734375 -116.666992188 l 1
 100 -116.666992188 l 1
 100 135 l 1
735 237 m 6
 643.247070312 244.293945312 505.274414062 289.543945312 427.021484375 338.002929688 c 6
 439.5390625 362.016601562 l 6
 514.584960938 315.55078125 646.903320312 272.142578125 734.891601562 265.125 c 6
 735 237 l 6
EndSplineSet
Validated: 1
EndChar

StartChar: no.1600
Encoding: 1600 57724 75
Width: 993
VWidth: 0
Flags: W
LayerCount: 4
Fore
SplineSet
893.888671875 677.5 m 5
 530 310 l 5
 926 -54 l 5
 874.444335938 -96.9443359375 l 5
 478 268 l 5
 119.444335938 -96.9443359375 l 5
 82 -56 l 5
 436 304 l 5
 88 666 l 5
 134 710 l 5
 486 360 l 5
 854 712 l 5
 893.888671875 677.5 l 5
EndSplineSet
Validated: 1
EndChar

StartChar: many.1696
Encoding: 1696 57752 76
Width: 1036
VWidth: 0
Flags: W
HStem: -33.1152 28.123<719.244 825.672> 625 27.2227<214.526 645.001>
VStem: 177.779 28.8887<235.56 613.796> 909.168 27.7773<92.4446 122.583>
LayerCount: 4
Fore
SplineSet
126.388671875 -51.9443359375 m 1
 100 -43.0556640625 l 1
 135.380859375 63.3037109375 170.224609375 240.387695312 177.779296875 352.22265625 c 0
 179.556640625 380.0625 181.001953125 425.297851562 181.001953125 453.194335938 c 0
 181.001953125 481.090820312 179.556640625 526.327148438 177.779296875 554.166992188 c 0
 175.556640625 590.27734375 177.779296875 616.111328125 192.779296875 632.5 c 0
 207.779296875 648.888671875 233.333984375 652.22265625 271.388671875 652.22265625 c 2
 684.723632812 652.22265625 l 1
 677.779296875 633.333007812 l 2
 538.888671875 234.444335938 642.779296875 77.77734375 677.779296875 40 c 0
 697.9375 15.1640625 740.2578125 -4.9921875 772.244140625 -4.9921875 c 0
 779.450195312 -4.9921875 791.013671875 -3.7509765625 798.056640625 -2.22265625 c 0
 849.16796875 10.5556640625 890.279296875 59.1669921875 909.16796875 127.77734375 c 2
 936.9453125 120.833007812 l 2
 916.66796875 42.22265625 868.056640625 -13.888671875 806.66796875 -29.1669921875 c 0
 797.40234375 -31.345703125 782.158203125 -33.115234375 772.638671875 -33.115234375 c 0
 733.403320312 -33.115234375 681.572265625 -8.32421875 656.9453125 22.22265625 c 0
 558.611328125 129.72265625 554.4453125 354.166992188 645.000976562 625 c 1
 272.779296875 625 l 2
 238.056640625 625 221.66796875 621.944335938 214.16796875 614.166992188 c 0
 206.66796875 606.388671875 204.723632812 589.72265625 206.66796875 556.666992188 c 0
 208.470703125 528.329101562 209.935546875 482.284179688 209.935546875 453.888671875 c 0
 209.935546875 425.493164062 208.470703125 379.44921875 206.66796875 351.111328125 c 0
 198.720703125 237.037109375 162.755859375 56.46875 126.388671875 -51.9443359375 c 1
EndSplineSet
Validated: 33
EndChar

StartChar: small.1792
Encoding: 1792 57755 77
Width: 1034
VWidth: 0
Flags: W
HStem: 72 59.3887<100 906.944> 468.611 59.3887<100 906.944>
VStem: 906.944 93.0557<131.389 466.25> 906.944 85.0557<131.389 468.611>
LayerCount: 4
Fore
SplineSet
1000 69 m 1xe0
 100 72 l 1
 100 131.388671875 l 1
 906.944335938 131.388671875 l 1xe0
 906.944335938 468.611328125 l 1
 100 468.611328125 l 1
 100 528 l 1
 992 523 l 1xd0
 1000 69 l 1xe0
EndSplineSet
Validated: 1
EndChar

StartChar: face.1888
Encoding: 1888 57859 78
Width: 1036
VWidth: 0
Flags: W
HStem: -43.333 27.7773<407.771 628.895> 611.944 27.7783<407.771 628.895>
VStem: 100 27.7773<220.505 375.882> 293.056 27.7773<247.271 276.61> 716.11 27.7783<255.593 276.96> 908.889 27.7773<220.507 375.884>
LayerCount: 4
Fore
SplineSet
518.333007812 639.72265625 m 0
 748.888671875 639.72265625 936.666015625 486.666992188 936.666015625 298.333007812 c 0
 936.666015625 110 748.888671875 -43.3330078125 518.333007812 -43.3330078125 c 0
 287.77734375 -43.3330078125 100 109.72265625 100 298.055664062 c 0
 100 486.388671875 287.77734375 639.72265625 518.333007812 639.72265625 c 0
518.333007812 -15.5556640625 m 0
 733.610351562 -15.5556640625 908.888671875 125 908.888671875 298.055664062 c 0
 908.888671875 471.111328125 733.610351562 611.944335938 518.333007812 611.944335938 c 0
 303.055664062 611.944335938 127.77734375 471.388671875 127.77734375 298.333007812 c 0
 127.77734375 125.27734375 303.055664062 -15.5556640625 518.333007812 -15.5556640625 c 0
320.833007812 281.388671875 m 1
 293.055664062 275 l 1
 347.771484375 52.07421875 684.544921875 61.609375 743.888671875 275 c 1
 716.110351562 282.77734375 l 1
 663.125 95.3935546875 371.377929688 86.7529296875 320.833007812 281.388671875 c 1
EndSplineSet
Validated: 41
EndChar

StartChar: man.0
Encoding: 0 57344 81
Width: 872
VWidth: 0
Flags: W
HStem: -129 63<44 545> 525 42.2227<257.445 466.056> 654 61.5557<68 539>
VStem: 545 54.667<-66 195.277 399.444 654>
LayerCount: 4
Fore
SplineSet
599.666992188 399.444335938 m 1
 710 295 l 1
 599.666992188 195.27734375 l 1
 605 -132 l 1
 44 -129 l 1
 38 -66 l 1
 545 -66 l 1
 545 240 l 1
 622 295 l 1
 545 360 l 1
 539 654 l 1
 62 654 l 1
 68 715.555664062 l 1
 599.666992188 715.555664062 l 1
 599.666992188 399.444335938 l 1
256 525 m 1
 257.4453125 567.22265625 l 1
 466.055664062 567.22265625 l 1
 468 527 l 1
 256 525 l 1
EndSplineSet
Validated: 1
EndChar

StartChar: woman.8
Encoding: 8 57352 89
Width: 991
VWidth: 0
Flags: W
HStem: 325.223 27.7773<765.99 809.222> 364.111 27.7773<786.935 812>
VStem: 192.556 46.4443<-88 -38.5 378 598> 656.444 27.7773<508.428 666.889>
LayerCount: 4
Fore
SplineSet
192.555664062 378 m 5
 74 269 l 5
 192.555664062 172.444335938 l 5
 192.555664062 -138.666992188 l 5
 723.111328125 -138.666992188 l 5
 722 -82 l 5
 239 -88 l 5
 233 209 l 5
 152 265 l 5
 245 353 l 5
 248 668 l 5
 670.333007812 666.888671875 l 5
 656.444335938 666.888671875 l 5
 659.221679688 461.333007812 703.666992188 380.77734375 742.555664062 347.444335938 c 4
 759.221679688 333.555664062 781.444335938 325.22265625 800.888671875 325.22265625 c 4
 803.666992188 325.22265625 809.221679688 325.22265625 812 325.22265625 c 6
 809.221679688 353 l 6
 798.111328125 353 781.444335938 353 762 369.666992188 c 4
 731.444335938 391.888671875 684.221679688 464.111328125 684.221679688 666.888671875 c 5
 695.333007812 666.888671875 l 5
 712 439.111328125 739.77734375 366.888671875 812 364.111328125 c 6
 812 391.888671875 l 6
 773.111328125 394.666992188 749.130859375 455.125 723.111328125 675.22265625 c 6
 719 710 l 5
 197 713 l 5
 192.555664062 378 l 5
534.221679688 516.888671875 m 5
 534.221679688 544.666992188 l 5
 325.888671875 544.666992188 l 5
 325.888671875 516.888671875 l 5
 534.221679688 516.888671875 l 5
EndSplineSet
Validated: 9
EndChar

StartChar: girl.9
Encoding: 9 57353 90
Width: 972
VWidth: 0
Flags: W
HStem: -108.015 30.089<47.8627 328.911> 92.9259 30.089<47.8627 328.911> 286.249 26.8187<857.601 886.837> 323.795 26.8187<871.765 888.715>
VStem: 328.911 29.6238<-77.9263 92.9259> 328.911 32.4101<-77.9263 91.7297> 469.817 31.4079<-112.713 -64.9217 337.205 549.613> 783.521 18.7844<463.132 616.124>
LayerCount: 4
Back
SplineSet
815.321289062 -21.53515625 m 1xe0
 501.862304688 -20.015625 l 1
 501.862304688 10.0732421875 l 1
 782.911132812 10.0732421875 l 1xe0
 782.911132812 180.92578125 l 1
 501.862304688 180.92578125 l 1
 501.862304688 211.014648438 l 1
 812.53515625 208.481445312 l 1xd0
 815.321289062 -21.53515625 l 1xe0
109.81640625 341.205078125 m 5
 29.6435546875 235.966796875 l 5
 109.81640625 142.743164062 l 5
 109.81640625 -157.631835938 l 5
 468.604492188 -157.631835938 l 5
 467.852539062 -102.920898438 l 5
 141.224609375 -108.713867188 l 5
 137.166992188 178.037109375 l 5
 82.390625 232.104492188 l 5
 145.282226562 317.067382812 l 5
 147.310546875 621.197265625 l 5
 432.913085938 620.124023438 l 5
 423.520507812 620.124023438 l 5
 425.399414062 421.662109375 455.455078125 343.88671875 481.75390625 311.704101562 c 4
 493.0234375 298.293945312 508.051757812 290.249023438 521.201171875 290.249023438 c 4
 523.080078125 290.249023438 526.8359375 290.249023438 528.71484375 290.249023438 c 6
 526.8359375 317.067382812 l 6
 519.323242188 317.067382812 508.051757812 317.067382812 494.90234375 333.159179688 c 4
 474.239257812 354.614257812 442.305664062 424.344726562 442.305664062 620.124023438 c 5
 449.819335938 620.124023438 l 5
 461.08984375 400.20703125 479.875 330.4765625 528.71484375 327.795898438 c 6
 528.71484375 354.614257812 l 6
 502.416992188 357.296875 486.200195312 415.66796875 468.604492188 628.170898438 c 6
 465.82421875 661.748046875 l 5
 112.822265625 664.64453125 l 5
 109.81640625 341.205078125 l 5
340.868164062 475.30078125 m 5
 340.868164062 502.120117188 l 5
 199.982421875 502.120117188 l 5
 199.982421875 475.30078125 l 5
 340.868164062 475.30078125 l 5
EndSplineSet
Fore
Refer: 77 57755 S 0.348287 0 0 0.506646 13.034 -144.494 2
Refer: 89 57352 N 0.676249 0 0 0.96549 339.601 -27.7503 2
Validated: 9
EndChar

StartChar: girls.10
Encoding: 10 57354 91
Width: 1137
VWidth: 0
Flags: W
HStem: -57.855 29.7868<83.4503 390.6> 141.068 29.7868<83.4503 390.6> 219.259 31.45<82.8755 384.225> 315.555 29.1145<1017.03 1048.95> 356.315 29.1145<1032.49 1051> 429.29 31.45<82.8755 384.225>
VStem: 384.225 31.7636<250.71 429.29> 384.225 34.7512<250.71 428.039> 390.6 32.375<-28.0681 141.068> 390.6 35.4201<-28.0681 139.883> 593.66 34.2901<-117.561 -65.6778 370.873 601.463> 936.152 20.5081<507.579 673.669>
LayerCount: 4
Back
SplineSet
921.01953125 -98.359375 m 1xe0
 578.450195312 -96.8544921875 l 1
 578.450195312 -67.068359375 l 1
 885.599609375 -67.068359375 l 1xe0
 885.599609375 102.067382812 l 1
 578.450195312 102.067382812 l 1
 578.450195312 131.854492188 l 1
 917.974609375 129.346679688 l 1xd0
 921.01953125 -98.359375 l 1xe0
913.975585938 157.670898438 m 1xe0
 577.875976562 159.259765625 l 1
 577.875976562 190.708984375 l 1
 879.224609375 190.708984375 l 1xe0
 879.224609375 369.290039062 l 1
 577.875976562 369.290039062 l 1
 577.875976562 400.739257812 l 1
 910.98828125 398.091796875 l 1xd0
 913.975585938 157.670898438 l 1xe0
141.116210938 352 m 5
 65.1298828125 243 l 5
 141.116210938 146.444335938 l 5
 141.116210938 -164.666992188 l 5
 481.166992188 -164.666992188 l 5
 480.455078125 -108 l 5
 170.883789062 -114 l 5
 167.038085938 183 l 5
 115.123046875 239 l 5
 174.729492188 327 l 5
 176.65234375 642 l 5
 447.33984375 640.888671875 l 5
 438.4375 640.888671875 l 5
 440.217773438 435.333007812 468.704101562 354.77734375 493.629882812 321.444335938 c 4
 504.311523438 307.555664062 518.5546875 299.22265625 531.016601562 299.22265625 c 4
 532.797851562 299.22265625 536.357421875 299.22265625 538.138671875 299.22265625 c 6
 536.357421875 327 l 6
 529.237304688 327 518.5546875 327 506.091796875 343.666992188 c 4
 486.5078125 365.888671875 456.241210938 438.111328125 456.241210938 640.888671875 c 5
 463.36328125 640.888671875 l 5
 474.044921875 413.111328125 491.848632812 340.888671875 538.138671875 338.111328125 c 6
 538.138671875 365.888671875 l 6
 513.213867188 368.666992188 497.84375 429.125 481.166992188 649.22265625 c 6
 478.532226562 684 l 5
 143.96484375 687 l 5
 141.116210938 352 l 5
360.1015625 490.888671875 m 5
 360.1015625 518.666992188 l 5
 226.57421875 518.666992188 l 5
 226.57421875 490.888671875 l 5
 360.1015625 490.888671875 l 5
EndSplineSet
Fore
Refer: 77 57755 N 0.380633 0 0 0.501556 45.387 -93.967 2
Refer: 77 57755 S 0.373445 0 0 0.529562 45.531 181.131 2
Refer: 89 57352 N 0.738306 0 0 1.04814 451.495 -25.3244 2
Validated: 9
EndChar

StartChar: daughter.12
Encoding: 12 57356 93
Width: 1179
VWidth: 0
Flags: W
HStem: -74.6087 16.8374<839.929 853.871> 97.571 31.1071<76.4647 363.581> 305.311 31.1071<76.4647 363.581> 313.114 30.1489<1073.03 1108.71> 322.023 15.8139<748.977 801.204 893.886 944.442> 355.322 30.1489<1090.32 1111>
VStem: 363.581 30.2634<128.678 305.311> 363.581 33.1099<128.678 304.074> 599.859 38.324<-135.39 -81.6636 370.397 609.181> 693.468 9.71594<171.093 252.041> 982.641 22.9207<511.961 683.951> 990.219 10.2091<170.552 253.316>
LayerCount: 4
Back
SplineSet
990.69140625 66 m 1xe0
 670.46484375 67.5712890625 l 1
 670.46484375 98.677734375 l 1
 957.581054688 98.677734375 l 1xe0
 957.581054688 275.311523438 l 1
 670.46484375 275.311523438 l 1
 670.46484375 306.41796875 l 1
 987.844726562 303.799804688 l 1xd0
 990.69140625 66 l 1xe0
354.513671875 -28.033203125 m 0
 354.557617188 -28.0341796875 354.627929688 -28.03515625 354.670898438 -28.03515625 c 0
 357.822265625 -28.03515625 362.178710938 -25.1083984375 364.393554688 -21.50390625 c 2
 457.828125 123.928710938 l 2
 459.065429688 125.579101562 460.967773438 128.4375 462.075195312 130.30859375 c 0
 464.014648438 133.424804688 466.784179688 138.767578125 470.662109375 146.6328125 c 0
 473.846679688 153.037109375 478.5625 163.940429688 481.186523438 170.970703125 c 0
 484.079101562 179.001953125 487.842773438 192.697265625 489.588867188 201.541992188 c 0
 491.475585938 210.924804688 493.006835938 226.543945312 493.006835938 236.405273438 c 0
 493.006835938 236.612304688 493.005859375 236.94921875 493.004882812 237.157226562 c 0
 493.069335938 238.9921875 493.12109375 241.973632812 493.12109375 243.811523438 c 0
 493.12109375 269.857421875 484.09375 306.366210938 472.970703125 325.306640625 c 0
 460.844726562 343 437.712890625 357.360351562 421.3359375 357.360351562 c 0
 420.296875 357.360351562 418.611328125 357.293945312 417.573242188 357.212890625 c 0
 411.790039062 357.1640625 402.6484375 354.705078125 397.168945312 351.721679688 c 0
 391.588867188 348.72265625 383.068359375 342.07421875 378.150390625 336.881835938 c 0
 372.518554688 330.946289062 367.625 325.306640625 363.469726562 319.963867188 c 0
 359.315429688 314.62109375 357.74609375 312.247070312 354.9765625 308.092773438 c 0
 352.20703125 312.247070312 349.436523438 316.10546875 346.481445312 319.963867188 c 0
 343.52734375 323.823242188 337.249023438 330.946289062 331.801757812 336.881835938 c 0
 326.883789062 342.077148438 318.364257812 348.724609375 312.782226562 351.721679688 c 0
 307.197265625 354.940429688 297.849609375 357.666015625 291.916992188 357.805664062 c 0
 290.87890625 357.888671875 289.193359375 357.954101562 288.154296875 357.954101562 c 0
 271.778320312 357.954101562 248.645507812 343.594726562 236.520507812 325.900390625 c 0
 225.145507812 306.875976562 215.913085938 270.022460938 215.913085938 243.63671875 c 0
 215.913085938 241.846679688 215.962890625 238.943359375 216.0234375 237.157226562 c 0
 216.0234375 199.759765625 228.026367188 161.62109375 251.662109375 123.630859375 c 2
 344.727539062 -21.05859375 l 2
 346.915039062 -24.8466796875 351.298828125 -27.9716796875 354.513671875 -28.033203125 c 0
417.112304688 342.965820312 m 0
 418.110351562 343.051757812 419.732421875 343.12109375 420.731445312 343.12109375 c 0
 435.26171875 343.12109375 455.768554688 330.353515625 466.5078125 314.62109375 c 0
 476.109375 298.096679688 483.901367188 266.33203125 483.901367188 243.720703125 c 0
 483.901367188 241.907226562 483.84375 238.966796875 483.772460938 237.157226562 c 0
 483.70703125 228.400390625 482.217773438 214.572265625 480.448242188 206.290039062 c 0
 478.874023438 198.306640625 475.482421875 185.940429688 472.877929688 178.6875 c 0
 470.510742188 172.142578125 466.25 161.970703125 463.368164062 155.982421875 c 0
 459.674804688 148.5625 456.998046875 143.516601562 455.3359375 141.142578125 c 0
 454.373046875 139.491210938 452.717773438 136.96484375 451.642578125 135.50390625 c 2
 357.837890625 -9.9287109375 l 2
 357.083007812 -11.2255859375 355.573242188 -12.27734375 354.46875 -12.27734375 c 0
 353.36328125 -12.27734375 351.853515625 -11.2255859375 351.098632812 -9.9287109375 c 2
 257.663085938 134.612304688 l 2
 235.874023438 169.635742188 224.794921875 204.361328125 224.794921875 237.602539062 c 0
 224.736328125 239.249023438 224.688476562 241.923828125 224.688476562 243.57421875 c 0
 224.688476562 266.4453125 232.63671875 298.473632812 242.428710938 315.06640625 c 0
 253.1328125 330.571289062 273.513671875 343.155273438 287.921875 343.155273438 c 0
 289.025390625 343.155273438 290.815429688 343.0703125 291.916992188 342.965820312 c 0
 296.864257812 342.908203125 304.682617188 340.780273438 309.366210938 338.216796875 c 0
 314.322265625 335.591796875 321.892578125 329.7421875 326.26171875 325.158203125 c 0
 331.6171875 319.518554688 336.325195312 314.028320312 340.203125 309.130859375 c 0
 343.422851562 304.822265625 348.38671875 297.375976562 351.283203125 292.509765625 c 2
 354.513671875 287.315429688 l 1
 357.74609375 292.509765625 l 2
 360.626953125 297.1640625 365.548828125 304.27734375 368.732421875 308.388671875 c 0
 372.610351562 313.434570312 377.319335938 318.776367188 382.674804688 324.416015625 c 0
 387.044921875 328.997070312 394.615234375 334.84765625 399.5703125 337.474609375 c 0
 404.256835938 340.262695312 412.116210938 342.72265625 417.112304688 342.965820312 c 0
131.376953125 388.426757812 m 5
 43.03125 277.708984375 l 5
 131.376953125 179.631835938 l 5
 131.376953125 -136.3828125 l 5
 526.737304688 -136.3828125 l 5
 525.908203125 -78.8232421875 l 5
 165.986328125 -84.9169921875 l 5
 161.515625 216.763671875 l 5
 101.155273438 273.645507812 l 5
 170.45703125 363.032226562 l 5
 172.693359375 682.997070312 l 5
 487.407226562 681.868164062 l 5
 477.057617188 681.868164062 l 5
 479.127929688 473.073242188 512.247070312 391.248046875 541.2265625 357.389648438 c 4
 553.645507812 343.282226562 570.205078125 334.817382812 584.6953125 334.817382812 c 4
 586.765625 334.817382812 590.904296875 334.817382812 592.974609375 334.817382812 c 6
 590.904296875 363.032226562 l 6
 582.625 363.032226562 570.205078125 363.032226562 555.715820312 379.961914062 c 4
 532.946289062 402.534179688 497.756835938 475.895507812 497.756835938 681.868164062 c 5
 506.037109375 681.868164062 l 5
 518.45703125 450.500976562 539.15625 377.140625 592.974609375 374.319335938 c 6
 592.974609375 402.534179688 l 6
 563.99609375 405.356445312 546.125976562 466.767578125 526.737304688 690.333984375 c 6
 523.672851562 725.659179688 l 5
 134.688476562 728.706054688 l 5
 131.376953125 388.426757812 l 5
385.979492188 529.50390625 m 5
 385.979492188 557.720703125 l 5
 230.734375 557.720703125 l 5
 230.734375 529.50390625 l 5
 385.979492188 529.50390625 l 5
EndSplineSet
Fore
Refer: 77 57755 N 0.355807 0 0 0.523788 40.884 59.8583 2
Refer: 92 57355 N 0.825161 0 0 1.08538 440.969 -39.8765 2
Validated: 9
EndChar

StartChar: daughters.13
Encoding: 13 57357 94
Width: 1216
VWidth: 0
Flags: W
HStem: -7.3862 31.9482<72.1757 404.658> -7 15.5129<794.397 807.434> 205.971 31.9482<72.1757 404.658> 328.823 30.3916<90.8883 412.539> 350.223 27.7773<1012.37 1045.73> 358.431 14.5699<709.348 758.185 844.851 892.126> 389.111 27.7773<1028.53 1047.87> 531.785 30.3916<90.8883 412.539>
VStem: 404.658 35.0452<24.5621 205.971> 404.658 38.3415<24.5621 204.701> 412.539 33.9035<359.215 531.785> 412.539 37.0923<359.215 530.577> 569.908 35.8366<-63 -13.5 403 623> 657.442 9.08533<219.374 293.954> 927.846 21.4331<533.428 691.889> 934.932 9.54652<218.875 295.129>
LayerCount: 4
Back
SplineSet
1142.15332031 5.9013671875 m 1xe0
 780.17578125 7.4697265625 l 1
 780.17578125 38.525390625 l 1
 1104.7265625 38.525390625 l 1xe0
 1104.7265625 214.86328125 l 1
 780.17578125 214.86328125 l 1
 780.17578125 245.918945312 l 1
 1138.93554688 243.3046875 l 1xd0
 1142.15332031 5.9013671875 l 1xe0
1133.63085938 318.288085938 m 1xe0
 774.888671875 319.823242188 l 1
 774.888671875 350.21484375 l 1
 1096.5390625 350.21484375 l 1xe0
 1096.5390625 522.78515625 l 1
 774.888671875 522.78515625 l 1
 774.888671875 553.176757812 l 1
 1130.44238281 550.618164062 l 1xd0
 1133.63085938 318.288085938 l 1xe0
389.95703125 -18.998046875 m 0
 390.001953125 -18.9990234375 390.07421875 -19 390.119140625 -19 c 0
 393.3828125 -19 397.893554688 -16.119140625 400.186523438 -12.5703125 c 2
 496.934570312 130.60546875 l 2
 498.21484375 132.23046875 500.184570312 135.044921875 501.333007812 136.88671875 c 0
 503.33984375 139.955078125 506.208007812 145.21484375 510.223632812 152.958007812 c 0
 513.521484375 159.262695312 518.404296875 169.997070312 521.12109375 176.91796875 c 0
 524.116210938 184.82421875 528.013671875 198.307617188 529.821289062 207.014648438 c 0
 531.774414062 216.251953125 533.360351562 231.62890625 533.360351562 241.336914062 c 0
 533.360351562 241.541015625 533.359375 241.873046875 533.358398438 242.077148438 c 0
 533.424804688 243.883789062 533.478515625 246.819335938 533.478515625 248.62890625 c 0
 533.478515625 274.270507812 524.130859375 310.212890625 512.61328125 328.859375 c 0
 500.057617188 346.278320312 476.10546875 360.416015625 459.1484375 360.416015625 c 0
 458.072265625 360.416015625 456.327148438 360.350585938 455.252929688 360.270507812 c 0
 449.263671875 360.22265625 439.797851562 357.801757812 434.125 354.864257812 c 0
 428.346679688 351.912109375 419.5234375 345.3671875 414.431640625 340.254882812 c 0
 408.599609375 334.411132812 403.532226562 328.859375 399.23046875 323.599609375 c 0
 394.928710938 318.33984375 393.303710938 316.001953125 390.435546875 311.912109375 c 0
 387.567382812 316.001953125 384.700195312 319.80078125 381.639648438 323.599609375 c 0
 378.580078125 327.3984375 372.080078125 334.411132812 366.439453125 340.254882812 c 0
 361.34765625 345.369140625 352.525390625 351.9140625 346.74609375 354.864257812 c 0
 340.962890625 358.033203125 331.283203125 360.716796875 325.140625 360.854492188 c 0
 324.065429688 360.935546875 322.3203125 361 321.244140625 361 c 0
 304.287109375 361 280.333984375 346.86328125 267.779296875 329.443359375 c 0
 256.000976562 310.71484375 246.44140625 274.432617188 246.44140625 248.456054688 c 0
 246.44140625 246.694335938 246.493164062 243.8359375 246.555664062 242.077148438 c 0
 246.555664062 205.260742188 258.984375 167.713867188 283.458007812 130.3125 c 2
 379.82421875 -12.1318359375 l 2
 382.087890625 -15.861328125 386.627929688 -18.9375 389.95703125 -18.998046875 c 0
454.775390625 346.244140625 m 0
 455.80859375 346.329101562 457.48828125 346.397460938 458.522460938 346.397460938 c 0
 473.567382812 346.397460938 494.801757812 333.828125 505.921875 318.33984375 c 0
 515.86328125 302.071289062 523.932617188 270.799804688 523.932617188 248.5390625 c 0
 523.932617188 246.75390625 523.873046875 243.859375 523.798828125 242.077148438 c 0
 523.731445312 233.45703125 522.189453125 219.842773438 520.356445312 211.689453125 c 0
 518.7265625 203.830078125 515.21484375 191.655273438 512.517578125 184.514648438 c 0
 510.06640625 178.071289062 505.655273438 168.057617188 502.670898438 162.162109375 c 0
 498.846679688 154.857421875 496.07421875 149.889648438 494.353515625 147.552734375 c 0
 493.356445312 145.926757812 491.643554688 143.439453125 490.529296875 142.000976562 c 2
 393.399414062 -1.1748046875 l 2
 392.6171875 -2.451171875 391.053710938 -3.4873046875 389.91015625 -3.4873046875 c 0
 388.764648438 -3.4873046875 387.202148438 -2.451171875 386.419921875 -1.1748046875 c 2
 289.671875 141.124023438 l 2
 267.110351562 175.603515625 255.638671875 209.790039062 255.638671875 242.515625 c 0
 255.577148438 244.13671875 255.52734375 246.770507812 255.52734375 248.39453125 c 0
 255.52734375 270.911132812 263.7578125 302.442382812 273.897460938 318.778320312 c 0
 284.98046875 334.041992188 306.083984375 346.430664062 321.00390625 346.430664062 c 0
 322.146484375 346.430664062 323.999023438 346.34765625 325.140625 346.244140625 c 0
 330.263671875 346.1875 338.358398438 344.092773438 343.208984375 341.569335938 c 0
 348.33984375 338.985351562 356.178710938 333.225585938 360.703125 328.712890625 c 0
 366.248046875 323.161132812 371.124023438 317.755859375 375.139648438 312.934570312 c 0
 378.47265625 308.692382812 383.612304688 301.362304688 386.611328125 296.571289062 c 2
 389.95703125 291.458007812 l 1
 393.303710938 296.571289062 l 2
 396.287109375 301.153320312 401.3828125 308.15625 404.6796875 312.204101562 c 0
 408.6953125 317.171875 413.571289062 322.430664062 419.116210938 327.982421875 c 0
 423.641601562 332.4921875 431.479492188 338.251953125 436.610351562 340.838867188 c 0
 441.463867188 343.583007812 449.6015625 346.004882812 454.775390625 346.244140625 c 0
158.908203125 391 m 5
 67.4296875 282 l 5
 158.908203125 185.444335938 l 5
 158.908203125 -125.666992188 l 5
 568.286132812 -125.666992188 l 5
 567.428710938 -69 l 5
 194.744140625 -75 l 5
 190.114257812 222 l 5
 127.615234375 278 l 5
 199.374023438 366 l 5
 201.688476562 681 l 5
 527.5625 679.888671875 l 5
 516.845703125 679.888671875 l 5
 518.989257812 474.333007812 553.283203125 393.77734375 583.290039062 360.444335938 c 4
 596.149414062 346.555664062 613.296875 338.22265625 628.299804688 338.22265625 c 4
 630.443359375 338.22265625 634.729492188 338.22265625 636.873046875 338.22265625 c 6
 634.729492188 366 l 6
 626.157226562 366 613.296875 366 598.29296875 382.666992188 c 4
 574.716796875 404.888671875 538.279296875 477.111328125 538.279296875 679.888671875 c 5
 546.852539062 679.888671875 l 5
 559.712890625 452.111328125 581.146484375 379.888671875 636.873046875 377.111328125 c 6
 636.873046875 404.888671875 l 6
 606.8671875 407.666992188 588.36328125 468.125 568.286132812 688.22265625 c 6
 565.114257812 723 l 5
 162.336914062 726 l 5
 158.908203125 391 l 5
422.5390625 529.888671875 m 5
 422.5390625 557.666992188 l 5
 261.788085938 557.666992188 l 5
 261.788085938 529.888671875 l 5
 422.5390625 529.888671875 l 5
EndSplineSet
Fore
Refer: 77 57755 N 0.412027 0 0 0.53795 30.973 -46.1186 2
Refer: 77 57755 N 0.398603 0 0 0.51174 51.028 291.978 2
Refer: 92 57355 S 0.771604 0 0 1 421.331 25 2
Validated: 9
EndChar

StartChar: wedding.17
Encoding: 17 57361 98
Width: 1106
VWidth: 0
Flags: W
HStem: -55.7095 41.6724<73.2459 312.6> 350.886 11.0616<522.739 534.816> 376.89 27.9289<175.22 274.885> 462.22 40.7171<84.712 309.734> 592.11 13.5213<228.344 311.829> 611.46 10.3892<444.289 488.079 568.358 613.597> 654.307 67.6055<237.717 301.82> 681.349 13.5209<311.175 379.315 396.5 685.525> 770.588 13.5213<228.347 311.854>
VStem: 142.525 18.1803<656.674 719.547> 312.6 26.1173<-14.037 158.789 293.839 462.22> 379.315 17.7695<657.101 681.349 694.87 719.147> 395.795 8.84292<511.948 566.322> 653.261 8.41576<512.305 565.484>
LayerCount: 4
Back
SplineSet
767.525390625 623.759765625 m 1xbc
 767.525390625 610.239257812 l 1
 479.083984375 610.239257812 l 2
 474.467773438 560.979492188 417.517578125 521 351.962890625 521 c 0
 281.6171875 521 224.525390625 564.0078125 224.525390625 617 c 0
 224.525390625 669.991210938 281.6171875 713 351.962890625 713 c 0
 417.517578125 713 474.467773438 673.020507812 479.083984375 623.759765625 c 2
 767.525390625 623.759765625 l 1xbc
352.185546875 534.521484375 m 0
 407.784179688 534.580078125 456.674804688 568.501953125 461.314453125 610.239257812 c 2
 396.16015625 610.239257812 l 2xbc
 392.115234375 595.311523438 372.418945312 583.197265625 352.194335938 583.197265625 c 0
 327.424804688 583.197265625 307.322265625 598.340820312 307.322265625 617 c 0
 307.322265625 635.658203125 327.424804688 650.802734375 352.194335938 650.802734375 c 0xdc
 372.418945312 650.802734375 392.115234375 638.6875 396.16015625 623.759765625 c 2
 461.314453125 623.759765625 l 2
 456.751953125 665.556640625 407.866210938 699.478515625 352.194335938 699.478515625 c 0
 291.756835938 699.478515625 242.706054688 662.52734375 242.706054688 617 c 0
 242.706054688 571.475585938 291.751953125 534.525390625 352.185546875 534.521484375 c 0
528.73828125 346.887695312 m 0
 528.697265625 346.887695312 528.629882812 346.88671875 528.588867188 346.88671875 c 0
 525.565429688 346.88671875 521.387695312 348.940429688 519.262695312 351.471679688 c 2
 429.645507812 453.563476562 l 2
 428.458984375 454.72265625 426.634765625 456.729492188 425.572265625 458.04296875 c 0
 423.711914062 460.23046875 421.055664062 463.981445312 417.336914062 469.502929688 c 0
 414.28125 473.998046875 409.7578125 481.65234375 407.240234375 486.586914062 c 0
 404.467773438 492.224609375 400.857421875 501.838867188 399.182617188 508.047851562 c 0
 397.373046875 514.634765625 395.904296875 525.599609375 395.904296875 532.521484375 c 0
 395.904296875 532.666992188 395.905273438 532.904296875 395.90625 533.049804688 c 0
 395.844726562 534.337890625 395.794921875 536.431640625 395.794921875 537.720703125 c 0
 395.794921875 556.004882812 404.454101562 581.634765625 415.123046875 594.930664062 c 0
 426.752929688 607.3515625 448.939453125 617.432617188 464.647460938 617.432617188 c 0
 465.643554688 617.432617188 467.259765625 617.385742188 468.254882812 617.328125 c 0
 473.803710938 617.293945312 482.571289062 615.568359375 487.826171875 613.473632812 c 0
 493.178710938 611.369140625 501.3515625 606.701171875 506.068359375 603.055664062 c 0
 511.470703125 598.888671875 516.1640625 594.930664062 520.149414062 591.1796875 c 0
 524.133789062 587.4296875 525.639648438 585.762695312 528.295898438 582.845703125 c 0
 530.953125 585.762695312 533.608398438 588.471679688 536.443359375 591.1796875 c 0
 539.276367188 593.888671875 545.298828125 598.888671875 550.5234375 603.055664062 c 0
 555.240234375 606.703125 563.412109375 611.370117188 568.765625 613.473632812 c 0
 574.122070312 615.733398438 583.087890625 617.646484375 588.779296875 617.744140625 c 0
 589.7734375 617.802734375 591.390625 617.848632812 592.38671875 617.848632812 c 0
 608.095703125 617.848632812 630.282226562 607.768554688 641.912109375 595.346679688 c 0
 652.821289062 581.9921875 661.676757812 556.12109375 661.676757812 537.598632812 c 0
 661.676757812 536.341796875 661.629882812 534.3046875 661.571289062 533.049804688 c 0
 661.571289062 506.797851562 650.059570312 480.024414062 627.388671875 453.354492188 c 2
 538.125976562 351.784179688 l 2
 536.02734375 349.124023438 531.822265625 346.930664062 528.73828125 346.887695312 c 0
468.698242188 607.327148438 m 0
 467.740234375 607.38671875 466.185546875 607.436523438 465.225585938 607.436523438 c 0
 451.290039062 607.436523438 431.62109375 598.473632812 421.321289062 587.4296875 c 0
 412.112304688 575.828125 404.637695312 553.530273438 404.637695312 537.657226562 c 0
 404.637695312 536.384765625 404.692382812 534.3203125 404.76171875 533.049804688 c 0
 404.82421875 526.903320312 406.252929688 517.1953125 407.950195312 511.380859375 c 0
 409.458984375 505.776367188 412.712890625 497.096679688 415.2109375 492.004882812 c 0
 417.481445312 487.41015625 421.567382812 480.26953125 424.33203125 476.065429688 c 0
 427.875 470.856445312 430.442382812 467.315429688 432.036132812 465.6484375 c 0
 432.959960938 464.48828125 434.546875 462.71484375 435.578125 461.689453125 c 2
 525.55078125 359.596679688 l 2
 526.275390625 358.686523438 527.72265625 357.948242188 528.783203125 357.948242188 c 0
 529.842773438 357.948242188 531.291015625 358.686523438 532.014648438 359.596679688 c 2
 621.6328125 461.064453125 l 2
 642.53125 485.650390625 653.158203125 510.02734375 653.158203125 533.362304688 c 0
 653.21484375 534.518554688 653.260742188 536.395507812 653.260742188 537.5546875 c 0
 653.260742188 553.609375 645.637695312 576.09375 636.244140625 587.7421875 c 0
 625.978515625 598.625976562 606.430664062 607.458984375 592.610351562 607.458984375 c 0
 591.551757812 607.458984375 589.834960938 607.400390625 588.779296875 607.327148438 c 0
 584.032226562 607.287109375 576.53515625 605.79296875 572.041992188 603.993164062 c 0
 567.288085938 602.150390625 560.028320312 598.043945312 555.8359375 594.826171875 c 0
 550.700195312 590.8671875 546.18359375 587.012695312 542.46484375 583.575195312 c 0
 539.376953125 580.55078125 534.615234375 575.323242188 531.837890625 571.907226562 c 2
 528.73828125 568.26171875 l 1
 525.639648438 571.907226562 l 2
 522.875976562 575.173828125 518.155273438 580.16796875 515.1015625 583.0546875 c 0
 511.381835938 586.595703125 506.865234375 590.346679688 501.729492188 594.305664062 c 0
 497.537109375 597.520507812 490.27734375 601.627929688 485.524414062 603.47265625 c 0
 481.02734375 605.4296875 473.490234375 607.15625 468.698242188 607.327148438 c 0
688.8125 289.6640625 m 5
 630.958007812 216.564453125 l 5
 690.826171875 153.130859375 l 5
 693.873046875 -53.5146484375 l 5
 957.557617188 -50.3837890625 l 5
 956.450195312 -12.7509765625 l 5
 716.458984375 -19.5859375 l 5
 710.568359375 177.650390625 l 5
 669.763671875 214.368164062 l 5
 715.122070312 273.368164062 l 5
 713.52734375 482.61328125 l 5
 923.436523438 484.3671875 l 5
 916.534179688 484.28515625 l 5
 919.926757812 347.768554688 942.805664062 294.524414062 962.458984375 272.614257812 c 4
 970.87890625 263.487304688 982.004882812 258.083007812 991.668945312 258.198242188 c 4
 993.049804688 258.21484375 995.809570312 258.247070312 997.19140625 258.263671875 c 6
 995.538085938 276.697265625 l 6
 990.015625 276.631835938 981.732421875 276.533203125 971.905273438 287.48828125 c 4
 956.501953125 302.068359375 932.325195312 349.76171875 930.338867188 484.44921875 c 5
 935.861328125 484.514648438 l 5
 946.375976562 333.319335938 960.888671875 285.512695312 996.809570312 284.09375 c 6
 996.538085938 302.543945312 l 6
 977.18359375 304.159179688 964.672851562 344.17578125 949.584960938 490.21484375 c 6
 947.202148438 513.290039062 l 5
 687.740234375 512.202148438 l 5
 688.8125 289.6640625 l 5
857.258789062 383.931640625 m 5
 856.986328125 402.3828125 l 5
 753.446289062 401.153320312 l 5
 753.71875 382.703125 l 5
 857.258789062 383.931640625 l 5
338.717773438 289.83984375 m 1
 391.4296875 220.752929688 l 1
 338.717773438 154.790039062 l 1
 341.265625 -61.693359375 l 1
 73.2451171875 -59.7099609375 l 1
 70.3798828125 -18.037109375 l 1
 312.600585938 -18.037109375 l 1
 312.600585938 184.372070312 l 1
 349.38671875 220.752929688 l 1
 312.600585938 263.748046875 l 1
 309.733398438 458.219726562 l 1
 81.845703125 458.219726562 l 1
 84.7119140625 498.936523438 l 1
 338.717773438 498.936523438 l 1
 338.717773438 289.83984375 l 1
174.529296875 372.890625 m 1
 175.219726562 400.819335938 l 1
 274.883789062 400.819335938 l 1
 275.813476562 374.213867188 l 1
 174.529296875 372.890625 l 1
EndSplineSet
Fore
Refer: 482 57905 N 0.646164 0 0 0.486759 77.909 542.082 2
Refer: 97 57360 S 0.757998 0 0 0.680147 24.2 16.2537 2
Validated: 9
EndChar

StartChar: wife.20
Encoding: 20 57364 101
Width: 1138
VWidth: 0
Flags: W
HStem: 294.745 26.1925<957.366 993.806> 331.414 26.1925<975.02 996.148> 402 9.85434<220.667 234.521> 634.133 9.2553<130.671 180.906 273.001 324.897>
VStem: 75.0398 10.1444<545.483 593.922> 370.399 9.65437<545.8 593.176> 474.015 39.1481<-94.9032 -48.2273 344.511 551.959> 865.029 23.4136<467.497 616.918>
LayerCount: 4
Back
SplineSet
853.549804688 426.000976562 m 0
 853.501953125 426 853.42578125 426 853.377929688 426 c 0
 849.91015625 426 845.1171875 427.830078125 842.6796875 430.083984375 c 2
 739.873046875 521.034179688 l 2
 738.51171875 522.06640625 736.418945312 523.854492188 735.19921875 525.024414062 c 0
 733.06640625 526.973632812 730.018554688 530.314453125 725.751953125 535.233398438 c 0
 722.247070312 539.23828125 717.05859375 546.056640625 714.170898438 550.453125 c 0
 710.989257812 555.475585938 706.84765625 564.040039062 704.92578125 569.571289062 c 0
 702.850585938 575.439453125 701.166015625 585.20703125 701.166015625 591.374023438 c 0
 701.166015625 591.50390625 701.166992188 591.71484375 701.166992188 591.844726562 c 0
 701.096679688 592.9921875 701.040039062 594.856445312 701.040039062 596.005859375 c 0
 701.040039062 612.294921875 710.97265625 635.126953125 723.211914062 646.971679688 c 0
 736.553710938 658.037109375 762.005859375 667.017578125 780.026367188 667.017578125 c 0
 781.168945312 667.017578125 783.0234375 666.975585938 784.165039062 666.924804688 c 0
 790.529296875 666.89453125 800.587890625 665.356445312 806.616210938 663.491210938 c 0
 812.756835938 661.615234375 822.131835938 657.458007812 827.54296875 654.209960938 c 0
 833.740234375 650.498046875 839.124023438 646.971679688 843.696289062 643.629882812 c 0
 848.267578125 640.2890625 849.994140625 638.8046875 853.041992188 636.206054688 c 0
 856.08984375 638.8046875 859.13671875 641.217773438 862.388671875 643.629882812 c 0
 865.638671875 646.04296875 872.546875 650.498046875 878.541015625 654.209960938 c 0
 883.951171875 657.458984375 893.326171875 661.6171875 899.467773438 663.491210938 c 0
 905.61328125 665.50390625 915.8984375 667.208984375 922.426757812 667.295898438 c 0
 923.568359375 667.34765625 925.422851562 667.388671875 926.56640625 667.388671875 c 0
 944.5859375 667.388671875 970.038085938 658.408203125 983.379882812 647.342773438 c 0
 995.895507812 635.4453125 1006.05371094 612.397460938 1006.05371094 595.896484375 c 0
 1006.05371094 594.77734375 1005.99902344 592.961914062 1005.93261719 591.844726562 c 0
 1005.93261719 568.458007812 992.725585938 544.606445312 966.719726562 520.84765625 c 2
 864.318359375 430.362304688 l 2
 861.912109375 427.993164062 857.087890625 426.0390625 853.549804688 426.000976562 c 0
784.672851562 658.015625 m 0
 783.57421875 658.068359375 781.790039062 658.112304688 780.689453125 658.112304688 c 0
 764.703125 658.112304688 742.138671875 650.127929688 730.323242188 640.2890625 c 0
 719.758789062 629.955078125 711.184570312 610.08984375 711.184570312 595.94921875 c 0
 711.184570312 594.815429688 711.248046875 592.9765625 711.326171875 591.844726562 c 0
 711.3984375 586.369140625 713.037109375 577.720703125 714.983398438 572.541015625 c 0
 716.71484375 567.548828125 720.447265625 559.815429688 723.313476562 555.279296875 c 0
 725.91796875 551.186523438 730.606445312 544.825195312 733.77734375 541.080078125 c 0
 737.840820312 536.439453125 740.787109375 533.284179688 742.615234375 531.799804688 c 0
 743.674804688 530.766601562 745.49609375 529.186523438 746.678710938 528.272460938 c 2
 849.892578125 437.323242188 l 2
 850.723632812 436.51171875 852.384765625 435.854492188 853.600585938 435.854492188 c 0
 854.81640625 435.854492188 856.477539062 436.51171875 857.30859375 437.323242188 c 2
 960.116210938 527.715820312 l 2
 984.090820312 549.618164062 996.28125 571.334960938 996.28125 592.123046875 c 0
 996.346679688 593.153320312 996.399414062 594.826171875 996.399414062 595.857421875 c 0
 996.399414062 610.161132812 987.653320312 630.190429688 976.877929688 640.568359375 c 0
 965.1015625 650.263671875 942.67578125 658.133789062 926.822265625 658.133789062 c 0
 925.608398438 658.133789062 923.638671875 658.080078125 922.426757812 658.015625 c 0
 916.982421875 657.978515625 908.380859375 656.6484375 903.2265625 655.045898438 c 0
 897.7734375 653.403320312 889.444335938 649.745117188 884.635742188 646.87890625 c 0
 878.744140625 643.3515625 873.5625 639.91796875 869.295898438 636.85546875 c 0
 865.75390625 634.161132812 860.291992188 629.50390625 857.10546875 626.4609375 c 2
 853.549804688 623.212890625 l 1
 849.994140625 626.4609375 l 2
 846.82421875 629.37109375 841.409179688 633.8203125 837.905273438 636.391601562 c 0
 833.638671875 639.546875 828.458007812 642.887695312 822.565429688 646.415039062 c 0
 817.755859375 649.279296875 809.427734375 652.938476562 803.974609375 654.581054688 c 0
 798.817382812 656.325195312 790.169921875 657.86328125 784.672851562 658.015625 c 0
178.015625 350.510742188 m 5
 78.083984375 247.729492188 l 5
 178.015625 156.682617188 l 5
 178.015625 -136.6796875 l 5
 625.223632812 -136.6796875 l 5
 624.287109375 -83.2451171875 l 5
 217.1640625 -88.9033203125 l 5
 212.106445312 191.15234375 l 5
 143.831054688 243.95703125 l 5
 222.220703125 326.936523438 l 5
 224.75 623.965820312 l 5
 580.736328125 622.91796875 l 5
 569.029296875 622.91796875 l 5
 571.370117188 429.088867188 608.833984375 353.129882812 641.61328125 321.698242188 c 4
 655.661132812 308.6015625 674.392578125 300.744140625 690.782226562 300.744140625 c 4
 693.124023438 300.744140625 697.806640625 300.744140625 700.1484375 300.744140625 c 6
 697.806640625 326.936523438 l 6
 688.44140625 326.936523438 674.392578125 326.936523438 658.002929688 342.653320312 c 4
 632.247070312 363.606445312 592.443359375 431.708984375 592.443359375 622.91796875 c 5
 601.80859375 622.91796875 l 5
 615.857421875 408.135742188 639.271484375 340.033203125 700.1484375 337.4140625 c 6
 700.1484375 363.606445312 l 6
 667.369140625 366.2265625 647.155273438 423.235351562 625.223632812 630.776367188 c 6
 621.7578125 663.569335938 l 5
 181.76171875 666.3984375 l 5
 178.015625 350.510742188 l 5
466.0078125 481.475585938 m 5
 466.0078125 507.668945312 l 5
 290.40234375 507.668945312 l 5
 290.40234375 481.475585938 l 5
 466.0078125 481.475585938 l 5
EndSplineSet
Fore
Refer: 6 57370 N 0.365718 0 0 0.334101 38.468 422.418 2
Refer: 89 57352 N 0.842905 0 0 0.942948 311.709 -11.9238 2
Validated: 9
EndChar

StartChar: widow.22
Encoding: 22 57366 103
Width: 1064
VWidth: 0
Flags: W
HStem: 294.745 26.1925<957.366 993.806> 331.414 26.1925<975.02 996.148> 402 9.85434<220.667 234.521> 634.133 9.2553<130.671 180.906 273.001 324.897>
VStem: 75.0398 10.1444<545.483 593.922> 370.399 9.65437<545.8 593.176> 474.015 39.1481<-94.9032 -48.2273 344.511 551.959> 865.029 23.4136<467.497 616.918>
LayerCount: 4
Back
SplineSet
990.30078125 381.5 m 1
 870.66796875 240.80078125 l 1
 1000.85742188 101.44140625 l 1
 983.908203125 85 l 1
 853.573242188 224.720703125 l 1
 735.693359375 85 l 1
 723.383789062 100.67578125 l 1
 839.764648438 238.50390625 l 1
 725.356445312 377.09765625 l 1
 740.478515625 393.943359375 l 1
 856.203125 259.943359375 l 1
 977.186523438 394.708984375 l 5
 990.30078125 381.5 l 1
853.549804688 426.000976562 m 0
 853.501953125 426 853.42578125 426 853.377929688 426 c 0
 849.91015625 426 845.1171875 427.830078125 842.6796875 430.083984375 c 2
 739.873046875 521.034179688 l 2
 738.51171875 522.06640625 736.418945312 523.854492188 735.19921875 525.024414062 c 0
 733.06640625 526.973632812 730.018554688 530.314453125 725.751953125 535.233398438 c 0
 722.247070312 539.23828125 717.05859375 546.056640625 714.170898438 550.453125 c 0
 710.989257812 555.475585938 706.84765625 564.040039062 704.92578125 569.571289062 c 0
 702.850585938 575.439453125 701.166015625 585.20703125 701.166015625 591.374023438 c 0
 701.166015625 591.50390625 701.166992188 591.71484375 701.166992188 591.844726562 c 0
 701.096679688 592.9921875 701.040039062 594.856445312 701.040039062 596.005859375 c 0
 701.040039062 612.294921875 710.97265625 635.126953125 723.211914062 646.971679688 c 0
 736.553710938 658.037109375 762.005859375 667.017578125 780.026367188 667.017578125 c 0
 781.168945312 667.017578125 783.0234375 666.975585938 784.165039062 666.924804688 c 0
 790.529296875 666.89453125 800.587890625 665.356445312 806.616210938 663.491210938 c 0
 812.756835938 661.615234375 822.131835938 657.458007812 827.54296875 654.209960938 c 0
 833.740234375 650.498046875 839.124023438 646.971679688 843.696289062 643.629882812 c 0
 848.267578125 640.2890625 849.994140625 638.8046875 853.041992188 636.206054688 c 0
 856.08984375 638.8046875 859.13671875 641.217773438 862.388671875 643.629882812 c 0
 865.638671875 646.04296875 872.546875 650.498046875 878.541015625 654.209960938 c 0
 883.951171875 657.458984375 893.326171875 661.6171875 899.467773438 663.491210938 c 0
 905.61328125 665.50390625 915.8984375 667.208984375 922.426757812 667.295898438 c 0
 923.568359375 667.34765625 925.422851562 667.388671875 926.56640625 667.388671875 c 0
 944.5859375 667.388671875 970.038085938 658.408203125 983.379882812 647.342773438 c 0
 995.895507812 635.4453125 1006.05371094 612.397460938 1006.05371094 595.896484375 c 0
 1006.05371094 594.77734375 1005.99902344 592.961914062 1005.93261719 591.844726562 c 0
 1005.93261719 568.458007812 992.725585938 544.606445312 966.719726562 520.84765625 c 2
 864.318359375 430.362304688 l 2
 861.912109375 427.993164062 857.087890625 426.0390625 853.549804688 426.000976562 c 0
784.672851562 658.015625 m 0
 783.57421875 658.068359375 781.790039062 658.112304688 780.689453125 658.112304688 c 0
 764.703125 658.112304688 742.138671875 650.127929688 730.323242188 640.2890625 c 0
 719.758789062 629.955078125 711.184570312 610.08984375 711.184570312 595.94921875 c 0
 711.184570312 594.815429688 711.248046875 592.9765625 711.326171875 591.844726562 c 0
 711.3984375 586.369140625 713.037109375 577.720703125 714.983398438 572.541015625 c 0
 716.71484375 567.548828125 720.447265625 559.815429688 723.313476562 555.279296875 c 0
 725.91796875 551.186523438 730.606445312 544.825195312 733.77734375 541.080078125 c 0
 737.840820312 536.439453125 740.787109375 533.284179688 742.615234375 531.799804688 c 0
 743.674804688 530.766601562 745.49609375 529.186523438 746.678710938 528.272460938 c 2
 849.892578125 437.323242188 l 2
 850.723632812 436.51171875 852.384765625 435.854492188 853.600585938 435.854492188 c 0
 854.81640625 435.854492188 856.477539062 436.51171875 857.30859375 437.323242188 c 2
 960.116210938 527.715820312 l 2
 984.090820312 549.618164062 996.28125 571.334960938 996.28125 592.123046875 c 0
 996.346679688 593.153320312 996.399414062 594.826171875 996.399414062 595.857421875 c 0
 996.399414062 610.161132812 987.653320312 630.190429688 976.877929688 640.568359375 c 0
 965.1015625 650.263671875 942.67578125 658.133789062 926.822265625 658.133789062 c 0
 925.608398438 658.133789062 923.638671875 658.080078125 922.426757812 658.015625 c 0
 916.982421875 657.978515625 908.380859375 656.6484375 903.2265625 655.045898438 c 0
 897.7734375 653.403320312 889.444335938 649.745117188 884.635742188 646.87890625 c 0
 878.744140625 643.3515625 873.5625 639.91796875 869.295898438 636.85546875 c 0
 865.75390625 634.161132812 860.291992188 629.50390625 857.10546875 626.4609375 c 2
 853.549804688 623.212890625 l 1
 849.994140625 626.4609375 l 2
 846.82421875 629.37109375 841.409179688 633.8203125 837.905273438 636.391601562 c 0
 833.638671875 639.546875 828.458007812 642.887695312 822.565429688 646.415039062 c 0
 817.755859375 649.279296875 809.427734375 652.938476562 803.974609375 654.581054688 c 0
 798.817382812 656.325195312 790.169921875 657.86328125 784.672851562 658.015625 c 0
178.015625 350.510742188 m 5
 78.083984375 247.729492188 l 5
 178.015625 156.682617188 l 5
 178.015625 -136.6796875 l 5
 625.223632812 -136.6796875 l 5
 624.287109375 -83.2451171875 l 5
 217.1640625 -88.9033203125 l 5
 212.106445312 191.15234375 l 5
 143.831054688 243.95703125 l 5
 222.220703125 326.936523438 l 5
 224.75 623.965820312 l 5
 580.736328125 622.91796875 l 5
 569.029296875 622.91796875 l 5
 571.370117188 429.088867188 608.833984375 353.129882812 641.61328125 321.698242188 c 4
 655.661132812 308.6015625 674.392578125 300.744140625 690.782226562 300.744140625 c 4
 693.124023438 300.744140625 697.806640625 300.744140625 700.1484375 300.744140625 c 6
 697.806640625 326.936523438 l 6
 688.44140625 326.936523438 674.392578125 326.936523438 658.002929688 342.653320312 c 4
 632.247070312 363.606445312 592.443359375 431.708984375 592.443359375 622.91796875 c 5
 601.80859375 622.91796875 l 5
 615.857421875 408.135742188 639.271484375 340.033203125 700.1484375 337.4140625 c 6
 700.1484375 363.606445312 l 6
 667.369140625 366.2265625 647.155273438 423.235351562 625.223632812 630.776367188 c 6
 621.7578125 663.569335938 l 5
 181.76171875 666.3984375 l 5
 178.015625 350.510742188 l 5
466.0078125 481.475585938 m 5
 466.0078125 507.668945312 l 5
 290.40234375 507.668945312 l 5
 290.40234375 481.475585938 l 5
 466.0078125 481.475585938 l 5
EndSplineSet
Fore
Refer: 75 57724 N 0.370399 0 0 0.417828 23.0106 49.5064 2
Refer: 101 57364 N 1 0 0 1 0 0 2
Validated: 9
EndChar

StartChar: Anna.26
Encoding: 26 60162 107
Width: 1000
VWidth: 0
Flags: W
HStem: 78.1162 13.3604<423.209 567.649 587.659 759.929 799.387 805.929> 364.89 27.7773<871.878 915.11> 403.778 27.7773<892.823 917.889>
VStem: 124.422 19.3701<674.906 803> 298.444 46.4443<-48.333 1.16699 417.667 637.667> 567.649 20.2393<17.667 77.5615> 762.333 27.7773<548.095 706.556>
LayerCount: 4
Fore
SplineSet
805.928710938 91.4765625 m 1
 806.54296875 78.1162109375 l 1
 799.38671875 78.1162109375 l 1
 799.38671875 77.3603515625 l 1
 567.649414062 -3.5078125 l 1
 567.649414062 77.5615234375 l 1
 423.208984375 78.2841796875 l 1
 423.208984375 92.08203125 l 1
 805.928710938 91.4765625 l 1
587.888671875 17.6669921875 m 1
 759.928710938 77.5615234375 l 1
 587.659179688 78.2841796875 l 1
 587.888671875 17.6669921875 l 1
91.978515625 785.764648438 m 6
 129.1640625 839.807617188 l 6
 131.461914062 843.145507812 136.436523438 843.153320312 138.825195312 840.114257812 c 6
 184.049804688 782.572265625 l 6
 186.180664062 779.860351562 185.528320312 775.782226562 182.658203125 773.870117188 c 4
 182.010742188 773.439453125 181.240234375 773.12890625 180.518554688 772.982421875 c 6
 172.813476562 771.427734375 l 6
 170.579101562 770.977539062 168.228515625 771.92578125 166.911132812 773.599609375 c 6
 142.618164062 804.479492188 l 5
 143.791992188 680.5546875 l 6
 143.825195312 677.0625 140.737304688 674.333984375 137.475585938 674.506835938 c 6
 130.10546875 674.895507812 l 6
 126.833984375 675.067382812 124.408203125 677.982421875 124.421875 680.915039062 c 6
 125 803 l 5
 105.212890625 774.29296875 l 6
 103.254882812 771.453125 99.16796875 770.866210938 96.490234375 773.040039062 c 4
 96.08203125 773.372070312 95.439453125 774.142578125 95.3994140625 774.198242188 c 6
 92.048828125 778.86328125 l 6
 90.5 781.018554688 90.7802734375 784.022460938 91.978515625 785.764648438 c 6
298.444335938 417.666992188 m 1
 179.888671875 308.666992188 l 1
 298.444335938 212.111328125 l 1
 298.444335938 -99 l 1
 829 -99 l 1
 827.888671875 -42.3330078125 l 1
 344.888671875 -48.3330078125 l 1
 338.888671875 248.666992188 l 1
 257.888671875 304.666992188 l 1
 350.888671875 392.666992188 l 1
 353.888671875 707.666992188 l 1
 776.221679688 706.555664062 l 1
 762.333007812 706.555664062 l 1
 765.110351562 501 809.555664062 420.444335938 848.444335938 387.111328125 c 0
 865.110351562 373.22265625 887.333007812 364.889648438 906.77734375 364.889648438 c 0
 909.555664062 364.889648438 915.110351562 364.889648438 917.888671875 364.889648438 c 2
 915.110351562 392.666992188 l 2
 904 392.666992188 887.333007812 392.666992188 867.888671875 409.333984375 c 0
 837.333007812 431.555664062 790.110351562 503.778320312 790.110351562 706.555664062 c 1
 801.221679688 706.555664062 l 1
 817.888671875 478.778320312 845.666015625 406.555664062 917.888671875 403.778320312 c 2
 917.888671875 431.555664062 l 2
 879 434.333984375 855.01953125 494.791992188 829 714.889648438 c 2
 824.888671875 749.666992188 l 1
 302.888671875 752.666992188 l 1
 298.444335938 417.666992188 l 1
640.110351562 556.555664062 m 1
 640.110351562 584.333984375 l 1
 431.77734375 584.333984375 l 1
 431.77734375 556.555664062 l 1
 640.110351562 556.555664062 l 1
EndSplineSet
Refer: 75 57724 N -0.315342 0 0 0.358235 749.262 167.135 2
Validated: 25
EndChar

StartChar: Mary.27
Encoding: 27 58196 108
Width: 997
VWidth: 0
Flags: W
HStem: -2.66701 8.75489<553.457 605.116> 383.223 27.7773<880.99 924.222> 422.111 27.7773<901.935 927> 429.701 13.4615<459.399 665.862>
VStem: 110.422 19.3701<672.906 801> 307.556 46.4443<-30 19.5 436 656> 481.556 9.34071<64.0042 114.761> 561.913 11.4257<439.032 507.175> 771.444 27.7773<566.428 724.889>
LayerCount: 4
Fore
SplineSet
77.9794921875 783.764648438 m 6xcf80
 115.165039062 837.807617188 l 6
 117.461914062 841.145507812 122.436523438 841.153320312 124.825195312 838.114257812 c 6
 170.049804688 780.572265625 l 6
 172.180664062 777.860351562 171.528320312 773.782226562 168.658203125 771.870117188 c 4
 168.010742188 771.439453125 167.241210938 771.12890625 166.518554688 770.982421875 c 6
 158.813476562 769.427734375 l 6
 156.579101562 768.977539062 154.228515625 769.92578125 152.911132812 771.599609375 c 6
 128.618164062 802.479492188 l 5
 129.791992188 678.5546875 l 6
 129.825195312 675.0625 126.73828125 672.333984375 123.4765625 672.506835938 c 6
 116.106445312 672.895507812 l 6
 112.833984375 673.067382812 110.408203125 675.982421875 110.421875 678.915039062 c 6
 111 801 l 5
 91.212890625 772.29296875 l 6
 89.255859375 769.453125 85.16796875 768.866210938 82.490234375 771.041015625 c 4
 82.08203125 771.372070312 81.439453125 772.142578125 81.3994140625 772.198242188 c 6
 78.048828125 776.86328125 l 6
 76.5 779.01953125 76.7802734375 782.022460938 77.9794921875 783.764648438 c 6xcf80
307.555664062 436 m 1
 189 327 l 1
 307.555664062 230.444335938 l 1
 307.555664062 -80.6669921875 l 1
 838.111328125 -80.6669921875 l 1
 837 -24 l 1
 354 -30 l 1
 348 267 l 1
 267 323 l 1
 360 411 l 1
 363 726 l 1
 785.333007812 724.888671875 l 1
 771.444335938 724.888671875 l 1
 774.221679688 519.333007812 818.666992188 438.77734375 857.555664062 405.444335938 c 0
 874.221679688 391.555664062 896.444335938 383.22265625 915.888671875 383.22265625 c 0
 918.666992188 383.22265625 924.221679688 383.22265625 927 383.22265625 c 2
 924.221679688 411 l 2
 913.111328125 411 896.444335938 411 877 427.666992188 c 0
 846.444335938 449.888671875 799.221679688 522.111328125 799.221679688 724.888671875 c 1
 810.333007812 724.888671875 l 1
 827 497.111328125 854.77734375 424.888671875 927 422.111328125 c 2
 927 449.888671875 l 2xef80
 888.111328125 452.666992188 864.130859375 513.125 838.111328125 733.22265625 c 2
 834 768 l 1
 312 771 l 1
 307.555664062 436 l 1
649.221679688 574.888671875 m 1
 649.221679688 602.666992188 l 1
 440.888671875 602.666992188 l 1
 440.888671875 574.888671875 l 1
 649.221679688 574.888671875 l 1
EndSplineSet
Refer: 560 57632 N -0.27639 0 0 0.345166 693.501 271.27 2
Refer: 498 57927 N -0.345004 0 0 0.319199 708.098 34.5733 2
Validated: 21
EndChar

StartChar: Rhoda.28
Encoding: 28 60306 109
Width: 1007
VWidth: 0
Flags: W
HStem: 369.006 12.958<698.292 705.711> 373.29 27.7539<833.157 876.441> 391.651 13.3662<392.842 447.426 658.179 705.498> 412.15 27.7754<854.252 879.249>
VStem: 106.422 19.3701<682.906 811> 642.716 10.0664<102.833 276.536> 724.498 27.7783<556.844 715.266>
LayerCount: 4
Fore
SplineSet
73.978515625 793.764648438 m 6x1e
 111.1640625 847.807617188 l 6
 113.461914062 851.145507812 118.436523438 851.153320312 120.825195312 848.114257812 c 6
 166.049804688 790.572265625 l 6
 168.180664062 787.860351562 167.528320312 783.782226562 164.658203125 781.870117188 c 4
 164.010742188 781.439453125 163.240234375 781.12890625 162.518554688 780.982421875 c 6
 154.813476562 779.427734375 l 6
 152.579101562 778.977539062 150.228515625 779.92578125 148.911132812 781.599609375 c 6
 124.618164062 812.479492188 l 5
 125.791992188 688.5546875 l 6
 125.825195312 685.0625 122.737304688 682.333984375 119.475585938 682.506835938 c 6
 112.10546875 682.895507812 l 6
 108.833984375 683.067382812 106.408203125 685.982421875 106.421875 688.915039062 c 6
 107 811 l 5
 87.212890625 782.29296875 l 6
 85.2548828125 779.453125 81.16796875 778.866210938 78.490234375 781.040039062 c 4
 78.08203125 781.372070312 77.439453125 782.142578125 77.3994140625 782.198242188 c 6
 74.048828125 786.86328125 l 6
 72.5 789.018554688 72.7802734375 792.022460938 73.978515625 793.764648438 c 6x1e
569.040039062 17.1875 m 0
 589.127929688 26.5029296875 627.614257812 58.6904296875 635.854492188 73.0634765625 c 0
 651.356445312 100.102539062 652.012695312 104.553710938 652.782226562 187.7578125 c 0
 653.576171875 273.794921875 653.227539062 271.661132812 674.760742188 321.600585938 c 0
 685.924804688 347.5 700.21484375 369.0234375 706.227539062 369.005859375 c 0
 708.329101562 369.000976562 712.793945312 372.943359375 716.151367188 377.767578125 c 0
 722.088867188 386.306640625 722.0703125 386.77734375 715.364257812 395.598632812 c 0
 709.775390625 402.952148438 704.225585938 404.724609375 685.900390625 405.017578125 c 0xbe
 666.213867188 405.330078125 660.78515625 403.536132812 643.487304688 390.997070312 c 0
 632.579101562 383.087890625 621.754882812 374.681640625 619.436523438 372.318359375 c 0
 617.119140625 369.954101562 614.888671875 368.78125 614.482421875 369.71484375 c 0
 614.072265625 370.647460938 612.150390625 375.299804688 610.204101562 380.0546875 c 0
 608.259765625 384.806640625 597.444335938 397.950195312 586.170898438 409.258789062 c 0
 563.451171875 432.044921875 550.827148438 435.243164062 532.047851562 422.965820312 c 0
 516.995117188 413.12109375 493.333984375 382.2421875 493.30859375 372.409179688 c 0
 493.288085938 365.098632812 492.486328125 365.430664062 486.677734375 375.1484375 c 0
 476.301757812 392.512695312 441.750976562 405.823242188 413.68359375 403.26953125 c 0
 392.041015625 401.302734375 377.877929688 392.874023438 377.848632812 381.94140625 c 0
 377.842773438 379.815429688 385.807617188 368.403320312 395.55078125 356.58203125 c 0
 406.28515625 343.55859375 417.940429688 323.357421875 425.131835938 305.317382812 c 2
 436.99609375 275.545898438 l 1
 433.15625 230.905273438 l 2
 427.267578125 162.411132812 430.943359375 126.153320312 447.322265625 91.23828125 c 0
 449.552734375 86.4853515625 455.557617188 73.353515625 460.66796875 62.0625 c 0
 465.77734375 50.76953125 472.065429688 41.52734375 474.640625 41.51953125 c 0
 477.212890625 41.5126953125 481.893554688 39.67578125 485.038085938 37.4365234375 c 0
 520.561523438 12.166015625 545.334960938 6.193359375 569.040039062 17.1875 c 0
530.563476562 27.94140625 m 0
 529.571289062 30.0556640625 524.665039062 33.107421875 519.6640625 34.7265625 c 0
 514.66015625 36.3447265625 502.895507812 42.40625 493.518554688 48.19921875 c 0
 479.0390625 57.142578125 474.206054688 63.515625 461.444335938 90.4892578125 c 0
 441.192382812 133.297851562 438.124023438 156.666015625 443.373046875 228.166015625 c 2
 447.401367188 283.045898438 l 1
 435.489257812 312.369140625 l 2
 428.365234375 329.909179688 416.709960938 349.779296875 406.486328125 361.803710938 c 0
 397.086914062 372.86328125 390.357421875 383.19921875 391.530273438 384.776367188 c 0
 392.705078125 386.348632812 401.791992188 388.711914062 411.725585938 390.026367188 c 0
 437.07421875 393.380859375 472.055664062 378.09765625 479.633789062 360.357421875 c 0
 486.46875 344.360351562 496.7890625 345.41796875 501.4375 362.592773438 c 0
 508.919921875 390.2421875 541.046875 420.768554688 556.9140625 415.30078125 c 0
 569.831054688 410.8515625 597.03125 380.422851562 603.0234375 363.727539062 c 0
 609.334960938 346.134765625 615.901367188 343.381835938 622.584960938 355.530273438 c 0
 624.967773438 359.862304688 635.84375 369.85546875 646.752929688 377.734375 c 0
 662.698242188 389.25 670.067382812 391.98046875 684.327148438 391.651367188 c 0
 694.081054688 391.426757812 703.653320312 389.149414062 705.594726562 386.596679688 c 0
 708.111328125 383.287109375 707.706054688 381.955078125 704.1875 381.963867188 c 0
 696.86328125 381.983398438 676.494140625 352.970703125 664.857421875 325.9453125 c 0
 642.737304688 274.572265625 643.3671875 278.393554688 642.715820312 191.52734375 c 0
 642.125976562 112.935546875 641.905273438 110.560546875 633.431640625 91.7763671875 c 0
 620.151367188 62.3359375 569.373046875 25.201171875 541.247070312 24.3623046875 c 0
 536.362304688 24.216796875 531.5546875 25.826171875 530.563476562 27.94140625 c 0
259.844726562 427.684570312 m 1
 141 319 l 1
 259.297851562 222.12890625 l 1
 258.470703125 -88.98046875 l 1
 789.025390625 -90.390625 l 1
 788.064453125 -33.7216796875 l 1
 305.05078125 -38.4384765625 l 1
 299.838867188 258.578125 l 1
 218.98828125 314.79296875 l 1
 312.221679688 402.544921875 l 1
 316.059570312 717.53515625 l 1
 738.387695312 715.301757812 l 1
 724.498046875 715.33984375 l 1
 726.729492188 509.776367188 770.9609375 429.104492188 809.76171875 395.666992188 c 0
 826.389648438 381.733398438 848.590820312 373.340820312 868.03515625 373.290039062 c 0
 870.813476562 373.284179688 876.3671875 373.268554688 879.146484375 373.26171875 c 2
 876.44140625 401.043945312 l 2x5e
 865.331054688 401.07421875 848.663085938 401.118164062 829.263671875 417.837890625 c 0
 798.767578125 440.140625 751.737304688 512.489257812 752.276367188 715.265625 c 1
 763.38671875 715.235351562 l 1
 779.44921875 487.415039062 807.034179688 415.1171875 879.249023438 412.150390625 c 2
 879.322265625 439.92578125 l 2
 840.44140625 442.807617188 816.623046875 503.329101562 791.188476562 723.495117188 c 2
 787.168945312 758.283203125 l 1
 265.177734375 762.671875 l 1
 259.844726562 427.684570312 l 1
601.877929688 565.6640625 m 1
 601.952148438 593.442382812 l 1
 393.620117188 593.995117188 l 1
 393.544921875 566.21875 l 1
 601.877929688 565.6640625 l 1
EndSplineSet
Validated: 41
EndChar

StartChar: Annas.29
Encoding: 29 60259 110
Width: 1062
VWidth: 0
Flags: W
HStem: -122 63<266 767> 288.869 8.9824<22.1338 148.858 166.415 317.555 352.174 357.914> 532 42.2227<479.445 688.056> 661 61.5557<290 761>
VStem: 63.3145 19.3698<661.499 789.594> 148.858 17.7576<248.228 288.496> 396.3 16.8179<273.771 363.555> 767 54.667<-59 202.277 406.444 661>
LayerCount: 4
Fore
SplineSet
30.8715258698 772.358129624 m 2
 68.0570727448 826.401098374 l 2
 70.3541710328 829.739546277 75.3286572037 829.74691957 77.7173904789 826.707590467 c 2
 122.941999854 769.165598279 l 2
 125.073182749 766.453966023 124.421138482 762.376138729 121.550658456 760.464271985 c 0
 120.903334207 760.033125385 120.133207462 759.722193794 119.411339153 759.576539251 c 2
 111.706261028 758.021851751 l 2
 109.4718658 757.571007999 107.121074941 758.519185819 105.803877272 760.193521455 c 2
 81.5110734085 791.072946894 l 1
 82.6843014417 667.148598083 l 2
 82.7173616176 663.656556766 79.6302545818 660.928115197 76.3685922722 661.100122829 c 2
 68.9984750847 661.488794704 l 2
 65.7265083559 661.661345751 63.3006391052 664.576407584 63.3145203461 667.508870309 c 2
 63.8924266616 789.593685533 l 1
 44.1051659432 760.886827522 l 2
 42.1478222836 758.047162784 38.0601268568 757.460150632 35.3827828873 759.634252583 c 0
 34.9743575048 759.965909042 34.3316645738 760.736268382 34.2917535416 760.79183673 c 2
 30.9411676041 765.456875792 l 2
 29.3927582696 767.612734547 29.6731650072 770.616512676 30.8715258698 772.358129624 c 2
821.666992188 406.444335938 m 1
 932 302 l 1
 821.666992188 202.27734375 l 1
 827 -125 l 1
 266 -122 l 1
 260 -59 l 1
 767 -59 l 1
 767 247 l 1
 844 302 l 1
 767 367 l 1
 761 661 l 1
 284 661 l 1
 290 722.555664062 l 1
 821.666992188 722.555664062 l 1
 821.666992188 406.444335938 l 1
478 532 m 1
 479.4453125 574.22265625 l 1
 688.055664062 574.22265625 l 1
 690 534 l 1
 478 532 l 1
EndSplineSet
Refer: 75 57724 N 0.285138 0 0 0.281583 163.765 350.372 2
Refer: 747 57665 N 0.600662 0 0 0.453842 -2.54629 33.8475 2
Validated: 5
EndChar

StartChar: JesusNotChrist.30
Encoding: 30 60163 111
Width: 962
VWidth: 0
Flags: W
HStem: -111 63<206 707> 300.478 23.7598<53.4668 664.687> 543 42.2227<419.445 628.056> 672 61.5557<230 701>
VStem: 63.3145 19.3698<661.499 789.594> 191.109 12.97<230.736 302.671> 463.406 11.5791<234.296 307.685> 707 54.667<-48 213.277 417.444 672>
LayerCount: 4
Fore
SplineSet
30.8715258698 772.358129624 m 2
 68.0570727448 826.401098374 l 2
 70.3541710328 829.739546277 75.3286572037 829.74691957 77.7173904789 826.707590467 c 2
 122.941999854 769.165598279 l 2
 125.073182749 766.453966023 124.421138482 762.376138729 121.550658456 760.464271985 c 0
 120.903334207 760.033125385 120.133207462 759.722193794 119.411339153 759.576539251 c 2
 111.706261028 758.021851751 l 2
 109.4718658 757.571007999 107.121074941 758.519185819 105.803877272 760.193521455 c 2
 81.5110734085 791.072946894 l 1
 82.6843014417 667.148598083 l 2
 82.7173616176 663.656556766 79.6302545818 660.928115197 76.3685922722 661.100122829 c 2
 68.9984750847 661.488794704 l 2
 65.7265083559 661.661345751 63.3006391052 664.576407584 63.3145203461 667.508870309 c 2
 63.8924266616 789.593685533 l 1
 44.1051659432 760.886827522 l 2
 42.1478222836 758.047162784 38.0601268568 757.460150632 35.3827828873 759.634252583 c 0
 34.9743575048 759.965909042 34.3316645738 760.736268382 34.2917535416 760.79183673 c 2
 30.9411676041 765.456875792 l 2
 29.3927582696 767.612734547 29.6731650072 770.616512676 30.8715258698 772.358129624 c 2
53.466796875 324.237304688 m 1
 664.686523438 324.237304688 l 1
 664.686523438 300.477539062 l 1
 53.466796875 300.477539062 l 1
 53.466796875 324.237304688 l 1
761.666992188 417.444335938 m 1
 872 313 l 1
 761.666992188 213.27734375 l 1
 767 -114 l 1
 206 -111 l 1
 200 -48 l 1
 707 -48 l 1
 707 258 l 1
 784 313 l 1
 707 378 l 1
 701 672 l 1
 224 672 l 1
 230 733.555664062 l 1
 761.666992188 733.555664062 l 1
 761.666992188 417.444335938 l 1
418 543 m 1
 419.4453125 585.22265625 l 1
 628.055664062 585.22265625 l 1
 630 545 l 1
 418 543 l 1
EndSplineSet
Refer: 722 57639 N 0.685536 0 0 0.492277 14.7032 -20.8011 2
Validated: 5
EndChar

StartChar: Matthew.31
Encoding: 31 60164 112
Width: 934
VWidth: 0
Flags: W
HStem: -114.277 63<211.333 712.333> -24.2773 17.9358<214.164 472.857> 77.7226 11.2265<349.027 361.918> 253.427 17.2801<101.632 154.199> 342.179 10.544<265.287 312.03 397.723 446.012> 493.642 20.0803<288.299 390.756> 539.723 42.2227<424.778 633.389> 668.723 61.5557<235.333 706.333>
VStem: 57.3332 17.3153<152.32 225.701> 63.3145 19.3698<661.499 789.594> 177.758 16.1253<261.172 379.991> 181.665 16.2493<244.888 321.711> 213.523 9.43923<241.184 296.369> 488.351 8.98327<241.546 295.518> 712.333 54.667<-51.2773 210 414.167 668.723>
LayerCount: 4
Fore
SplineSet
30.8715258698 772.358129624 m 2xff4e
 68.0570727448 826.401098374 l 2
 70.3541710328 829.739546277 75.3286572037 829.74691957 77.7173904789 826.707590467 c 2
 122.941999854 769.165598279 l 2
 125.073182749 766.453966023 124.421138482 762.376138729 121.550658456 760.464271985 c 0
 120.903334207 760.033125385 120.133207462 759.722193794 119.411339153 759.576539251 c 2
 111.706261028 758.021851751 l 2
 109.4718658 757.571007999 107.121074941 758.519185819 105.803877272 760.193521455 c 2
 81.5110734085 791.072946894 l 1
 82.6843014417 667.148598083 l 2
 82.7173616176 663.656556766 79.6302545818 660.928115197 76.3685922722 661.100122829 c 2
 68.9984750847 661.488794704 l 2
 65.7265083559 661.661345751 63.3006391052 664.576407584 63.3145203461 667.508870309 c 2
 63.8924266616 789.593685533 l 1
 44.1051659432 760.886827522 l 2
 42.1478222836 758.047162784 38.0601268568 757.460150632 35.3827828873 759.634252583 c 0
 34.9743575048 759.965909042 34.3316645738 760.736268382 34.2917535416 760.79183673 c 2
 30.9411676041 765.456875792 l 2
 29.3927582696 767.612734547 29.6731650072 770.616512676 30.8715258698 772.358129624 c 2xff4e
767 414.166992188 m 1
 877.333007812 309.72265625 l 1
 767 210 l 1
 772.333007812 -117.27734375 l 1
 211.333007812 -114.27734375 l 1
 205.333007812 -51.27734375 l 1
 712.333007812 -51.27734375 l 1
 712.333007812 254.72265625 l 1
 789.333007812 309.72265625 l 1
 712.333007812 374.72265625 l 1
 706.333007812 668.72265625 l 1
 229.333007812 668.72265625 l 1
 235.333007812 730.278320312 l 1
 767 730.278320312 l 1
 767 414.166992188 l 1
423.333007812 539.72265625 m 1
 424.778320312 581.9453125 l 1
 633.388671875 581.9453125 l 1
 635.333007812 541.72265625 l 1
 423.333007812 539.72265625 l 1
EndSplineSet
Refer: 64 57457 N 0.584984 0 0 0.645678 -1.16523 51.052 2
Refer: 6 57370 N 0.340296 0 0 0.380621 179.493 100.984 2
Validated: 1
EndChar

StartChar: Salathiel.78
Encoding: 78 60534 113
Width: 946
VWidth: 0
Flags: W
HStem: -121 63<200 701> 18.1338 92.9807<319 498.053> 176.568 27.4316<398.21 425> 356.277 19.8047<387.304 437.249> 434.064 14.1958<356.061 463.933> 533 42.2227<413.445 622.056> 662 61.5557<224 695>
VStem: 79.63 19.3698<679.407 807.502> 196.544 14.0723<221.181 305.351> 349.729 24.1758<318.626 344.999> 398.21 26.79<176.568 204 224.875 266.798> 449.176 24.1748<296.405 346.746> 609.516 13.9332<221.169 305.802> 701 54.667<-58 203.277 407.444 662>
LayerCount: 4
Fore
SplineSet
47.1869555573 790.266332749 m 2
 84.3725024323 844.309301499 l 2
 86.6696007203 847.647749402 91.6440868912 847.655122695 94.0328201664 844.615793592 c 2
 139.257429541 787.073801405 l 2
 141.388612436 784.362169149 140.736568169 780.284341855 137.866088143 778.372475111 c 0
 137.218763894 777.941328511 136.448637149 777.63039692 135.72676884 777.484742377 c 2
 128.021690716 775.930054877 l 2
 125.787295488 775.479211125 123.436504629 776.427388944 122.11930696 778.101724581 c 2
 97.826503096 808.98115002 l 1
 98.9997311292 685.056801208 l 2
 99.0327913051 681.564759891 95.9456842693 678.836318322 92.6840219597 679.008325954 c 2
 85.3139047722 679.396997829 l 2
 82.0419380434 679.569548876 79.6160687927 682.484610709 79.6299500336 685.417073434 c 2
 80.2078563491 807.501888658 l 1
 60.4205956308 778.795030646 l 2
 58.4632519712 775.955365908 54.3755565443 775.368353756 51.6982125748 777.542455707 c 0
 51.2897871922 777.874112167 50.6470942617 778.644471505 50.6071832287 778.700039854 c 2
 47.2565972912 783.365078917 l 2
 45.708187957 785.520937673 45.9885946951 788.524715802 47.1869555573 790.266332749 c 2
755.666992188 407.444335938 m 1
 866 303 l 1
 755.666992188 203.27734375 l 1
 761 -124 l 1
 200 -121 l 1
 194 -58 l 1
 701 -58 l 1
 701 248 l 1
 778 303 l 1
 701 368 l 1
 695 662 l 1
 218 662 l 1
 224 723.555664062 l 1
 755.666992188 723.555664062 l 1
 755.666992188 407.444335938 l 1
412 533 m 1
 413.4453125 575.22265625 l 1
 622.055664062 575.22265625 l 1
 624 535 l 1
 412 533 l 1
399.6484375 224.875 m 2
 399.560546875 228.0859375 399.517578125 230.493164062 399.517578125 232.099609375 c 0
 399.517578125 241.555664062 400.82421875 249.717773438 403.4375 256.586914062 c 0
 405.354492188 261.762695312 408.446289062 266.98046875 412.715820312 272.244140625 c 0
 415.852539062 276.079101562 421.470703125 281.655273438 429.573242188 288.970703125 c 0
 437.762695312 296.374023438 443.077148438 302.262695312 445.516601562 306.633789062 c 0
 447.955078125 311.00390625 449.17578125 315.776367188 449.17578125 320.951171875 c 0
 449.17578125 330.317382812 445.603515625 338.524414062 438.458984375 345.572265625 c 0
 431.31640625 352.708984375 422.560546875 356.27734375 412.193359375 356.27734375 c 0
 402.174804688 356.27734375 393.811523438 353.065429688 387.102539062 346.642578125 c 0
 380.39453125 340.219726562 375.995117188 330.182617188 373.905273438 316.534179688 c 1
 349.729492188 319.478515625 l 1
 351.908203125 337.766601562 358.354492188 351.771484375 369.069335938 361.495117188 c 0
 379.872070312 371.219726562 394.116210938 376.08203125 411.80078125 376.08203125 c 0
 430.532226562 376.08203125 445.47265625 370.862304688 456.624023438 360.424804688 c 0
 467.774414062 349.98828125 473.350585938 337.365234375 473.350585938 322.556640625 c 0
 473.350585938 313.993164062 471.390625 306.098632812 467.470703125 298.872070312 c 0
 463.548828125 291.645507812 455.8828125 282.859375 444.470703125 272.51171875 c 0
 436.8046875 265.552734375 431.795898438 260.422851562 429.442382812 257.123046875 c 0
 427.090820312 253.821289062 425.34765625 250.030273438 424.21484375 245.749023438 c 0
 423.083007812 241.466796875 422.428710938 234.5078125 422.255859375 224.875 c 2
 399.6484375 224.875 l 2
398.209960938 176.568359375 m 1
 398.209960938 204 l 1
 425 204 l 1
 425 176.568359375 l 1
 398.209960938 176.568359375 l 1
EndSplineSet
Refer: 63 57442 N 0.501585 0 0 0.51104 146.386 82.0138 2
Validated: 1
EndChar

StartChar: Serug.79
Encoding: 79 60536 114
Width: 1004
VWidth: 0
Flags: W
HStem: -101 63<295 796> 61.5401 13.2427<310.664 338.182 704.945 732.403> 286.67 13.2432<367.235 511.44 531.64 675.846> 553 42.2227<508.445 717.056> 682 61.5557<319 790>
VStem: 131.315 19.3698<694.266 822.361> 514.526 14.0275<19.1622 244.293 299.914 416.452> 796 54.667<-38 223.277 427.444 682>
LayerCount: 4
Fore
SplineSet
98.8715258698 805.125707749 m 2
 136.057072745 859.168676499 l 2
 138.354171033 862.507124402 143.328657204 862.514497695 145.717390479 859.475168592 c 2
 190.941999854 801.933176404 l 2
 193.073182749 799.221544149 192.421138482 795.143716854 189.550658456 793.231850111 c 0
 188.903334207 792.80070351 188.133207462 792.48977192 187.411339153 792.344117377 c 2
 179.706261028 790.789429877 l 2
 177.4718658 790.338586124 175.121074941 791.286763944 173.803877272 792.961099581 c 2
 149.511073409 823.84052502 l 1
 150.684301442 699.916176208 l 2
 150.717361618 696.424134891 147.630254582 693.695693322 144.368592272 693.867700954 c 2
 136.998475085 694.256372829 l 2
 133.726508356 694.428923876 131.300639105 697.343985709 131.314520346 700.276448434 c 2
 131.892426662 822.361263658 l 1
 112.105165943 793.654405647 l 2
 110.147822284 790.814740909 106.060126857 790.227728757 103.382782887 792.401830708 c 0
 102.974357505 792.733487167 102.331664574 793.503846506 102.291753541 793.559414855 c 2
 98.9411676039 798.224453917 l 2
 97.3927582696 800.380312673 97.6731650074 803.384090802 98.8715258698 805.125707749 c 2
850.666992188 427.444335938 m 1
 961 323 l 1
 850.666992188 223.27734375 l 1
 856 -104 l 1
 295 -101 l 1
 289 -38 l 1
 796 -38 l 1
 796 268 l 1
 873 323 l 1
 796 388 l 1
 790 682 l 1
 313 682 l 1
 319 743.555664062 l 1
 850.666992188 743.555664062 l 1
 850.666992188 427.444335938 l 1
507 553 m 1
 508.4453125 595.22265625 l 1
 717.055664062 595.22265625 l 1
 719 555 l 1
 507 553 l 1
EndSplineSet
Refer: 497 57924 N 0.505 0 0 0.476747 258.8 74.7828 2
Refer: 587 58133 N -0.208603 0.119483 -0.158172 -0.157579 773.966 374.949 2
Validated: 1
EndChar

StartChar: Seth.80
Encoding: 80 60537 115
Width: 1005
VWidth: 0
Flags: W
HStem: -127 63<270 771> 17.4932 12.778<290.44 696.497> 97.8881 13.4155<437.66 537.717> 388.049 12.778<290.44 696.497> 527 42.2227<483.445 692.056> 656 61.5557<294 765>
VStem: 107.315 19.3698<669.499 797.594> 275.937 14.5023<30.2712 388.049> 420.34 17.3199<111.304 328.74> 537.717 14.2839<111.304 328.56> 696.497 14.5023<30.2712 388.049> 771 54.667<-64 197.277 401.444 656>
LayerCount: 4
Fore
SplineSet
74.8715258698 780.358129624 m 2
 112.057072745 834.401098374 l 2
 114.354171033 837.739546277 119.328657204 837.74691957 121.717390479 834.707590467 c 2
 166.941999854 777.165598279 l 2
 169.073182749 774.453966024 168.421138482 770.376138729 165.550658456 768.464271986 c 0
 164.903334207 768.033125385 164.133207462 767.722193795 163.411339153 767.576539252 c 2
 155.706261028 766.021851752 l 2
 153.4718658 765.571007999 151.121074941 766.519185819 149.803877272 768.193521456 c 2
 125.511073409 799.072946895 l 1
 126.684301442 675.148598083 l 2
 126.717361618 671.656556766 123.630254582 668.928115197 120.368592272 669.100122829 c 2
 112.998475085 669.488794704 l 2
 109.726508356 669.661345751 107.300639105 672.576407584 107.314520346 675.508870309 c 2
 107.892426662 797.593685533 l 1
 88.1051659432 768.886827522 l 2
 86.1478222836 766.047162784 82.0601268568 765.460150632 79.3827828873 767.634252583 c 0
 78.9743575048 767.965909042 78.331664574 768.736268381 78.2917535414 768.79183673 c 2
 74.9411676039 773.456875792 l 2
 73.3927582696 775.612734548 73.6731650074 778.616512677 74.8715258698 780.358129624 c 2
825.666992188 401.444335938 m 1
 936 297 l 1
 825.666992188 197.27734375 l 1
 831 -130 l 1
 270 -127 l 1
 264 -64 l 1
 771 -64 l 1
 771 242 l 1
 848 297 l 1
 771 362 l 1
 765 656 l 1
 288 656 l 1
 294 717.555664062 l 1
 825.666992188 717.555664062 l 1
 825.666992188 401.444335938 l 1
482 527 m 1
 483.4453125 569.22265625 l 1
 692.055664062 569.22265625 l 1
 694 529 l 1
 482 527 l 1
EndSplineSet
Refer: 133 57407 N 0.522074 0 0 0.46 223.73 71.16 2
Refer: 538 58112 N 0.310519 0 0 0.270108 397.983 135.163 2
Validated: 1
EndChar

StartChar: Shelah.81
Encoding: 81 60538 116
Width: 988
VWidth: 0
Flags: W
HStem: -130 63<236 737> -15.001 11.6113<415.386 428.698> 258.525 10.9062<328.918 377.185 465.668 515.532> 524 42.2227<449.445 658.056> 653 61.5557<260 731>
VStem: 79.63 19.3698<679.407 807.502> 275.467 9.74707<154.067 211.144> 559.25 9.27539<154.441 210.264> 737 54.667<-67 194.277 398.444 653>
LayerCount: 4
Fore
SplineSet
47.1869555573 790.266332749 m 2
 84.3725024323 844.309301499 l 2
 86.6696007203 847.647749402 91.6440868912 847.655122695 94.0328201664 844.615793592 c 2
 139.257429541 787.073801405 l 2
 141.388612436 784.362169149 140.736568169 780.284341855 137.866088143 778.372475111 c 0
 137.218763894 777.941328511 136.448637149 777.63039692 135.72676884 777.484742377 c 2
 128.021690716 775.930054877 l 2
 125.787295488 775.479211125 123.436504629 776.427388944 122.11930696 778.101724581 c 2
 97.826503096 808.98115002 l 1
 98.9997311292 685.056801208 l 2
 99.0327913051 681.564759891 95.9456842693 678.836318322 92.6840219597 679.008325954 c 2
 85.3139047722 679.396997829 l 2
 82.0419380434 679.569548876 79.6160687927 682.484610709 79.6299500336 685.417073434 c 2
 80.2078563491 807.501888658 l 1
 60.4205956308 778.795030646 l 2
 58.4632519712 775.955365908 54.3755565443 775.368353756 51.6982125748 777.542455707 c 0
 51.2897871922 777.874112167 50.6470942617 778.644471505 50.6071832287 778.700039854 c 2
 47.2565972912 783.365078917 l 2
 45.708187957 785.520937673 45.9885946951 788.524715802 47.1869555573 790.266332749 c 2
791.666992188 398.444335938 m 1
 902 294 l 1
 791.666992188 194.27734375 l 1
 797 -133 l 1
 236 -130 l 1
 230 -67 l 1
 737 -67 l 1
 737 239 l 1
 814 294 l 1
 737 359 l 1
 731 653 l 1
 254 653 l 1
 260 714.555664062 l 1
 791.666992188 714.555664062 l 1
 791.666992188 398.444335938 l 1
448 524 m 1
 449.4453125 566.22265625 l 1
 658.055664062 566.22265625 l 1
 660 526 l 1
 448 524 l 1
422 -15 m 0
 421.953125 -15 421.880859375 -15.0009765625 421.833984375 -15.0009765625 c 0
 418.501953125 -15.0009765625 413.896484375 -12.8447265625 411.5546875 -10.1884765625 c 2
 312.77734375 96.978515625 l 2
 311.469726562 98.1953125 309.458984375 100.301757812 308.287109375 101.681640625 c 0
 306.237304688 103.977539062 303.310546875 107.915039062 299.2109375 113.709960938 c 0
 295.842773438 118.4296875 290.857421875 126.463867188 288.083007812 131.64453125 c 0
 285.026367188 137.561523438 281.046875 147.654296875 279.201171875 154.170898438 c 0
 277.20703125 161.084960938 275.587890625 172.595703125 275.587890625 179.862304688 c 0
 275.587890625 180.014648438 275.588867188 180.262695312 275.588867188 180.416015625 c 0
 275.521484375 181.76953125 275.466796875 183.96484375 275.466796875 185.319335938 c 0
 275.466796875 204.512695312 285.009765625 231.416015625 296.76953125 245.373046875 c 0
 309.588867188 258.411132812 334.043945312 268.993164062 351.357421875 268.993164062 c 0
 352.455078125 268.993164062 354.236328125 268.944335938 355.333984375 268.884765625 c 0
 361.44921875 268.848632812 371.11328125 267.036132812 376.90625 264.837890625 c 0
 382.8046875 262.627929688 391.8125 257.728515625 397.01171875 253.90234375 c 0
 402.965820312 249.528320312 408.139648438 245.373046875 412.532226562 241.435546875 c 0
 416.924804688 237.498046875 418.583007812 235.75 421.51171875 232.6875 c 0
 424.439453125 235.75 427.3671875 238.592773438 430.491210938 241.435546875 c 0
 433.614257812 244.279296875 440.251953125 249.528320312 446.010742188 253.90234375 c 0
 451.208984375 257.73046875 460.216796875 262.629882812 466.118164062 264.837890625 c 0
 472.022460938 267.209960938 481.905273438 269.21875 488.176757812 269.321289062 c 0
 489.2734375 269.3828125 491.055664062 269.431640625 492.154296875 269.431640625 c 0
 509.467773438 269.431640625 533.922851562 258.848632812 546.741210938 245.810546875 c 0
 558.766601562 231.791992188 568.525390625 204.633789062 568.525390625 185.190429688 c 0
 568.525390625 183.872070312 568.473632812 181.733398438 568.41015625 180.416015625 c 0
 568.41015625 152.858398438 555.720703125 124.754882812 530.733398438 96.7607421875 c 2
 432.345703125 -9.8603515625 l 2
 430.034179688 -12.65234375 425.3984375 -14.9541015625 422 -15 c 0
355.822265625 258.38671875 m 0
 354.766601562 258.448242188 353.051757812 258.5 351.995117188 258.5 c 0
 336.634765625 258.5 314.956054688 249.091796875 303.602539062 237.498046875 c 0
 293.451171875 225.321289062 285.213867188 201.916015625 285.213867188 185.252929688 c 0
 285.213867188 183.916992188 285.274414062 181.75 285.350585938 180.416015625 c 0
 285.418945312 173.96484375 286.993164062 163.7734375 288.86328125 157.670898438 c 0
 290.52734375 151.788085938 294.11328125 142.674804688 296.8671875 137.330078125 c 0
 299.370117188 132.5078125 303.874023438 125.012695312 306.920898438 120.599609375 c 0
 310.825195312 115.131835938 313.65625 111.4140625 315.413085938 109.663085938 c 0
 316.430664062 108.447265625 318.180664062 106.584960938 319.317382812 105.508789062 c 2
 418.485351562 -1.6591796875 l 2
 419.284179688 -2.6142578125 420.879882812 -3.3896484375 422.048828125 -3.3896484375 c 0
 423.215820312 -3.3896484375 424.8125 -2.6142578125 425.611328125 -1.6591796875 c 2
 524.388671875 104.852539062 l 2
 547.423828125 130.66015625 559.13671875 156.249023438 559.13671875 180.744140625 c 0
 559.19921875 181.95703125 559.25 183.928710938 559.25 185.14453125 c 0
 559.25 201.998046875 550.84765625 225.600585938 540.494140625 237.828125 c 0
 529.178710938 249.251953125 507.6328125 258.525390625 492.400390625 258.525390625 c 0
 491.233398438 258.525390625 489.341796875 258.462890625 488.176757812 258.38671875 c 0
 482.9453125 258.34375 474.681640625 256.775390625 469.728515625 254.885742188 c 0
 464.489257812 252.952148438 456.487304688 248.641601562 451.8671875 245.262695312 c 0
 446.206054688 241.107421875 441.227539062 237.0625 437.127929688 233.454101562 c 0
 433.724609375 230.27734375 428.477539062 224.791992188 425.416015625 221.205078125 c 2
 422 217.37890625 l 1
 418.583007812 221.205078125 l 2
 415.537109375 224.633789062 410.333984375 229.876953125 406.967773438 232.907226562 c 0
 402.868164062 236.625 397.890625 240.561523438 392.229492188 244.716796875 c 0
 387.608398438 248.092773438 379.606445312 252.403320312 374.368164062 254.33984375 c 0
 369.412109375 256.393554688 361.103515625 258.206054688 355.822265625 258.38671875 c 0
EndSplineSet
Refer: 69 57631 N 0 0.309083 -0.513306 -0 619.367 211.298 2
Validated: 1
EndChar

StartChar: Shem.82
Encoding: 82 60539 117
Width: 1004
VWidth: 0
Flags: W
HStem: -140 63<235 736> -19.635 8.78242<539.584 570.784> 103.38 8.66032<252.871 491.565 506.991 546.609> 156.26 9.17289<267.702 605.629> 422.27 9.17289<267.702 605.629> 514 42.2227<448.445 657.056> 643 61.5557<259 730>
VStem: 79.63 19.3698<679.407 807.502> 255.633 12.0691<165.433 422.27> 442.889 12.533<25.2749 67.0487> 605.629 12.0691<165.433 422.27> 624.257 13.0089<25.4093 67.3773> 736 54.667<-77 184.277 388.444 643>
LayerCount: 4
Fore
SplineSet
47.1869555573 790.266332749 m 2
 84.3725024323 844.309301499 l 2
 86.6696007203 847.647749402 91.6440868912 847.655122695 94.0328201664 844.615793592 c 2
 139.257429541 787.073801405 l 2
 141.388612436 784.362169149 140.736568169 780.284341855 137.866088143 778.372475111 c 0
 137.218763894 777.941328511 136.448637149 777.63039692 135.72676884 777.484742377 c 2
 128.021690716 775.930054877 l 2
 125.787295488 775.479211125 123.436504629 776.427388944 122.11930696 778.101724581 c 2
 97.826503096 808.98115002 l 1
 98.9997311292 685.056801208 l 2
 99.0327913051 681.564759891 95.9456842693 678.836318322 92.6840219597 679.008325954 c 2
 85.3139047722 679.396997829 l 2
 82.0419380434 679.569548876 79.6160687927 682.484610709 79.6299500336 685.417073434 c 2
 80.2078563491 807.501888658 l 1
 60.4205956308 778.795030646 l 2
 58.4632519712 775.955365908 54.3755565443 775.368353756 51.6982125748 777.542455707 c 0
 51.2897871922 777.874112167 50.6470942617 778.644471505 50.6071832287 778.700039854 c 2
 47.2565972912 783.365078917 l 2
 45.708187957 785.520937673 45.9885946951 788.524715802 47.1869555573 790.266332749 c 2
790.666992188 388.444335938 m 1
 901 284 l 1
 790.666992188 184.27734375 l 1
 796 -143 l 1
 235 -140 l 1
 229 -77 l 1
 736 -77 l 1
 736 229 l 1
 813 284 l 1
 736 349 l 1
 730 643 l 1
 253 643 l 1
 259 704.555664062 l 1
 790.666992188 704.555664062 l 1
 790.666992188 388.444335938 l 1
447 514 m 1
 448.4453125 556.22265625 l 1
 657.055664062 556.22265625 l 1
 659 516 l 1
 447 514 l 1
EndSplineSet
Refer: 133 57407 N 0.434478 0 0 0.330218 212.185 194.786 2
Refer: 72 57702 N 0.459762 0 0 0.311777 206.895 -43.0691 2
Validated: 5
EndChar

